%TF.GenerationSoftware,KiCad,Pcbnew,9.0.5*%
%TF.CreationDate,2025-12-29T18:52:27+02:00*%
%TF.ProjectId,Circuit_Design_DO,43697263-7569-4745-9f44-657369676e5f,rev?*%
%TF.SameCoordinates,Original*%
%TF.FileFunction,Copper,L4,Bot*%
%TF.FilePolarity,Positive*%
%FSLAX46Y46*%
G04 Gerber Fmt 4.6, Leading zero omitted, Abs format (unit mm)*
G04 Created by KiCad (PCBNEW 9.0.5) date 2025-12-29 18:52:27*
%MOMM*%
%LPD*%
G01*
G04 APERTURE LIST*
G04 Aperture macros list*
%AMRoundRect*
0 Rectangle with rounded corners*
0 $1 Rounding radius*
0 $2 $3 $4 $5 $6 $7 $8 $9 X,Y pos of 4 corners*
0 Add a 4 corners polygon primitive as box body*
4,1,4,$2,$3,$4,$5,$6,$7,$8,$9,$2,$3,0*
0 Add four circle primitives for the rounded corners*
1,1,$1+$1,$2,$3*
1,1,$1+$1,$4,$5*
1,1,$1+$1,$6,$7*
1,1,$1+$1,$8,$9*
0 Add four rect primitives between the rounded corners*
20,1,$1+$1,$2,$3,$4,$5,0*
20,1,$1+$1,$4,$5,$6,$7,0*
20,1,$1+$1,$6,$7,$8,$9,0*
20,1,$1+$1,$8,$9,$2,$3,0*%
G04 Aperture macros list end*
%TA.AperFunction,ComponentPad*%
%ADD10O,7.000000X3.500000*%
%TD*%
%TA.AperFunction,ComponentPad*%
%ADD11O,2.500000X1.600000*%
%TD*%
%TA.AperFunction,ComponentPad*%
%ADD12C,1.500000*%
%TD*%
%TA.AperFunction,ComponentPad*%
%ADD13RoundRect,0.250001X-0.499999X0.499999X-0.499999X-0.499999X0.499999X-0.499999X0.499999X0.499999X0*%
%TD*%
%TA.AperFunction,ComponentPad*%
%ADD14R,2.000000X2.000000*%
%TD*%
%TA.AperFunction,ComponentPad*%
%ADD15C,2.000000*%
%TD*%
%TA.AperFunction,ComponentPad*%
%ADD16R,3.200000X2.000000*%
%TD*%
%TA.AperFunction,ComponentPad*%
%ADD17R,1.700000X1.700000*%
%TD*%
%TA.AperFunction,ComponentPad*%
%ADD18C,1.700000*%
%TD*%
%TA.AperFunction,ComponentPad*%
%ADD19C,3.600000*%
%TD*%
%TA.AperFunction,ConnectorPad*%
%ADD20C,5.600000*%
%TD*%
%TA.AperFunction,ComponentPad*%
%ADD21C,0.499999*%
%TD*%
%TA.AperFunction,ComponentPad*%
%ADD22C,0.508000*%
%TD*%
%TA.AperFunction,HeatsinkPad*%
%ADD23O,1.000000X2.100000*%
%TD*%
%TA.AperFunction,HeatsinkPad*%
%ADD24O,1.000000X1.800000*%
%TD*%
%TA.AperFunction,ViaPad*%
%ADD25C,0.600000*%
%TD*%
%TA.AperFunction,ViaPad*%
%ADD26C,1.000000*%
%TD*%
%TA.AperFunction,ViaPad*%
%ADD27C,1.200000*%
%TD*%
%TA.AperFunction,Conductor*%
%ADD28C,0.200000*%
%TD*%
G04 APERTURE END LIST*
D10*
%TO.P,J8,2,Ext*%
%TO.N,Net-(J8-Ext)*%
X127700000Y-48400000D03*
D11*
X132780000Y-56020000D03*
D10*
X127700000Y-58560000D03*
D11*
%TO.P,J8,1,In*%
%TO.N,Net-(J8-In)*%
X132780000Y-53480000D03*
%TD*%
D12*
%TO.P,U2,4,+Vout*%
%TO.N,+5VA*%
X158690000Y-96682500D03*
%TO.P,U2,3,-Vout*%
%TO.N,AGND*%
X161230000Y-96682500D03*
%TO.P,U2,2,+Vin*%
%TO.N,Net-(U2-+Vin)*%
X163770000Y-96682500D03*
D13*
%TO.P,U2,1,-Vin*%
%TO.N,DGND*%
X166310000Y-96682500D03*
%TD*%
D12*
%TO.P,SW3,*%
%TO.N,*%
X224600000Y-54900000D03*
X224600000Y-59900000D03*
D14*
%TO.P,SW3,A,A*%
%TO.N,/PD3*%
X210100000Y-54900000D03*
D15*
%TO.P,SW3,B,B*%
%TO.N,/PD2*%
X210100000Y-59900000D03*
%TO.P,SW3,C,C*%
%TO.N,DGND*%
X210100000Y-57400000D03*
D16*
%TO.P,SW3,MP*%
%TO.N,N/C*%
X217600000Y-51800000D03*
X217600000Y-63000000D03*
%TD*%
D17*
%TO.P,J1,1,Pin_1*%
%TO.N,rst_dn*%
X141050000Y-107500000D03*
D18*
%TO.P,J1,2,Pin_2*%
%TO.N,+5VD*%
X143590000Y-107500000D03*
%TO.P,J1,3,Pin_3*%
X146130000Y-107500000D03*
%TO.P,J1,4,Pin_4*%
%TO.N,DGND*%
X148670000Y-107500000D03*
%TO.P,J1,5,Pin_5*%
X151210000Y-107500000D03*
%TO.P,J1,6,Pin_6*%
%TO.N,+5VD*%
X153750000Y-107500000D03*
%TD*%
D17*
%TO.P,J10,1,Pin_1*%
%TO.N,/MISO_D*%
X198360000Y-60120000D03*
D18*
%TO.P,J10,2,Pin_2*%
%TO.N,+5VD*%
X200900000Y-60120000D03*
%TO.P,J10,3,Pin_3*%
%TO.N,/PB1*%
X198360000Y-62660000D03*
%TO.P,J10,4,Pin_4*%
%TO.N,/MOSI_D*%
X200900000Y-62660000D03*
%TO.P,J10,5,Pin_5*%
%TO.N,rst_dn*%
X198360000Y-65200000D03*
%TO.P,J10,6,Pin_6*%
%TO.N,DGND*%
X200900000Y-65200000D03*
%TD*%
D19*
%TO.P,H2,1*%
%TO.N,N/C*%
X230000000Y-40000000D03*
D20*
X230000000Y-40000000D03*
%TD*%
D19*
%TO.P,H3,1*%
%TO.N,N/C*%
X130000000Y-100000000D03*
D20*
X130000000Y-100000000D03*
%TD*%
D19*
%TO.P,H4,1*%
%TO.N,N/C*%
X230000000Y-100000000D03*
D20*
X230000000Y-100000000D03*
%TD*%
D17*
%TO.P,J5,1*%
%TO.N,Net-(U8A-PK0(ADC8{slash}PCINT16))*%
X188470000Y-107500000D03*
D18*
%TO.P,J5,2*%
%TO.N,Net-(U8A-PK1(ADC9{slash}PCINT17))*%
X191010000Y-107500000D03*
%TO.P,J5,3*%
%TO.N,Net-(U8A-PK2(ADC10{slash}PCINT18))*%
X193550000Y-107500000D03*
%TO.P,J5,4*%
%TO.N,Net-(U8A-PK3(ADC11{slash}PCINT19))*%
X196090000Y-107500000D03*
%TO.P,J5,5*%
%TO.N,Net-(U8A-PK4(ADC12{slash}PCINT20))*%
X198630000Y-107500000D03*
%TO.P,J5,6*%
%TO.N,Net-(U8A-PK5(ADC13{slash}PCINT21))*%
X201170000Y-107500000D03*
%TO.P,J5,7*%
%TO.N,Net-(U8A-PK6(ADC14{slash}PCINT22))*%
X203710000Y-107500000D03*
%TO.P,J5,8*%
%TO.N,Net-(U8A-PK7(ADC15{slash}PCINT23))*%
X206250000Y-107500000D03*
%TD*%
D19*
%TO.P,H1,1*%
%TO.N,N/C*%
X130000000Y-40000000D03*
D20*
X130000000Y-40000000D03*
%TD*%
D17*
%TO.P,J7,1,Pin_1*%
%TO.N,+5VD*%
X230000000Y-47140000D03*
D18*
%TO.P,J7,2,Pin_2*%
X232540000Y-47140000D03*
%TO.P,J7,3,Pin_3*%
%TO.N,Relay_ACDC*%
X230000000Y-49680000D03*
%TO.P,J7,4,Pin_4*%
%TO.N,/PA1*%
X232540000Y-49680000D03*
%TO.P,J7,5,Pin_5*%
%TO.N,/PA2*%
X230000000Y-52220000D03*
%TO.P,J7,6,Pin_6*%
%TO.N,/PA3*%
X232540000Y-52220000D03*
%TO.P,J7,7,Pin_7*%
%TO.N,/PA4*%
X230000000Y-54760000D03*
%TO.P,J7,8,Pin_8*%
%TO.N,/PA5*%
X232540000Y-54760000D03*
%TO.P,J7,9,Pin_9*%
%TO.N,/PA6*%
X230000000Y-57300000D03*
%TO.P,J7,10,Pin_10*%
%TO.N,/PA7*%
X232540000Y-57300000D03*
%TO.P,J7,11,Pin_11*%
%TO.N,/PC7*%
X230000000Y-59840000D03*
%TO.P,J7,12,Pin_12*%
%TO.N,/PC6*%
X232540000Y-59840000D03*
%TO.P,J7,13,Pin_13*%
%TO.N,/PC5*%
X230000000Y-62380000D03*
%TO.P,J7,14,Pin_14*%
%TO.N,/PC4*%
X232540000Y-62380000D03*
%TO.P,J7,15,Pin_15*%
%TO.N,/PC3*%
X230000000Y-64920000D03*
%TO.P,J7,16,Pin_16*%
%TO.N,/PC2*%
X232540000Y-64920000D03*
%TO.P,J7,17,Pin_17*%
%TO.N,/PC1*%
X230000000Y-67460000D03*
%TO.P,J7,18,Pin_18*%
%TO.N,/PC0*%
X232540000Y-67460000D03*
%TO.P,J7,19,Pin_19*%
%TO.N,/PD7*%
X230000000Y-70000000D03*
%TO.P,J7,20,Pin_20*%
%TO.N,/PG2*%
X232540000Y-70000000D03*
%TO.P,J7,21,Pin_21*%
%TO.N,/PG1*%
X230000000Y-72540000D03*
%TO.P,J7,22,Pin_22*%
%TO.N,/PG0*%
X232540000Y-72540000D03*
%TO.P,J7,23,Pin_23*%
%TO.N,/PL7*%
X230000000Y-75080000D03*
%TO.P,J7,24,Pin_24*%
%TO.N,/PL6*%
X232540000Y-75080000D03*
%TO.P,J7,25,Pin_25*%
%TO.N,/PL5*%
X230000000Y-77620000D03*
%TO.P,J7,26,Pin_26*%
%TO.N,/PL4*%
X232540000Y-77620000D03*
%TO.P,J7,27,Pin_27*%
%TO.N,/PL3*%
X230000000Y-80160000D03*
%TO.P,J7,28,Pin_28*%
%TO.N,/PL2*%
X232540000Y-80160000D03*
%TO.P,J7,29,Pin_29*%
%TO.N,/PL1*%
X230000000Y-82700000D03*
%TO.P,J7,30,Pin_30*%
%TO.N,/PL0*%
X232540000Y-82700000D03*
%TO.P,J7,31,Pin_31*%
%TO.N,/MISO_D*%
X230000000Y-85240000D03*
%TO.P,J7,32,Pin_32*%
%TO.N,/MOSI_D*%
X232540000Y-85240000D03*
%TO.P,J7,33,Pin_33*%
%TO.N,/PB1*%
X230000000Y-87780000D03*
%TO.P,J7,34,Pin_34*%
%TO.N,/PB0*%
X232540000Y-87780000D03*
%TO.P,J7,35,Pin_35*%
%TO.N,DGND*%
X230000000Y-90320000D03*
%TO.P,J7,36,Pin_36*%
X232540000Y-90320000D03*
%TD*%
D21*
%TO.P,U3,V*%
%TO.N,DGND*%
X219400000Y-97999998D03*
X219400000Y-97200000D03*
%TD*%
D17*
%TO.P,J6,1*%
%TO.N,/PD0*%
X188470000Y-32500000D03*
D18*
%TO.P,J6,2*%
%TO.N,/PD1*%
X191010000Y-32500000D03*
%TO.P,J6,3*%
%TO.N,/PD2*%
X193550000Y-32500000D03*
%TO.P,J6,4*%
%TO.N,/PD3*%
X196090000Y-32500000D03*
%TO.P,J6,5*%
%TO.N,/PH0*%
X198630000Y-32500000D03*
%TO.P,J6,6*%
%TO.N,/PH1*%
X201170000Y-32500000D03*
%TO.P,J6,7*%
%TO.N,/PJ0*%
X203710000Y-32500000D03*
%TO.P,J6,8*%
%TO.N,/PJ1*%
X206250000Y-32500000D03*
%TD*%
D22*
%TO.P,U4,V*%
%TO.N,AGND*%
X152912600Y-73512600D03*
X152912600Y-74300000D03*
X152912600Y-75087400D03*
X153700000Y-73512600D03*
X153700000Y-74300000D03*
X153700000Y-75087400D03*
X154487400Y-73512600D03*
X154487400Y-74300000D03*
X154487400Y-75087400D03*
%TD*%
D17*
%TO.P,J4,1*%
%TO.N,TX_ft*%
X182540000Y-32500000D03*
D18*
%TO.P,J4,2*%
%TO.N,RX_ft*%
X180000000Y-32500000D03*
%TO.P,J4,3*%
%TO.N,AC{slash}DC*%
X177460000Y-32500000D03*
%TO.P,J4,4*%
%TO.N,/PE5*%
X174920000Y-32500000D03*
%TO.P,J4,5*%
%TO.N,/PG5*%
X172380000Y-32500000D03*
%TO.P,J4,6*%
%TO.N,/PE3*%
X169840000Y-32500000D03*
%TO.P,J4,7*%
%TO.N,/PH3*%
X167300000Y-32500000D03*
%TO.P,J4,8*%
%TO.N,/PH4*%
X164760000Y-32500000D03*
%TD*%
D17*
%TO.P,J3,1*%
%TO.N,Net-(U8A-PF0(ADC0))*%
X164760000Y-107500000D03*
D18*
%TO.P,J3,2*%
%TO.N,Net-(U8A-PF1(ADC1))*%
X167300000Y-107500000D03*
%TO.P,J3,3*%
%TO.N,Net-(U8A-PF2(ADC2))*%
X169840000Y-107500000D03*
%TO.P,J3,4*%
%TO.N,Net-(U8A-PF3(ADC3))*%
X172380000Y-107500000D03*
%TO.P,J3,5*%
%TO.N,Net-(U8A-PF4(ADC4{slash}TCK))*%
X174920000Y-107500000D03*
%TO.P,J3,6*%
%TO.N,Net-(U8A-PF5(ADC5{slash}TMS))*%
X177460000Y-107500000D03*
%TO.P,J3,7*%
%TO.N,Net-(U8A-PF6(ADC6{slash}TDO))*%
X180000000Y-107500000D03*
%TO.P,J3,8*%
%TO.N,Net-(U8A-PF7(ADC7{slash}TDI))*%
X182540000Y-107500000D03*
%TD*%
D23*
%TO.P,J9,S1,SHIELD*%
%TO.N,DGND*%
X215300000Y-103220000D03*
D24*
X215300000Y-107400000D03*
D23*
X223940000Y-103220000D03*
D24*
X223940000Y-107400000D03*
%TD*%
D17*
%TO.P,J2,1*%
%TO.N,/PH5*%
X158830000Y-32500000D03*
D18*
%TO.P,J2,2*%
%TO.N,/PH6*%
X156290000Y-32500000D03*
%TO.P,J2,3*%
%TO.N,/CS_D*%
X153750000Y-32500000D03*
%TO.P,J2,4*%
%TO.N,/PB5*%
X151210000Y-32500000D03*
%TO.P,J2,5*%
%TO.N,10X*%
X148670000Y-32500000D03*
%TO.P,J2,6*%
%TO.N,/PB7*%
X146130000Y-32500000D03*
%TO.P,J2,7*%
%TO.N,DGND*%
X143590000Y-32500000D03*
%TO.P,J2,8*%
%TO.N,/AREF*%
X141050000Y-32500000D03*
%TD*%
D12*
%TO.P,SW2,*%
%TO.N,*%
X224600000Y-68600000D03*
X224600000Y-73600000D03*
D14*
%TO.P,SW2,A,A*%
%TO.N,/PD1*%
X210100000Y-68600000D03*
D15*
%TO.P,SW2,B,B*%
%TO.N,/PD0*%
X210100000Y-73600000D03*
%TO.P,SW2,C,C*%
%TO.N,DGND*%
X210100000Y-71100000D03*
D16*
%TO.P,SW2,MP*%
%TO.N,N/C*%
X217600000Y-65500000D03*
X217600000Y-76700000D03*
%TD*%
D25*
%TO.N,DGND*%
X230200000Y-107000000D03*
X230200000Y-105500000D03*
%TO.N,/PG2*%
X222400000Y-60351000D03*
X214300000Y-59499997D03*
X199100000Y-55400000D03*
%TO.N,/PC7*%
X214300000Y-60300000D03*
X201991365Y-67791365D03*
%TO.N,/PC6*%
X214300000Y-61300000D03*
%TO.N,/PC5*%
X214274735Y-62274735D03*
%TO.N,/PC6*%
X201293408Y-69080832D03*
%TO.N,/PC5*%
X201800000Y-69700000D03*
%TO.N,/PC4*%
X214249000Y-63149000D03*
X202300000Y-70400000D03*
%TO.N,/PC3*%
X214200000Y-66499997D03*
X202800000Y-71100000D03*
%TO.N,/PC2*%
X214200000Y-67300000D03*
X203200000Y-71800000D03*
%TO.N,Net-(U1-DCDC_HGND)*%
X131600000Y-75800000D03*
X131600000Y-64300000D03*
%TO.N,AGND*%
X156300000Y-91900000D03*
X143900000Y-98800000D03*
X154400000Y-55800000D03*
X145900000Y-67300000D03*
X159000000Y-81300000D03*
X131400000Y-95500000D03*
X157300000Y-74987400D03*
X127200000Y-90900000D03*
X144670250Y-82330608D03*
X158300000Y-68200000D03*
X154700000Y-77300000D03*
X154300000Y-63400000D03*
X156000000Y-50100000D03*
X135300000Y-90800000D03*
X153100000Y-86500000D03*
X160600000Y-73487400D03*
X141600000Y-98200000D03*
X137700000Y-94187500D03*
X142300000Y-67600000D03*
%TO.N,+5VA*%
X148800000Y-86500000D03*
X156400000Y-68200000D03*
X156000000Y-47800000D03*
X159000000Y-90700000D03*
X133000000Y-91000000D03*
X143900000Y-82800000D03*
X129500000Y-90900000D03*
X155600000Y-77300000D03*
X141400000Y-92900000D03*
X148600000Y-69600000D03*
X144700000Y-90200000D03*
X160700000Y-71187400D03*
X154400000Y-57100000D03*
X137000000Y-74000000D03*
%TO.N,DGND*%
X219850000Y-87125000D03*
X172521735Y-60000000D03*
X168900000Y-80900000D03*
X183449293Y-68249293D03*
X165500000Y-81300000D03*
X204200000Y-75600000D03*
X176400000Y-51100000D03*
X168900000Y-89800000D03*
X225200000Y-107400000D03*
X216900000Y-87400000D03*
X196200000Y-52600000D03*
X225100000Y-46900000D03*
X195900000Y-62900000D03*
X163500000Y-43600000D03*
X213700000Y-99700000D03*
X167300000Y-63400000D03*
X223400000Y-101200000D03*
X213700000Y-103300000D03*
X216700000Y-32200000D03*
X167200000Y-55800000D03*
X224200000Y-89300000D03*
X209200000Y-95000000D03*
X217200000Y-46900000D03*
X226600000Y-97900000D03*
X212100000Y-71100000D03*
X190200000Y-52900000D03*
X224700000Y-32100000D03*
X175912500Y-83200000D03*
X224600000Y-93500000D03*
X223600000Y-96200000D03*
X205600000Y-63100000D03*
X169812500Y-72175000D03*
X221700000Y-84500000D03*
X214000000Y-107400000D03*
X204100000Y-53000000D03*
X179700000Y-61700000D03*
X214000000Y-94900000D03*
X205174000Y-65500003D03*
X180000000Y-51300000D03*
X218000000Y-99000000D03*
X211800000Y-81699000D03*
X213400000Y-91900000D03*
X212000000Y-57400000D03*
X163800000Y-68200000D03*
%TO.N,+5VD*%
X207600000Y-63100000D03*
X223100000Y-46900000D03*
X192000000Y-63400000D03*
X176400000Y-53000000D03*
X223000000Y-87400000D03*
X215200000Y-47000000D03*
X207600000Y-65500000D03*
X165700000Y-68200000D03*
D26*
X191000000Y-56900000D03*
D27*
X180000000Y-60600000D03*
D25*
X208900000Y-53300000D03*
X209000000Y-75500000D03*
D27*
X169600000Y-94100000D03*
D26*
X215000000Y-93000000D03*
D25*
X167200000Y-57100000D03*
X168334550Y-52286023D03*
D26*
X206900000Y-96700000D03*
D25*
%TO.N,ADC+*%
X154700000Y-87900000D03*
X153900000Y-80100000D03*
%TO.N,Net-(C18-Pad2)*%
X152900000Y-77300000D03*
X151300313Y-77300000D03*
%TO.N,rst_dn*%
X211600000Y-48200000D03*
X176023440Y-63800000D03*
X191700000Y-62300000D03*
X179800000Y-67500000D03*
X226700000Y-44100000D03*
X207500000Y-48200000D03*
%TO.N,Data-*%
X220700000Y-101200000D03*
X220325000Y-95100000D03*
%TO.N,Data+*%
X219900000Y-103900000D03*
X219475000Y-95100000D03*
%TO.N,VCCIO*%
X214800000Y-87100000D03*
X222100000Y-88800000D03*
%TO.N,/PD0*%
X189103000Y-67751528D03*
X190400000Y-45600000D03*
%TO.N,/PD1*%
X189884743Y-67981577D03*
X191300000Y-45600000D03*
%TO.N,AC{slash}DC*%
X173195000Y-54400000D03*
X171138550Y-51800000D03*
X213200000Y-41200000D03*
%TO.N,/PB7*%
X146200000Y-35400000D03*
X172900000Y-68800000D03*
%TO.N,/PH6*%
X156500000Y-37004000D03*
X172574265Y-64325735D03*
%TO.N,/PH5*%
X159000000Y-37405000D03*
X172500000Y-63500000D03*
%TO.N,/PB5*%
X171600000Y-67525735D03*
X151300000Y-36400000D03*
%TO.N,/AREF*%
X179900000Y-50300000D03*
X141200000Y-34800000D03*
%TO.N,/CS_D*%
X171000000Y-66900000D03*
X153900000Y-36603000D03*
%TO.N,Net-(U8A-PF5(ADC5{slash}TMS))*%
X183900000Y-52400000D03*
%TO.N,Net-(U8A-PF1(ADC1))*%
X181800000Y-49500000D03*
%TO.N,Net-(U8A-PF3(ADC3))*%
X183100000Y-50800000D03*
%TO.N,Net-(U8A-PF4(ADC4{slash}TCK))*%
X183500000Y-51700000D03*
%TO.N,Net-(U8A-PF7(ADC7{slash}TDI))*%
X185012149Y-51185421D03*
%TO.N,Net-(U8A-PF2(ADC2))*%
X182700000Y-50000000D03*
%TO.N,Net-(U8A-PF0(ADC0))*%
X181000000Y-50000000D03*
%TO.N,Net-(U8A-PF6(ADC6{slash}TDO))*%
X184500000Y-51800000D03*
%TO.N,TX_ft*%
X180324697Y-47999758D03*
X219500000Y-81699000D03*
%TO.N,RX_ft*%
X179700000Y-47500000D03*
X215900000Y-84800000D03*
X215900000Y-86800000D03*
X215823765Y-81275235D03*
%TO.N,/PG5*%
X173195000Y-56100000D03*
X170336550Y-56298585D03*
%TO.N,/PE3*%
X169935550Y-58200000D03*
X173195000Y-58374000D03*
%TO.N,/PE5*%
X172501000Y-59100000D03*
X169935550Y-59000000D03*
%TO.N,Net-(U8A-PK4(ADC12{slash}PCINT20))*%
X187600000Y-50000000D03*
%TO.N,Net-(U8A-PK5(ADC13{slash}PCINT21))*%
X188165687Y-49434313D03*
%TO.N,Net-(U8A-PK2(ADC10{slash}PCINT18))*%
X186801000Y-50300000D03*
%TO.N,Net-(U8A-PK7(ADC15{slash}PCINT23))*%
X189100000Y-49300000D03*
%TO.N,Net-(U8A-PK6(ADC14{slash}PCINT22))*%
X188888822Y-51588822D03*
%TO.N,Net-(U8A-PK1(ADC9{slash}PCINT17))*%
X186100000Y-49700000D03*
%TO.N,Net-(U8A-PK0(ADC8{slash}PCINT16))*%
X185600000Y-50500000D03*
%TO.N,Net-(U8A-PK3(ADC11{slash}PCINT19))*%
X187245529Y-50965130D03*
%TO.N,/PH1*%
X178700000Y-47100000D03*
%TO.N,/PJ1*%
X196600000Y-58369000D03*
X205174000Y-64700000D03*
%TO.N,/PH0*%
X177700000Y-47100000D03*
%TO.N,/PJ0*%
X205174000Y-63777145D03*
X198150000Y-57968000D03*
%TO.N,/MISO_D*%
X167000000Y-58400000D03*
X167054423Y-61505000D03*
X190700000Y-62100000D03*
%TO.N,/PB1*%
X191919778Y-61530778D03*
%TO.N,/PC1*%
X197000000Y-74250000D03*
X197000003Y-71600000D03*
%TO.N,/PA4*%
X214300000Y-54500000D03*
X195700000Y-55200000D03*
%TO.N,10X*%
X148850000Y-36400000D03*
X174600000Y-68400000D03*
%TO.N,/PA6*%
X214300000Y-56600000D03*
X197400000Y-55300000D03*
%TO.N,Relay_ACDC*%
X173195001Y-53022040D03*
X168000000Y-49700000D03*
X214325733Y-51125733D03*
X191900000Y-51400000D03*
%TO.N,/PD7*%
X191800000Y-71600000D03*
X191800000Y-74400000D03*
%TO.N,/PA7*%
X198200000Y-55400000D03*
X214300000Y-57700000D03*
%TO.N,/PA3*%
X214300000Y-53600000D03*
X194900000Y-54300000D03*
%TO.N,/PA2*%
X192100000Y-53100000D03*
X214300002Y-52799998D03*
%TO.N,/PA5*%
X214300000Y-55600000D03*
X196500003Y-55200000D03*
%TO.N,/PG1*%
X195300000Y-74300000D03*
X195300000Y-71600000D03*
%TO.N,/PC0*%
X196200000Y-74250000D03*
X196200000Y-71600000D03*
X227200000Y-71400000D03*
%TO.N,/PB0*%
X191900000Y-58969000D03*
%TO.N,/PG0*%
X193500000Y-74400000D03*
X193500000Y-71600000D03*
X218800000Y-74079000D03*
%TO.N,/MOSI_D*%
X167950628Y-61435000D03*
X167700000Y-59700000D03*
X190725735Y-61274265D03*
%TO.N,Net-(U3-EN_UVLO)*%
X221430028Y-97870961D03*
X223500000Y-93500000D03*
%TO.N,OUTP*%
X130300000Y-87699000D03*
X133600000Y-85500000D03*
%TO.N,Net-(R14-Pad1)*%
X145600000Y-86000000D03*
X145400000Y-82800000D03*
%TO.N,RefOut*%
X150018908Y-74632565D03*
X150700000Y-96500000D03*
%TO.N,Vocm*%
X141500000Y-90300000D03*
X143900000Y-90200000D03*
%TO.N,Net-(U10-CBUS1)*%
X213300000Y-89400000D03*
X223900000Y-87200000D03*
%TO.N,/SCK_A*%
X152799997Y-70600000D03*
X152698000Y-60900000D03*
%TO.N,/MISO_A*%
X154500000Y-58300000D03*
X154500000Y-70600000D03*
%TO.N,/CS_A*%
X151700000Y-70600000D03*
X152297000Y-62200000D03*
%TO.N,/MOSI_A*%
X153099000Y-59605354D03*
X153600000Y-70600000D03*
%TO.N,/PA1*%
X214300000Y-51999996D03*
X192000000Y-52300000D03*
%TD*%
D28*
%TO.N,/PB5*%
X171600000Y-67400000D02*
X171600000Y-67525735D01*
X174607929Y-64392072D02*
X171600000Y-67400000D01*
X174597000Y-64381143D02*
X174607929Y-64392072D01*
X174998000Y-62817857D02*
X174597000Y-63218857D01*
X163901700Y-36003000D02*
X174998000Y-47099300D01*
X151409000Y-36003000D02*
X163901700Y-36003000D01*
X151305000Y-36107000D02*
X151409000Y-36003000D01*
X151305000Y-36151000D02*
X151305000Y-36107000D01*
X174998000Y-47099300D02*
X174998000Y-62817857D01*
X151300000Y-36156000D02*
X151305000Y-36151000D01*
X151300000Y-36400000D02*
X151300000Y-36156000D01*
X174597000Y-63218857D02*
X174597000Y-64381143D01*
%TO.N,10X*%
X174600000Y-68159709D02*
X174600000Y-68400000D01*
X175399000Y-67360709D02*
X174600000Y-68159709D01*
X175399000Y-64616043D02*
X175399000Y-67360709D01*
X174998000Y-64215043D02*
X175399000Y-64616043D01*
X174998000Y-63384957D02*
X174998000Y-64215043D01*
X175399000Y-62983957D02*
X174998000Y-63384957D01*
X175399000Y-46933200D02*
X175399000Y-62983957D01*
X164067800Y-35602000D02*
X175399000Y-46933200D01*
X149100000Y-35602000D02*
X164067800Y-35602000D01*
X148901000Y-36349000D02*
X148901000Y-35801000D01*
X148850000Y-36400000D02*
X148901000Y-36349000D01*
X148901000Y-35801000D02*
X149100000Y-35602000D01*
%TO.N,/PC7*%
X211357635Y-63242365D02*
X214300000Y-60300000D01*
X211357635Y-64057635D02*
X211357635Y-63242365D01*
X206064450Y-66034250D02*
X206064450Y-65051407D01*
X202000000Y-67800000D02*
X204298700Y-67800000D01*
X206064450Y-65051407D02*
X207058222Y-64057635D01*
X201991365Y-67791365D02*
X202000000Y-67800000D01*
X207058222Y-64057635D02*
X211357635Y-64057635D01*
X204298700Y-67800000D02*
X206064450Y-66034250D01*
%TO.N,/PC6*%
X213391185Y-62208815D02*
X214300000Y-61300000D01*
X213391185Y-62591185D02*
X213391185Y-62208815D01*
X211483370Y-64499000D02*
X213391185Y-62591185D01*
X207183957Y-64499000D02*
X211483370Y-64499000D01*
X206465450Y-66200350D02*
X206465450Y-65217507D01*
X203584968Y-69080832D02*
X206465450Y-66200350D01*
X206465450Y-65217507D02*
X207183957Y-64499000D01*
X201293408Y-69080832D02*
X203584968Y-69080832D01*
%TO.N,Net-(U8A-PF0(ADC0))*%
X180999000Y-50333900D02*
X181000000Y-50332900D01*
X181000000Y-50332900D02*
X181000000Y-50000000D01*
X182000000Y-78117157D02*
X180999000Y-77116157D01*
X165400000Y-107500000D02*
X182000000Y-90900000D01*
X182000000Y-90900000D02*
X182000000Y-78117157D01*
X164760000Y-107500000D02*
X165400000Y-107500000D01*
X180999000Y-77116157D02*
X180999000Y-50333900D01*
%TO.N,/PG2*%
X231389000Y-68849000D02*
X232540000Y-70000000D01*
X229761240Y-68849000D02*
X231389000Y-68849000D01*
X222400000Y-61487760D02*
X229761240Y-68849000D01*
X222400000Y-60351000D02*
X222400000Y-61487760D01*
X198003000Y-54303000D02*
X199100000Y-55400000D01*
X198291000Y-52009000D02*
X198003000Y-52297000D01*
X209823561Y-52009000D02*
X198291000Y-52009000D01*
X211599000Y-56099000D02*
X211599000Y-53784439D01*
X211599000Y-53784439D02*
X209823561Y-52009000D01*
X214395457Y-58895457D02*
X211599000Y-56099000D01*
X214300000Y-59499997D02*
X214395457Y-59404540D01*
X214395457Y-59404540D02*
X214395457Y-58895457D01*
X198003000Y-52297000D02*
X198003000Y-54303000D01*
%TO.N,/PC2*%
X207701000Y-67299000D02*
X203200000Y-71800000D01*
X213899000Y-67299000D02*
X207701000Y-67299000D01*
X213900000Y-67300000D02*
X213899000Y-67299000D01*
X214200000Y-67300000D02*
X213900000Y-67300000D01*
%TO.N,/PC3*%
X203332900Y-71100000D02*
X202800000Y-71100000D01*
X213850060Y-66499997D02*
X213452057Y-66898000D01*
X207534900Y-66898000D02*
X203332900Y-71100000D01*
X214200000Y-66499997D02*
X213850060Y-66499997D01*
X213452057Y-66898000D02*
X207534900Y-66898000D01*
%TO.N,/PC4*%
X203400000Y-70400000D02*
X202300000Y-70400000D01*
X210903000Y-66497000D02*
X207303000Y-66497000D01*
X207303000Y-66497000D02*
X203400000Y-70400000D01*
X214249000Y-63151000D02*
X210903000Y-66497000D01*
X214249000Y-63149000D02*
X214249000Y-63151000D01*
%TO.N,rst_dn*%
X196660000Y-63500000D02*
X198360000Y-65200000D01*
X194400000Y-63500000D02*
X196660000Y-63500000D01*
X193300000Y-62400000D02*
X194400000Y-63500000D01*
X191800000Y-62400000D02*
X193300000Y-62400000D01*
X191700000Y-62300000D02*
X191800000Y-62400000D01*
%TO.N,/PC5*%
X208000000Y-64900000D02*
X211649470Y-64900000D01*
X211649470Y-64900000D02*
X214274735Y-62274735D01*
X207999000Y-64899000D02*
X208000000Y-64900000D01*
X207351057Y-64899000D02*
X207999000Y-64899000D01*
X207175029Y-65075028D02*
X207351057Y-64899000D01*
X206866450Y-65383607D02*
X207175029Y-65075028D01*
X206866450Y-66366450D02*
X206866450Y-65383607D01*
X203866450Y-69366450D02*
X206866450Y-66366450D01*
X203532900Y-69700000D02*
X203866450Y-69366450D01*
X201800000Y-69700000D02*
X203532900Y-69700000D01*
%TO.N,/PB0*%
X233700000Y-86620000D02*
X232540000Y-87780000D01*
X233016760Y-84089000D02*
X233700000Y-84772240D01*
X229761240Y-84089000D02*
X233016760Y-84089000D01*
X227971240Y-82299000D02*
X229761240Y-84089000D01*
X206567100Y-82299000D02*
X227971240Y-82299000D01*
X206566100Y-82298000D02*
X206567100Y-82299000D01*
X203100000Y-60692240D02*
X203100000Y-65834200D01*
X200403000Y-81368800D02*
X201332200Y-82298000D01*
X233700000Y-84772240D02*
X233700000Y-86620000D01*
X201332200Y-82298000D02*
X206566100Y-82298000D01*
X203100000Y-65834200D02*
X200403000Y-68531200D01*
X201376760Y-58969000D02*
X203100000Y-60692240D01*
X200403000Y-68531200D02*
X200403000Y-81368800D01*
X191900000Y-58969000D02*
X201376760Y-58969000D01*
%TO.N,/MISO_D*%
X201166100Y-82699000D02*
X202400000Y-82699000D01*
X200002000Y-81534900D02*
X201166100Y-82699000D01*
X202601000Y-62733240D02*
X202601000Y-65766100D01*
X201214210Y-61346450D02*
X202601000Y-62733240D01*
X202400000Y-82699000D02*
X206400000Y-82699000D01*
X200153550Y-61346450D02*
X201214210Y-61346450D01*
X200002000Y-68365100D02*
X200002000Y-81534900D01*
X198927100Y-60120000D02*
X200153550Y-61346450D01*
X198360000Y-60120000D02*
X198927100Y-60120000D01*
X202601000Y-65766100D02*
X200002000Y-68365100D01*
%TO.N,/PB1*%
X200801000Y-83501000D02*
X205432900Y-83501000D01*
X199600000Y-65587760D02*
X199200000Y-65987760D01*
X199600000Y-64000000D02*
X199600000Y-65587760D01*
X199200000Y-65987760D02*
X199200000Y-81900000D01*
X199200000Y-81900000D02*
X200801000Y-83501000D01*
X198360000Y-62660000D02*
X198360000Y-62760000D01*
X198360000Y-62760000D02*
X199600000Y-64000000D01*
%TO.N,/MOSI_D*%
X201201000Y-83100000D02*
X205600000Y-83100000D01*
X201200000Y-83099000D02*
X201201000Y-83100000D01*
X200999000Y-83099000D02*
X201200000Y-83099000D01*
X199601000Y-81701000D02*
X200999000Y-83099000D01*
X199601000Y-68199000D02*
X199601000Y-81701000D01*
X202200000Y-65600000D02*
X199601000Y-68199000D01*
X202200000Y-63960000D02*
X202200000Y-65600000D01*
X200900000Y-62660000D02*
X202200000Y-63960000D01*
X231389000Y-86391000D02*
X232540000Y-85240000D01*
X229523240Y-86391000D02*
X231389000Y-86391000D01*
X226232240Y-83100000D02*
X229523240Y-86391000D01*
X205600000Y-83100000D02*
X226232240Y-83100000D01*
%TO.N,/PB1*%
X225721000Y-83501000D02*
X230000000Y-87780000D01*
X205433900Y-83501000D02*
X225721000Y-83501000D01*
X205432900Y-83500000D02*
X205433900Y-83501000D01*
%TO.N,Net-(U1-DCDC_HGND)*%
X131600000Y-75800000D02*
X131600000Y-64300000D01*
%TO.N,ADC+*%
X154700000Y-87900000D02*
X153900000Y-87100000D01*
X153900000Y-87100000D02*
X153900000Y-80100000D01*
%TO.N,Net-(C18-Pad2)*%
X151300313Y-77300000D02*
X152900000Y-77300000D01*
%TO.N,rst_dn*%
X226700000Y-44100000D02*
X234800000Y-44100000D01*
X141499000Y-109399000D02*
X141050000Y-108950000D01*
X207500000Y-48200000D02*
X211600000Y-48200000D01*
X234800000Y-44100000D02*
X235900000Y-45200000D01*
X235900000Y-102400000D02*
X228901000Y-109399000D01*
X228901000Y-109399000D02*
X141499000Y-109399000D01*
X179700000Y-67500000D02*
X179800000Y-67500000D01*
X235900000Y-45200000D02*
X235900000Y-102400000D01*
X176023440Y-63800000D02*
X176023440Y-63823440D01*
X141050000Y-108950000D02*
X141050000Y-107500000D01*
X176023440Y-63823440D02*
X179700000Y-67500000D01*
%TO.N,Data-*%
X220125001Y-98570155D02*
X220125001Y-98338111D01*
X220125001Y-99023705D02*
X220125001Y-98570155D01*
X220541042Y-97361210D02*
X220365001Y-97361210D01*
X219885001Y-99983705D02*
X219798352Y-99983705D01*
X220125001Y-99143705D02*
X220125001Y-99023705D01*
X220700000Y-101200000D02*
X220218199Y-101200000D01*
X219558352Y-99743705D02*
X219558352Y-99623705D01*
X220125001Y-97601210D02*
X220125001Y-97721210D01*
X220781042Y-97001210D02*
X220781042Y-97121210D01*
X219798352Y-99383705D02*
X219885001Y-99383705D01*
X220125001Y-95299999D02*
X220125001Y-96521210D01*
X220218199Y-101200000D02*
X220125001Y-101106802D01*
X220365001Y-96761210D02*
X220541042Y-96761210D01*
X220125001Y-101106802D02*
X220125001Y-100223705D01*
X220325000Y-95100000D02*
X220125001Y-95299999D01*
X220125001Y-98338111D02*
X220125001Y-98320298D01*
X220125001Y-97721210D02*
X220125001Y-98320298D01*
X220125001Y-100223705D02*
G75*
G03*
X219885001Y-99983699I-240001J5D01*
G01*
X220125001Y-96521210D02*
G75*
G03*
X220365001Y-96761199I239999J10D01*
G01*
X220541042Y-96761210D02*
G75*
G02*
X220780990Y-97001210I-42J-239990D01*
G01*
X219885001Y-99383705D02*
G75*
G03*
X220125005Y-99143705I-1J240005D01*
G01*
X220365001Y-97361210D02*
G75*
G03*
X220125010Y-97601210I-1J-239990D01*
G01*
X219798352Y-99983705D02*
G75*
G02*
X219558395Y-99743705I48J240005D01*
G01*
X220781042Y-97121210D02*
G75*
G02*
X220541042Y-97361242I-240042J10D01*
G01*
X219558352Y-99623705D02*
G75*
G02*
X219798352Y-99383652I240048J5D01*
G01*
%TO.N,Data+*%
X218800000Y-97722797D02*
X218800000Y-100418199D01*
X218800000Y-95775000D02*
X218800000Y-96551224D01*
X219475000Y-95100000D02*
X218800000Y-95775000D01*
X218800000Y-100418199D02*
X219900000Y-101518199D01*
X219900000Y-101518199D02*
X219900000Y-103900000D01*
X218800000Y-96551224D02*
X218800000Y-97722797D01*
%TO.N,VCCIO*%
X221900000Y-89000000D02*
X222100000Y-88800000D01*
X214800000Y-88500000D02*
X215300000Y-89000000D01*
X214800000Y-87100000D02*
X214800000Y-88500000D01*
X215300000Y-89000000D02*
X221900000Y-89000000D01*
%TO.N,/PD0*%
X188904000Y-67552528D02*
X189103000Y-67751528D01*
X190399000Y-45601000D02*
X190399000Y-51671100D01*
X190400000Y-45600000D02*
X190399000Y-45601000D01*
X188904000Y-53166100D02*
X188904000Y-67552528D01*
X190399000Y-51671100D02*
X188904000Y-53166100D01*
%TO.N,/PD1*%
X189305000Y-54644943D02*
X189305000Y-67105000D01*
X189884743Y-67684743D02*
X189884743Y-67981577D01*
X190800000Y-46400000D02*
X190800000Y-52650057D01*
X191300000Y-45600000D02*
X191300000Y-45900000D01*
X191300000Y-45900000D02*
X190800000Y-46400000D01*
X190801000Y-53148943D02*
X189305000Y-54644943D01*
X189704000Y-67502585D02*
X189704000Y-67504000D01*
X189350528Y-67150528D02*
X189351943Y-67150528D01*
X189305000Y-67105000D02*
X189350528Y-67150528D01*
X189351943Y-67150528D02*
X189704000Y-67502585D01*
X190800000Y-52650057D02*
X190801000Y-52651057D01*
X190801000Y-52651057D02*
X190801000Y-53148943D01*
X189704000Y-67504000D02*
X189884743Y-67684743D01*
%TO.N,AC{slash}DC*%
X212050000Y-30600000D02*
X179360000Y-30600000D01*
X171138550Y-53138550D02*
X171138550Y-51800000D01*
X213200000Y-41200000D02*
X213200000Y-31750000D01*
X173195000Y-54400000D02*
X172400000Y-54400000D01*
X213200000Y-31750000D02*
X212050000Y-30600000D01*
X179360000Y-30600000D02*
X177460000Y-32500000D01*
X172400000Y-54400000D02*
X171138550Y-53138550D01*
%TO.N,/PB7*%
X175800000Y-46767100D02*
X175800000Y-63199000D01*
X175800000Y-63199000D02*
X175751057Y-63199000D01*
X175800000Y-64401000D02*
X175800000Y-68400000D01*
X175751057Y-63199000D02*
X175399000Y-63551057D01*
X146200000Y-35400000D02*
X146399000Y-35201000D01*
X175399000Y-63551057D02*
X175399000Y-64048943D01*
X164233900Y-35201000D02*
X175800000Y-46767100D01*
X175800000Y-68400000D02*
X175200000Y-69000000D01*
X175399000Y-64048943D02*
X175751057Y-64401000D01*
X173100000Y-69000000D02*
X172900000Y-68800000D01*
X175751057Y-64401000D02*
X175800000Y-64401000D01*
X175200000Y-69000000D02*
X173100000Y-69000000D01*
X146399000Y-35201000D02*
X164233900Y-35201000D01*
%TO.N,/PH6*%
X156699000Y-36805000D02*
X156500000Y-37004000D01*
X173795000Y-63156470D02*
X173795000Y-62886657D01*
X172625735Y-64325735D02*
X173795000Y-63156470D01*
X173795000Y-62886657D02*
X174196000Y-62485657D01*
X174196000Y-62485657D02*
X174196000Y-47431500D01*
X163569500Y-36805000D02*
X156699000Y-36805000D01*
X172574265Y-64325735D02*
X172625735Y-64325735D01*
X174196000Y-47431500D02*
X163569500Y-36805000D01*
%TO.N,/PH5*%
X172500000Y-63500000D02*
X173795000Y-62205000D01*
X163403400Y-37206000D02*
X159199000Y-37206000D01*
X173795000Y-62205000D02*
X173795000Y-47597600D01*
X159199000Y-37206000D02*
X159000000Y-37405000D01*
X173795000Y-47597600D02*
X163403400Y-37206000D01*
%TO.N,/AREF*%
X164400000Y-34800000D02*
X179900000Y-50300000D01*
X141200000Y-34800000D02*
X164400000Y-34800000D01*
%TO.N,/CS_D*%
X174597000Y-62651757D02*
X174196000Y-63052757D01*
X154099000Y-36404000D02*
X163735600Y-36404000D01*
X174196000Y-63604000D02*
X171000000Y-66800000D01*
X174597000Y-47265400D02*
X174597000Y-62651757D01*
X163735600Y-36404000D02*
X174597000Y-47265400D01*
X171000000Y-66800000D02*
X171000000Y-66900000D01*
X153900000Y-36603000D02*
X154099000Y-36404000D01*
X174196000Y-63052757D02*
X174196000Y-63604000D01*
%TO.N,Net-(U8A-PF5(ADC5{slash}TMS))*%
X183086550Y-69500000D02*
X183086550Y-76368207D01*
X183086550Y-76368207D02*
X184005000Y-77286657D01*
X177460000Y-98275500D02*
X177460000Y-107500000D01*
X184050293Y-52550293D02*
X184050293Y-68536257D01*
X184005000Y-91730500D02*
X177460000Y-98275500D01*
X183900000Y-52400000D02*
X184050293Y-52550293D01*
X184050293Y-68536257D02*
X183086550Y-69500000D01*
X184005000Y-77286657D02*
X184005000Y-91730500D01*
%TO.N,Net-(U8A-PF1(ADC1))*%
X175856000Y-97611100D02*
X175856000Y-99544000D01*
X175856000Y-99544000D02*
X167900000Y-107500000D01*
X181800000Y-50100000D02*
X181400000Y-50500000D01*
X181400000Y-76950057D02*
X182401000Y-77951057D01*
X182401000Y-91066100D02*
X175856000Y-97611100D01*
X182401000Y-77951057D02*
X182401000Y-91066100D01*
X181400000Y-50500000D02*
X181400000Y-76950057D01*
X181800000Y-49500000D02*
X181800000Y-50100000D01*
X167900000Y-107500000D02*
X167300000Y-107500000D01*
%TO.N,Net-(U8A-PF3(ADC3))*%
X182600000Y-50800000D02*
X182284550Y-51115450D01*
X182284550Y-76700407D02*
X183203000Y-77618857D01*
X183100000Y-50800000D02*
X182600000Y-50800000D01*
X182284550Y-51115450D02*
X182284550Y-76700407D01*
X176658000Y-97943300D02*
X176658000Y-103742000D01*
X176658000Y-103742000D02*
X172900000Y-107500000D01*
X183203000Y-77618857D02*
X183203000Y-91398300D01*
X172900000Y-107500000D02*
X172380000Y-107500000D01*
X183203000Y-91398300D02*
X176658000Y-97943300D01*
%TO.N,Net-(U8A-PF4(ADC4{slash}TCK))*%
X182900000Y-51700000D02*
X182685550Y-51914450D01*
X183604000Y-77452757D02*
X183604000Y-91564400D01*
X182685550Y-51914450D02*
X182685550Y-76534307D01*
X182685550Y-76534307D02*
X183604000Y-77452757D01*
X183500000Y-51700000D02*
X182900000Y-51700000D01*
X177059000Y-98109400D02*
X177059000Y-105361000D01*
X177059000Y-105361000D02*
X174920000Y-107500000D01*
X183604000Y-91564400D02*
X177059000Y-98109400D01*
%TO.N,Net-(U8A-PF7(ADC7{slash}TDI))*%
X178262000Y-98705100D02*
X178262000Y-103222000D01*
X178262000Y-103222000D02*
X182540000Y-107500000D01*
X185012149Y-51185421D02*
X185101000Y-51274272D01*
X185101000Y-68619750D02*
X183888550Y-69832200D01*
X185101000Y-51274272D02*
X185101000Y-68619750D01*
X183888550Y-76036007D02*
X184807000Y-76954457D01*
X183888550Y-69832200D02*
X183888550Y-76036007D01*
X184807000Y-76954457D02*
X184807000Y-92160100D01*
X184807000Y-92160100D02*
X178262000Y-98705100D01*
%TO.N,Net-(U8A-PF2(ADC2))*%
X182802000Y-77784957D02*
X182802000Y-91232200D01*
X170500000Y-107500000D02*
X169840000Y-107500000D01*
X181883550Y-76866507D02*
X182802000Y-77784957D01*
X176257000Y-97777200D02*
X176257000Y-101743000D01*
X182802000Y-91232200D02*
X176257000Y-97777200D01*
X182700000Y-50000000D02*
X182600000Y-50000000D01*
X181883550Y-50716450D02*
X181883550Y-76866507D01*
X182600000Y-50000000D02*
X181883550Y-50716450D01*
X176257000Y-101743000D02*
X170500000Y-107500000D01*
%TO.N,Net-(U8A-PF0(ADC0))*%
X165000000Y-107500000D02*
X164760000Y-107500000D01*
%TO.N,Net-(U8A-PF6(ADC6{slash}TDO))*%
X177861000Y-98539000D02*
X177861000Y-105361000D01*
X183487550Y-69666100D02*
X183487550Y-76202107D01*
X184501000Y-52151057D02*
X184501000Y-68652650D01*
X184406000Y-77120557D02*
X184406000Y-91994000D01*
X183487550Y-76202107D02*
X184406000Y-77120557D01*
X184500000Y-52150057D02*
X184501000Y-52151057D01*
X177861000Y-105361000D02*
X180000000Y-107500000D01*
X184500000Y-51800000D02*
X184500000Y-52150057D01*
X184501000Y-68652650D02*
X183487550Y-69666100D01*
X184406000Y-91994000D02*
X177861000Y-98539000D01*
%TO.N,TX_ft*%
X185665750Y-40835550D02*
X180324697Y-46176603D01*
X219301000Y-81898000D02*
X215598000Y-81898000D01*
X219500000Y-81699000D02*
X219301000Y-81898000D01*
X215598000Y-81898000D02*
X215199000Y-81499000D01*
X215199000Y-81499000D02*
X215199000Y-49966100D01*
X206068450Y-40835550D02*
X185665750Y-40835550D01*
X215199000Y-49966100D02*
X206068450Y-40835550D01*
X180324697Y-46176603D02*
X180324697Y-47999758D01*
%TO.N,RX_ft*%
X215699000Y-49899000D02*
X206234550Y-40434550D01*
X215900000Y-86800000D02*
X215900000Y-84800000D01*
X215823765Y-81275235D02*
X215699000Y-81150470D01*
X215699000Y-81150470D02*
X215699000Y-49899000D01*
X185499650Y-40434550D02*
X179700000Y-46234200D01*
X206234550Y-40434550D02*
X185499650Y-40434550D01*
X179700000Y-46234200D02*
X179700000Y-47500000D01*
%TO.N,/PG5*%
X173195000Y-56200000D02*
X173195000Y-56100000D01*
X173095000Y-56300000D02*
X173195000Y-56200000D01*
X170337965Y-56300000D02*
X173095000Y-56300000D01*
X170336550Y-56298585D02*
X170337965Y-56300000D01*
%TO.N,/PE3*%
X173195000Y-58374000D02*
X173121000Y-58300000D01*
X170035550Y-58300000D02*
X169935550Y-58200000D01*
X173121000Y-58300000D02*
X170035550Y-58300000D01*
%TO.N,/PE5*%
X169935550Y-59000000D02*
X170035550Y-59100000D01*
X170035550Y-59100000D02*
X172501000Y-59100000D01*
%TO.N,Net-(U8A-PK4(ADC12{slash}PCINT20))*%
X186904000Y-76204000D02*
X186904000Y-91335600D01*
X187300000Y-51900000D02*
X187300000Y-69257950D01*
X187846529Y-50246529D02*
X187846529Y-51353471D01*
X186904000Y-91335600D02*
X196500000Y-100931600D01*
X186000000Y-70557950D02*
X186000000Y-75300000D01*
X187600000Y-50000000D02*
X187846529Y-50246529D01*
X196500000Y-105370000D02*
X198630000Y-107500000D01*
X187846529Y-51353471D02*
X187300000Y-51900000D01*
X187300000Y-69257950D02*
X186000000Y-70557950D01*
X186000000Y-75300000D02*
X186904000Y-76204000D01*
X196500000Y-100931600D02*
X196500000Y-105370000D01*
%TO.N,Net-(U8A-PK5(ADC13{slash}PCINT21))*%
X196901000Y-100765500D02*
X196901000Y-103401000D01*
X187701000Y-52100000D02*
X187701000Y-69424050D01*
X186401000Y-75133900D02*
X187305000Y-76037900D01*
X187701000Y-69424050D02*
X186401000Y-70724050D01*
X188247529Y-51553471D02*
X187701000Y-52100000D01*
X187305000Y-91169500D02*
X196901000Y-100765500D01*
X186401000Y-70724050D02*
X186401000Y-75133900D01*
X201000000Y-107500000D02*
X201170000Y-107500000D01*
X187305000Y-76037900D02*
X187305000Y-91169500D01*
X196901000Y-103401000D02*
X201000000Y-107500000D01*
X188165687Y-49434313D02*
X188247529Y-49516155D01*
X188247529Y-49516155D02*
X188247529Y-51553471D01*
%TO.N,Net-(U8A-PK2(ADC10{slash}PCINT18))*%
X193000000Y-106950000D02*
X193550000Y-107500000D01*
X193000000Y-106572100D02*
X193000000Y-106950000D01*
X186801000Y-50300000D02*
X186644529Y-50456471D01*
X186644529Y-51036720D02*
X186440624Y-51240625D01*
X186102000Y-91667800D02*
X193002000Y-98567800D01*
X193002000Y-106570100D02*
X193000000Y-106572100D01*
X185091550Y-70332200D02*
X185091550Y-75537707D01*
X185091550Y-75537707D02*
X186102000Y-76548157D01*
X186440624Y-51240625D02*
X186440624Y-68983126D01*
X193002000Y-98567800D02*
X193002000Y-106570100D01*
X186102000Y-76548157D02*
X186102000Y-91667800D01*
X186644529Y-50456471D02*
X186644529Y-51036720D01*
X186440624Y-68983126D02*
X185091550Y-70332200D01*
%TO.N,Net-(U8A-PK7(ADC15{slash}PCINT23))*%
X189489822Y-52013178D02*
X188503000Y-53000000D01*
X201469700Y-104200000D02*
X203200000Y-104200000D01*
X188107000Y-90837300D02*
X201469700Y-104200000D01*
X188503000Y-69766100D02*
X187203000Y-71066100D01*
X206250000Y-107250000D02*
X206250000Y-107500000D01*
X203200000Y-104200000D02*
X206250000Y-107250000D01*
X187203000Y-71066100D02*
X187203000Y-74801700D01*
X188503000Y-53000000D02*
X188503000Y-69766100D01*
X189100000Y-49300000D02*
X189489822Y-49689822D01*
X187203000Y-74801700D02*
X188107000Y-75705700D01*
X189489822Y-49689822D02*
X189489822Y-52013178D01*
X188107000Y-75705700D02*
X188107000Y-90837300D01*
%TO.N,Net-(U8A-PK6(ADC14{slash}PCINT22))*%
X197302000Y-100599400D02*
X197302000Y-101902000D01*
X188779278Y-51588822D02*
X188102000Y-52266100D01*
X188102000Y-52266100D02*
X188102000Y-69600000D01*
X187706000Y-75871800D02*
X187706000Y-91003400D01*
X188102000Y-69600000D02*
X186802000Y-70900000D01*
X188888822Y-51588822D02*
X188779278Y-51588822D01*
X197302000Y-101902000D02*
X202900000Y-107500000D01*
X186802000Y-70900000D02*
X186802000Y-74967800D01*
X186802000Y-74967800D02*
X187706000Y-75871800D01*
X187706000Y-91003400D02*
X197302000Y-100599400D01*
X202900000Y-107500000D02*
X203710000Y-107500000D01*
%TO.N,Net-(U8A-PK1(ADC9{slash}PCINT17))*%
X186201000Y-50913149D02*
X186014149Y-51100000D01*
X185701000Y-91833900D02*
X192601000Y-98733900D01*
X186200000Y-50250057D02*
X186201000Y-50251057D01*
X186100000Y-49700000D02*
X186201000Y-49801000D01*
X186200000Y-50051057D02*
X186200000Y-50250057D01*
X186201000Y-50050057D02*
X186200000Y-50051057D01*
X192601000Y-98733900D02*
X192601000Y-106404000D01*
X186014149Y-68842501D02*
X184690550Y-70166100D01*
X191505000Y-107500000D02*
X191010000Y-107500000D01*
X186201000Y-49801000D02*
X186201000Y-50050057D01*
X186201000Y-50251057D02*
X186201000Y-50913149D01*
X184690550Y-75703807D02*
X185701000Y-76714257D01*
X192601000Y-106404000D02*
X191505000Y-107500000D01*
X186014149Y-51100000D02*
X186014149Y-68842501D01*
X184690550Y-70166100D02*
X184690550Y-75703807D01*
X185701000Y-76714257D02*
X185701000Y-91833900D01*
%TO.N,Net-(U8A-PK0(ADC8{slash}PCINT16))*%
X189382240Y-107500000D02*
X188470000Y-107500000D01*
X192200000Y-104682240D02*
X189382240Y-107500000D01*
X192200000Y-98900000D02*
X192200000Y-104682240D01*
X185613149Y-50513149D02*
X185613149Y-68676401D01*
X184289550Y-75869907D02*
X185300000Y-76880357D01*
X184289550Y-70000000D02*
X184289550Y-75869907D01*
X185300000Y-92000000D02*
X192200000Y-98900000D01*
X185613149Y-68676401D02*
X184289550Y-70000000D01*
X185600000Y-50500000D02*
X185613149Y-50513149D01*
X185300000Y-76880357D02*
X185300000Y-92000000D01*
%TO.N,Net-(U8A-PK3(ADC11{slash}PCINT19))*%
X185600000Y-75479057D02*
X186503000Y-76382057D01*
X196090000Y-101088700D02*
X196090000Y-107500000D01*
X186841624Y-69149226D02*
X185600000Y-70390850D01*
X186503000Y-91501700D02*
X196090000Y-101088700D01*
X186503000Y-76382057D02*
X186503000Y-91501700D01*
X187245529Y-51002820D02*
X186841624Y-51406725D01*
X187245529Y-50965130D02*
X187245529Y-51002820D01*
X186841624Y-51406725D02*
X186841624Y-69149226D01*
X185600000Y-70390850D02*
X185600000Y-75479057D01*
%TO.N,/PH1*%
X201170000Y-35897100D02*
X201170000Y-32500000D01*
X178700000Y-47100000D02*
X178700000Y-46667100D01*
X185333550Y-40033550D02*
X197033550Y-40033550D01*
X197033550Y-40033550D02*
X201170000Y-35897100D01*
X178700000Y-46667100D02*
X185333550Y-40033550D01*
%TO.N,/PJ1*%
X203702000Y-64600000D02*
X203802000Y-64700000D01*
X203802000Y-64700000D02*
X205174000Y-64700000D01*
X201542860Y-58568000D02*
X203702000Y-60727140D01*
X197068000Y-58568000D02*
X201542860Y-58568000D01*
X197068000Y-58568000D02*
X196869000Y-58369000D01*
X203702000Y-60727140D02*
X203702000Y-64600000D01*
X196869000Y-58369000D02*
X196600000Y-58369000D01*
%TO.N,/PH0*%
X198630000Y-37870000D02*
X198630000Y-32500000D01*
X196900000Y-39600000D02*
X198630000Y-37870000D01*
X177700000Y-47100000D02*
X185200000Y-39600000D01*
X185200000Y-39600000D02*
X196900000Y-39600000D01*
%TO.N,/PJ0*%
X204103000Y-63503000D02*
X204377145Y-63777145D01*
X204103000Y-60503000D02*
X204103000Y-63503000D01*
X201700000Y-58100000D02*
X204103000Y-60503000D01*
X198150000Y-57968000D02*
X198282000Y-58100000D01*
X198282000Y-58100000D02*
X201700000Y-58100000D01*
X204377145Y-63777145D02*
X205174000Y-63777145D01*
%TO.N,/MISO_D*%
X190680000Y-60120000D02*
X190100000Y-60700000D01*
X190100000Y-61500000D02*
X190700000Y-62100000D01*
X167054423Y-58454423D02*
X167000000Y-58400000D01*
X227460000Y-82700000D02*
X230000000Y-85240000D01*
X190100000Y-60700000D02*
X190100000Y-61500000D01*
X198360000Y-60120000D02*
X190680000Y-60120000D01*
X167054423Y-61505000D02*
X167054423Y-58454423D01*
X205767100Y-82700000D02*
X227460000Y-82700000D01*
%TO.N,/PB1*%
X191919778Y-61530778D02*
X191919778Y-61619778D01*
X191919778Y-61619778D02*
X192300000Y-62000000D01*
X192300000Y-62000000D02*
X197700000Y-62000000D01*
X197700000Y-62000000D02*
X198360000Y-62660000D01*
%TO.N,/PC1*%
X197000000Y-71600003D02*
X197000000Y-74250000D01*
X197000003Y-71600000D02*
X197000000Y-71600003D01*
%TO.N,/PA4*%
X210487961Y-50405000D02*
X213391481Y-53308520D01*
X195201000Y-51300300D02*
X196096300Y-50405000D01*
X195201000Y-53601000D02*
X195201000Y-51300300D01*
X195700000Y-55200000D02*
X195700000Y-54100000D01*
X195700000Y-54100000D02*
X195201000Y-53601000D01*
X213391481Y-53308520D02*
X213391481Y-53591481D01*
X213391481Y-53591481D02*
X214300000Y-54500000D01*
X196096300Y-50405000D02*
X210487961Y-50405000D01*
%TO.N,/PA6*%
X212400000Y-54800000D02*
X212400000Y-53451239D01*
X212400000Y-53451239D02*
X210155761Y-51207000D01*
X214200000Y-56600000D02*
X212400000Y-54800000D01*
X197201000Y-55101000D02*
X197400000Y-55300000D01*
X210155761Y-51207000D02*
X197693000Y-51207000D01*
X214300000Y-56600000D02*
X214200000Y-56600000D01*
X197693000Y-51207000D02*
X197201000Y-51699000D01*
X197201000Y-51699000D02*
X197201000Y-55101000D01*
%TO.N,Relay_ACDC*%
X214225733Y-51125733D02*
X211901000Y-48801000D01*
X173195001Y-50295001D02*
X172600000Y-49700000D01*
X195400000Y-48801000D02*
X192801000Y-51400000D01*
X192801000Y-51400000D02*
X191900000Y-51400000D01*
X173195001Y-53022040D02*
X173195001Y-50295001D01*
X211901000Y-48801000D02*
X195400000Y-48801000D01*
X172600000Y-49700000D02*
X168000000Y-49700000D01*
X214325733Y-51125733D02*
X214225733Y-51125733D01*
%TO.N,/PD7*%
X191800000Y-71600000D02*
X191800000Y-74400000D01*
%TO.N,/PA7*%
X212000000Y-53618339D02*
X209989661Y-51608000D01*
X214300000Y-57700000D02*
X214203000Y-57700000D01*
X197892000Y-51608000D02*
X197602000Y-51898000D01*
X214203000Y-57700000D02*
X212000000Y-55497000D01*
X212000000Y-55497000D02*
X212000000Y-53618339D01*
X197602000Y-51898000D02*
X197602000Y-54500000D01*
X197602000Y-54500000D02*
X198200000Y-55098000D01*
X198200000Y-55098000D02*
X198200000Y-55400000D01*
X209989661Y-51608000D02*
X197892000Y-51608000D01*
%TO.N,/PA3*%
X214299000Y-53599000D02*
X214300000Y-53600000D01*
X210654061Y-50004000D02*
X214250061Y-53600000D01*
X194900000Y-54300000D02*
X194800000Y-54200000D01*
X195930200Y-50004000D02*
X210654061Y-50004000D01*
X194800000Y-54200000D02*
X194800000Y-51134200D01*
X214300000Y-53400998D02*
X214300000Y-53600000D01*
X194800000Y-51134200D02*
X195930200Y-50004000D01*
X214250061Y-53600000D02*
X214300000Y-53600000D01*
%TO.N,/PA2*%
X195764100Y-49603000D02*
X211053061Y-49603000D01*
X214250059Y-52799998D02*
X214300002Y-52799998D01*
X192100000Y-53100000D02*
X192267100Y-53100000D01*
X192267100Y-53100000D02*
X195764100Y-49603000D01*
X211053061Y-49603000D02*
X214250059Y-52799998D01*
%TO.N,/PA5*%
X196800000Y-54900003D02*
X196500003Y-55200000D01*
X196800000Y-51400000D02*
X196800000Y-54900003D01*
X197394000Y-50806000D02*
X196800000Y-51400000D01*
X212801000Y-53285139D02*
X210321861Y-50806000D01*
X214300000Y-55600000D02*
X212801000Y-54101000D01*
X212801000Y-54101000D02*
X212801000Y-53285139D01*
X210321861Y-50806000D02*
X197394000Y-50806000D01*
%TO.N,/PG1*%
X195300000Y-71600000D02*
X195300000Y-74300000D01*
%TO.N,/PC0*%
X196200000Y-71600000D02*
X196200000Y-74250000D01*
X234000000Y-68920000D02*
X232540000Y-67460000D01*
X234000000Y-70400000D02*
X234000000Y-68920000D01*
X227200000Y-71400000D02*
X227449000Y-71151000D01*
X227449000Y-71151000D02*
X233249000Y-71151000D01*
X233249000Y-71151000D02*
X234000000Y-70400000D01*
%TO.N,/PG0*%
X225300000Y-72500000D02*
X226700000Y-73900000D01*
X231180000Y-73900000D02*
X232540000Y-72540000D01*
X222500000Y-74000000D02*
X224000000Y-72500000D01*
X224000000Y-72500000D02*
X225300000Y-72500000D01*
X226700000Y-73900000D02*
X231180000Y-73900000D01*
X218879000Y-74000000D02*
X222500000Y-74000000D01*
X193500000Y-71600000D02*
X193500000Y-74400000D01*
X218800000Y-74079000D02*
X218879000Y-74000000D01*
%TO.N,/MOSI_D*%
X190725735Y-61066227D02*
X190891962Y-60900000D01*
X199740000Y-61500000D02*
X200900000Y-62660000D01*
X197438000Y-61500000D02*
X199740000Y-61500000D01*
X167700000Y-61184372D02*
X167700000Y-59700000D01*
X196838000Y-60900000D02*
X197438000Y-61500000D01*
X167950628Y-61435000D02*
X167700000Y-61184372D01*
X190725735Y-61274265D02*
X190725735Y-61066227D01*
X190891962Y-60900000D02*
X196838000Y-60900000D01*
%TO.N,Net-(U3-EN_UVLO)*%
X221430028Y-95569972D02*
X221430028Y-97870961D01*
X223500000Y-93500000D02*
X221430028Y-95569972D01*
%TO.N,OUTP*%
X130300000Y-87699000D02*
X132499000Y-85500000D01*
X132499000Y-85500000D02*
X133600000Y-85500000D01*
%TO.N,Net-(R14-Pad1)*%
X145400000Y-82800000D02*
X145400000Y-85800000D01*
X145400000Y-85800000D02*
X145600000Y-86000000D01*
%TO.N,RefOut*%
X150700000Y-96500000D02*
X150700000Y-75313657D01*
X150700000Y-75313657D02*
X150018908Y-74632565D01*
%TO.N,Vocm*%
X143800000Y-90300000D02*
X143900000Y-90200000D01*
X141500000Y-90300000D02*
X143800000Y-90300000D01*
%TO.N,Net-(U10-CBUS1)*%
X223900000Y-87200000D02*
X223900000Y-88500000D01*
X223000000Y-89400000D02*
X213300000Y-89400000D01*
X223900000Y-88500000D02*
X223000000Y-89400000D01*
%TO.N,/SCK_A*%
X152897000Y-66531200D02*
X152897000Y-62449943D01*
X152799997Y-70600000D02*
X152897000Y-70502997D01*
X152899000Y-66533200D02*
X152897000Y-66531200D01*
X152897000Y-61099000D02*
X152698000Y-60900000D01*
X152897000Y-70502997D02*
X152897000Y-67735900D01*
X152897000Y-62449943D02*
X152898000Y-62448943D01*
X152898000Y-61951057D02*
X152897000Y-61950057D01*
X152899000Y-67733900D02*
X152899000Y-66533200D01*
X152897000Y-67735900D02*
X152899000Y-67733900D01*
X152898000Y-62448943D02*
X152898000Y-61951057D01*
X152897000Y-61950057D02*
X152897000Y-61099000D01*
%TO.N,/MISO_A*%
X153699000Y-65499000D02*
X153699000Y-59101000D01*
X154500000Y-70600000D02*
X154500000Y-66300000D01*
X154500000Y-66300000D02*
X153699000Y-65499000D01*
X153699000Y-59101000D02*
X154500000Y-58300000D01*
%TO.N,/CS_A*%
X152496000Y-69704000D02*
X152496000Y-62399000D01*
X151700000Y-70500000D02*
X152496000Y-69704000D01*
X151700000Y-70600000D02*
X151700000Y-70500000D01*
X152496000Y-62399000D02*
X152297000Y-62200000D01*
%TO.N,/MOSI_A*%
X153139354Y-59605354D02*
X153099000Y-59605354D01*
X153600000Y-66700000D02*
X153298000Y-66398000D01*
X153600000Y-70600000D02*
X153600000Y-66700000D01*
X153298000Y-66398000D02*
X153298000Y-59764000D01*
X153298000Y-59764000D02*
X153139354Y-59605354D01*
%TO.N,/PA1*%
X195598000Y-49202000D02*
X211402000Y-49202000D01*
X192000000Y-52300000D02*
X192500000Y-52300000D01*
X211402000Y-49202000D02*
X214199996Y-51999996D01*
X192500000Y-52300000D02*
X195598000Y-49202000D01*
%TD*%
M02*
