M48
; DRILL file {KiCad 9.0.5} date 2025-12-29T19:18:03+0200
; FORMAT={-:-/ absolute / metric / decimal}
; #@! TF.CreationDate,2025-12-29T19:18:03+02:00
; #@! TF.GenerationSoftware,Kicad,Pcbnew,9.0.5
; #@! TF.FileFunction,Plated,1,4,PTH
FMAT,2
METRIC
; #@! TA.AperFunction,Plated,PTH,ViaDrill
T1C0.300
; #@! TA.AperFunction,Plated,PTH,ComponentDrill
T2C0.300
; #@! TA.AperFunction,Plated,PTH,ViaDrill
T3C0.400
; #@! TA.AperFunction,Plated,PTH,ViaDrill
T4C0.600
; #@! TA.AperFunction,Plated,PTH,ComponentDrill
T5C0.600
; #@! TA.AperFunction,Plated,PTH,ComponentDrill
T6C0.890
; #@! TA.AperFunction,Plated,PTH,ComponentDrill
T7C1.000
; #@! TA.AperFunction,Plated,PTH,ComponentDrill
T8C1.500
; #@! TA.AperFunction,Plated,PTH,ComponentDrill
T9C2.010
; #@! TA.AperFunction,Plated,PTH,ComponentDrill
T10C3.200
%
G90
G05
T1
X127.2Y-90.9
X129.5Y-90.9
X130.1Y-84.0
X130.3Y-87.699
X131.4Y-95.5
X131.6Y-64.3
X131.6Y-75.8
X133.0Y-91.0
X133.6Y-85.5
X135.3Y-90.8
X137.0Y-74.0
X137.7Y-94.188
X141.2Y-34.8
X141.4Y-92.9
X141.5Y-90.3
X141.6Y-98.2
X142.3Y-67.6
X143.9Y-82.8
X143.9Y-90.2
X143.9Y-98.8
X144.67Y-82.331
X144.7Y-90.2
X145.4Y-82.8
X145.6Y-86.0
X145.9Y-67.3
X146.2Y-35.4
X148.6Y-69.6
X148.8Y-86.5
X148.85Y-36.4
X150.019Y-74.633
X150.7Y-96.5
X151.3Y-36.4
X151.3Y-77.3
X151.7Y-70.6
X152.297Y-62.2
X152.698Y-60.9
X152.8Y-70.6
X152.9Y-77.3
X153.099Y-59.605
X153.1Y-86.5
X153.6Y-70.6
X153.9Y-36.603
X153.9Y-80.1
X154.3Y-63.4
X154.4Y-55.8
X154.4Y-57.1
X154.5Y-58.3
X154.5Y-70.6
X154.7Y-77.3
X154.7Y-87.9
X155.6Y-77.3
X156.0Y-47.8
X156.0Y-50.1
X156.3Y-91.9
X156.4Y-68.2
X156.5Y-37.004
X157.3Y-74.987
X158.3Y-68.2
X159.0Y-37.405
X159.0Y-81.3
X159.0Y-90.7
X160.6Y-73.487
X160.7Y-71.187
X163.5Y-43.6
X163.8Y-68.2
X165.5Y-81.3
X165.7Y-68.2
X167.0Y-58.4
X167.054Y-61.505
X167.2Y-55.8
X167.2Y-57.1
X167.3Y-63.4
X167.7Y-59.7
X167.951Y-61.435
X168.0Y-49.7
X168.335Y-52.286
X168.9Y-80.9
X168.9Y-89.8
X169.812Y-72.175
X169.936Y-58.2
X169.936Y-59.0
X170.337Y-56.299
X171.0Y-66.9
X171.139Y-51.8
X171.6Y-67.526
X172.0Y-50.9
X172.5Y-63.5
X172.501Y-59.1
X172.522Y-60.0
X172.574Y-64.326
X172.9Y-68.8
X173.195Y-54.4
X173.195Y-56.1
X173.195Y-58.374
X173.195Y-53.022
X174.6Y-68.4
X175.912Y-83.2
X176.023Y-63.8
X176.4Y-51.1
X176.4Y-53.0
X177.7Y-47.1
X178.7Y-34.3
X178.7Y-47.1
X179.0Y-99.0
X179.7Y-47.5
X179.7Y-61.7
X179.8Y-67.5
X179.9Y-50.3
X180.0Y-51.3
X180.325Y-48.0
X181.0Y-50.0
X181.4Y-46.7
X181.8Y-49.5
X182.7Y-50.0
X183.1Y-50.8
X183.449Y-68.249
X183.5Y-51.7
X183.9Y-52.4
X184.5Y-51.8
X185.012Y-51.185
X185.5Y-107.7
X185.6Y-50.5
X186.1Y-49.7
X186.801Y-50.3
X187.246Y-50.965
X187.6Y-50.0
X188.166Y-49.434
X188.889Y-51.589
X189.1Y-49.3
X189.103Y-67.752
X189.885Y-67.982
X190.2Y-52.9
X190.4Y-45.6
X190.4Y-58.4
X190.7Y-62.1
X190.726Y-61.274
X191.3Y-45.6
X191.476Y-99.024
X191.5Y-41.5
X191.7Y-62.3
X191.8Y-71.6
X191.8Y-74.4
X191.9Y-51.4
X191.9Y-58.969
X191.92Y-61.531
X192.0Y-52.3
X192.0Y-63.4
X192.1Y-53.1
X193.5Y-71.6
X193.5Y-74.4
X194.9Y-54.3
X195.3Y-71.6
X195.3Y-74.3
X195.7Y-55.2
X195.9Y-62.9
X196.2Y-52.6
X196.2Y-71.6
X196.2Y-74.25
X196.5Y-55.2
X196.6Y-58.369
X197.0Y-74.25
X197.0Y-71.6
X197.4Y-55.3
X198.15Y-57.968
X198.2Y-55.4
X199.1Y-55.4
X201.293Y-69.081
X201.8Y-69.7
X201.991Y-67.791
X202.3Y-70.4
X202.8Y-71.1
X203.2Y-71.8
X204.1Y-53.0
X204.2Y-75.6
X205.174Y-63.777
X205.174Y-64.7
X205.174Y-65.5
X205.6Y-63.1
X206.5Y-47.3
X207.5Y-48.2
X207.6Y-63.1
X207.6Y-65.5
X208.9Y-53.3
X209.0Y-75.5
X209.2Y-95.0
X211.6Y-48.2
X211.8Y-81.699
X212.0Y-57.4
X212.1Y-71.1
X213.2Y-41.2
X213.3Y-89.4
X213.4Y-91.9
X213.7Y-99.7
X213.7Y-103.3
X214.0Y-94.9
X214.0Y-107.4
X214.2Y-66.5
X214.2Y-67.3
X214.249Y-63.149
X214.275Y-62.275
X214.3Y-52.0
X214.3Y-53.6
X214.3Y-54.5
X214.3Y-55.6
X214.3Y-56.6
X214.3Y-57.7
X214.3Y-59.5
X214.3Y-60.3
X214.3Y-61.3
X214.3Y-52.8
X214.326Y-51.126
X214.8Y-87.1
X215.2Y-47.0
X215.824Y-81.275
X215.9Y-84.8
X215.9Y-86.8
X216.7Y-32.2
X216.9Y-87.4
X217.2Y-46.9
X218.0Y-99.0
X218.8Y-74.079
X219.475Y-95.1
X219.5Y-81.699
X219.85Y-87.125
X219.9Y-103.9
X220.325Y-95.1
X220.7Y-101.2
X221.43Y-97.871
X221.7Y-84.5
X222.1Y-88.8
X222.4Y-60.351
X223.0Y-87.4
X223.1Y-46.9
X223.4Y-101.2
X223.5Y-93.5
X223.6Y-96.2
X223.9Y-87.2
X224.2Y-89.3
X224.6Y-93.5
X224.7Y-32.1
X225.1Y-46.9
X225.2Y-107.4
X226.6Y-97.9
X226.7Y-44.1
X227.2Y-71.4
X230.2Y-105.5
X230.2Y-107.0
T2
X152.913Y-73.513
X152.913Y-74.3
X152.913Y-75.087
X153.7Y-73.513
X153.7Y-74.3
X153.7Y-75.087
X154.487Y-73.513
X154.487Y-74.3
X154.487Y-75.087
X219.4Y-97.2
X219.4Y-98.0
T3
X191.0Y-56.9
X206.9Y-96.7
X215.0Y-93.0
T4
X169.6Y-94.1
X180.0Y-60.6
T6
X132.78Y-53.48
X132.78Y-56.02
T7
X141.05Y-32.5
X141.05Y-107.5
X143.59Y-32.5
X143.59Y-107.5
X146.13Y-32.5
X146.13Y-107.5
X148.67Y-32.5
X148.67Y-107.5
X151.21Y-32.5
X151.21Y-107.5
X153.75Y-32.5
X153.75Y-107.5
X156.29Y-32.5
X158.69Y-96.682
X158.83Y-32.5
X161.23Y-96.682
X163.77Y-96.682
X164.76Y-32.5
X164.76Y-107.5
X166.31Y-96.682
X167.3Y-32.5
X167.3Y-107.5
X169.84Y-32.5
X169.84Y-107.5
X172.38Y-32.5
X172.38Y-107.5
X174.92Y-32.5
X174.92Y-107.5
X177.46Y-32.5
X177.46Y-107.5
X180.0Y-32.5
X180.0Y-107.5
X182.54Y-32.5
X182.54Y-107.5
X188.47Y-32.5
X188.47Y-107.5
X191.01Y-32.5
X191.01Y-107.5
X193.55Y-32.5
X193.55Y-107.5
X196.09Y-32.5
X196.09Y-107.5
X198.36Y-60.12
X198.36Y-62.66
X198.36Y-65.2
X198.63Y-32.5
X198.63Y-107.5
X200.9Y-60.12
X200.9Y-62.66
X200.9Y-65.2
X201.17Y-32.5
X201.17Y-107.5
X203.71Y-32.5
X203.71Y-107.5
X206.25Y-32.5
X206.25Y-107.5
X210.1Y-54.9
X210.1Y-57.4
X210.1Y-59.9
X210.1Y-68.6
X210.1Y-71.1
X210.1Y-73.6
X224.6Y-54.9
X224.6Y-59.9
X224.6Y-68.6
X224.6Y-73.6
X230.0Y-47.14
X230.0Y-49.68
X230.0Y-52.22
X230.0Y-54.76
X230.0Y-57.3
X230.0Y-59.84
X230.0Y-62.38
X230.0Y-64.92
X230.0Y-67.46
X230.0Y-70.0
X230.0Y-72.54
X230.0Y-75.08
X230.0Y-77.62
X230.0Y-80.16
X230.0Y-82.7
X230.0Y-85.24
X230.0Y-87.78
X230.0Y-90.32
X232.54Y-47.14
X232.54Y-49.68
X232.54Y-52.22
X232.54Y-54.76
X232.54Y-57.3
X232.54Y-59.84
X232.54Y-62.38
X232.54Y-64.92
X232.54Y-67.46
X232.54Y-70.0
X232.54Y-72.54
X232.54Y-75.08
X232.54Y-77.62
X232.54Y-80.16
X232.54Y-82.7
X232.54Y-85.24
X232.54Y-87.78
X232.54Y-90.32
T9
X127.7Y-48.4
X127.7Y-58.56
T10
X130.0Y-40.0
X130.0Y-100.0
X230.0Y-40.0
X230.0Y-100.0
T5
G00X215.3Y-102.67
M15
G01X215.3Y-103.77
M16
G05
G00X215.3Y-107.0
M15
G01X215.3Y-107.8
M16
G05
G00X223.94Y-102.67
M15
G01X223.94Y-103.77
M16
G05
G00X223.94Y-107.0
M15
G01X223.94Y-107.8
M16
G05
T8
G00X216.95Y-51.8
M15
G01X218.25Y-51.8
M16
G05
G00X216.95Y-63.0
M15
G01X218.25Y-63.0
M16
G05
G00X216.95Y-65.5
M15
G01X218.25Y-65.5
M16
G05
G00X216.95Y-76.7
M15
G01X218.25Y-76.7
M16
G05
M30
