%TF.GenerationSoftware,KiCad,Pcbnew,9.0.5*%
%TF.CreationDate,2025-12-29T18:52:27+02:00*%
%TF.ProjectId,Circuit_Design_DO,43697263-7569-4745-9f44-657369676e5f,rev?*%
%TF.SameCoordinates,Original*%
%TF.FileFunction,Soldermask,Top*%
%TF.FilePolarity,Negative*%
%FSLAX46Y46*%
G04 Gerber Fmt 4.6, Leading zero omitted, Abs format (unit mm)*
G04 Created by KiCad (PCBNEW 9.0.5) date 2025-12-29 18:52:27*
%MOMM*%
%LPD*%
G01*
G04 APERTURE LIST*
G04 Aperture macros list*
%AMRoundRect*
0 Rectangle with rounded corners*
0 $1 Rounding radius*
0 $2 $3 $4 $5 $6 $7 $8 $9 X,Y pos of 4 corners*
0 Add a 4 corners polygon primitive as box body*
4,1,4,$2,$3,$4,$5,$6,$7,$8,$9,$2,$3,0*
0 Add four circle primitives for the rounded corners*
1,1,$1+$1,$2,$3*
1,1,$1+$1,$4,$5*
1,1,$1+$1,$6,$7*
1,1,$1+$1,$8,$9*
0 Add four rect primitives between the rounded corners*
20,1,$1+$1,$2,$3,$4,$5,0*
20,1,$1+$1,$4,$5,$6,$7,0*
20,1,$1+$1,$6,$7,$8,$9,0*
20,1,$1+$1,$8,$9,$2,$3,0*%
G04 Aperture macros list end*
%ADD10C,0.000000*%
%ADD11R,1.000000X1.000000*%
%ADD12RoundRect,0.150000X-0.150000X0.875000X-0.150000X-0.875000X0.150000X-0.875000X0.150000X0.875000X0*%
%ADD13RoundRect,0.250000X-0.250000X-0.475000X0.250000X-0.475000X0.250000X0.475000X-0.250000X0.475000X0*%
%ADD14RoundRect,0.225000X0.375000X-0.225000X0.375000X0.225000X-0.375000X0.225000X-0.375000X-0.225000X0*%
%ADD15R,0.300000X1.500000*%
%ADD16R,1.500000X0.300000*%
%ADD17RoundRect,0.150000X0.875000X0.150000X-0.875000X0.150000X-0.875000X-0.150000X0.875000X-0.150000X0*%
%ADD18R,2.100000X2.100000*%
%ADD19RoundRect,0.075000X-0.075000X-0.350000X0.075000X-0.350000X0.075000X0.350000X-0.075000X0.350000X0*%
%ADD20RoundRect,0.075000X-0.350000X-0.075000X0.350000X-0.075000X0.350000X0.075000X-0.350000X0.075000X0*%
%ADD21O,7.000000X3.500000*%
%ADD22O,2.500000X1.600000*%
%ADD23C,1.500000*%
%ADD24RoundRect,0.250001X-0.499999X0.499999X-0.499999X-0.499999X0.499999X-0.499999X0.499999X0.499999X0*%
%ADD25RoundRect,0.150000X-0.825000X-0.150000X0.825000X-0.150000X0.825000X0.150000X-0.825000X0.150000X0*%
%ADD26RoundRect,0.250000X-0.262500X-0.450000X0.262500X-0.450000X0.262500X0.450000X-0.262500X0.450000X0*%
%ADD27RoundRect,0.250000X0.450000X-0.262500X0.450000X0.262500X-0.450000X0.262500X-0.450000X-0.262500X0*%
%ADD28R,2.000000X2.000000*%
%ADD29C,2.000000*%
%ADD30R,3.200000X2.000000*%
%ADD31R,1.000000X0.800000*%
%ADD32RoundRect,0.250000X0.262500X0.450000X-0.262500X0.450000X-0.262500X-0.450000X0.262500X-0.450000X0*%
%ADD33RoundRect,0.250000X0.250000X0.475000X-0.250000X0.475000X-0.250000X-0.475000X0.250000X-0.475000X0*%
%ADD34RoundRect,0.250000X-0.945000X0.785000X-0.945000X-0.785000X0.945000X-0.785000X0.945000X0.785000X0*%
%ADD35RoundRect,0.243750X-0.243750X-0.456250X0.243750X-0.456250X0.243750X0.456250X-0.243750X0.456250X0*%
%ADD36R,1.700000X1.700000*%
%ADD37C,1.700000*%
%ADD38RoundRect,0.250000X-0.450000X0.262500X-0.450000X-0.262500X0.450000X-0.262500X0.450000X0.262500X0*%
%ADD39R,1.400000X2.100000*%
%ADD40C,3.600000*%
%ADD41C,5.600000*%
%ADD42RoundRect,0.150000X0.587500X0.150000X-0.587500X0.150000X-0.587500X-0.150000X0.587500X-0.150000X0*%
%ADD43RoundRect,0.250000X-0.475000X0.250000X-0.475000X-0.250000X0.475000X-0.250000X0.475000X0.250000X0*%
%ADD44RoundRect,0.075000X0.650000X0.075000X-0.650000X0.075000X-0.650000X-0.075000X0.650000X-0.075000X0*%
%ADD45RoundRect,0.250000X0.475000X-0.250000X0.475000X0.250000X-0.475000X0.250000X-0.475000X-0.250000X0*%
%ADD46RoundRect,0.243750X-0.456250X0.243750X-0.456250X-0.243750X0.456250X-0.243750X0.456250X0.243750X0*%
%ADD47RoundRect,0.243750X0.456250X-0.243750X0.456250X0.243750X-0.456250X0.243750X-0.456250X-0.243750X0*%
%ADD48RoundRect,0.250000X-0.950000X0.750000X-0.950000X-0.750000X0.950000X-0.750000X0.950000X0.750000X0*%
%ADD49R,0.499999X0.249999*%
%ADD50R,0.900001X1.599999*%
%ADD51C,0.499999*%
%ADD52R,0.849884X0.279908*%
%ADD53R,0.279908X0.849884*%
%ADD54C,0.508000*%
%ADD55C,0.650000*%
%ADD56RoundRect,0.150000X-0.150000X-0.425000X0.150000X-0.425000X0.150000X0.425000X-0.150000X0.425000X0*%
%ADD57RoundRect,0.075000X-0.075000X-0.500000X0.075000X-0.500000X0.075000X0.500000X-0.075000X0.500000X0*%
%ADD58O,1.000000X2.100000*%
%ADD59O,1.000000X1.800000*%
%ADD60RoundRect,0.125000X0.125000X-0.687500X0.125000X0.687500X-0.125000X0.687500X-0.125000X-0.687500X0*%
%ADD61R,1.800000X0.800000*%
%ADD62RoundRect,0.250000X-0.400000X-0.450000X0.400000X-0.450000X0.400000X0.450000X-0.400000X0.450000X0*%
G04 APERTURE END LIST*
D10*
%TO.C,U4*%
G36*
X152712600Y-75713500D02*
G01*
X152286500Y-75713500D01*
X152286500Y-72886500D01*
X152712600Y-72886500D01*
X152712600Y-75713500D01*
G37*
G36*
X155113500Y-73312600D02*
G01*
X152286500Y-73312600D01*
X152286500Y-72886500D01*
X155113500Y-72886500D01*
X155113500Y-73312600D01*
G37*
G36*
X155113500Y-74100000D02*
G01*
X152286500Y-74100000D01*
X152286500Y-73712600D01*
X155113500Y-73712600D01*
X155113500Y-74100000D01*
G37*
G36*
X155113500Y-74887400D02*
G01*
X152286500Y-74887400D01*
X152286500Y-74500000D01*
X155113500Y-74500000D01*
X155113500Y-74887400D01*
G37*
G36*
X155113500Y-75713500D02*
G01*
X152286500Y-75713500D01*
X152286500Y-75287400D01*
X155113500Y-75287400D01*
X155113500Y-75713500D01*
G37*
G36*
X153500000Y-75713500D02*
G01*
X153112600Y-75713500D01*
X153112600Y-72886500D01*
X153500000Y-72886500D01*
X153500000Y-75713500D01*
G37*
G36*
X154287400Y-75713500D02*
G01*
X153900000Y-75713500D01*
X153900000Y-72886500D01*
X154287400Y-72886500D01*
X154287400Y-75713500D01*
G37*
G36*
X155113500Y-75713500D02*
G01*
X154687400Y-75713500D01*
X154687400Y-72886500D01*
X155113500Y-72886500D01*
X155113500Y-75713500D01*
G37*
%TD*%
D11*
%TO.C,5Va*%
X158700000Y-92800000D03*
%TD*%
%TO.C,AGND*%
X161200000Y-92800000D03*
%TD*%
D12*
%TO.C,U1*%
X136045000Y-89050000D03*
X134775000Y-89050000D03*
X133505000Y-89050000D03*
X132235000Y-89050000D03*
X130965000Y-89050000D03*
X129695000Y-89050000D03*
X128425000Y-89050000D03*
X127155000Y-89050000D03*
X127155000Y-79750000D03*
X128425000Y-79750000D03*
X129695000Y-79750000D03*
X130965000Y-79750000D03*
X132235000Y-79750000D03*
X133505000Y-79750000D03*
X134775000Y-79750000D03*
X136045000Y-79750000D03*
%TD*%
D13*
%TO.C,C1*%
X131650000Y-77100000D03*
X129750000Y-77100000D03*
%TD*%
D14*
%TO.C,D4*%
X137000000Y-69550000D03*
X137000000Y-72850000D03*
%TD*%
D15*
%TO.C,U8*%
X179800000Y-54700000D03*
X180300000Y-54700000D03*
X180800000Y-54700000D03*
X181300000Y-54700000D03*
X181800000Y-54700000D03*
X182300000Y-54700000D03*
X182800000Y-54700000D03*
X183300000Y-54700000D03*
X183800000Y-54700000D03*
X184300000Y-54700000D03*
X184800000Y-54700000D03*
X185300000Y-54700000D03*
X185800000Y-54700000D03*
X186300000Y-54700000D03*
X186800000Y-54700000D03*
X187300000Y-54700000D03*
X187800000Y-54700000D03*
X188300000Y-54700000D03*
X188800000Y-54700000D03*
X189300000Y-54700000D03*
X189800000Y-54700000D03*
X190300000Y-54700000D03*
X190800000Y-54700000D03*
X191300000Y-54700000D03*
X191800000Y-54700000D03*
D16*
X193500000Y-56400000D03*
X193500000Y-56900000D03*
X193500000Y-57400000D03*
X193500000Y-57900000D03*
X193500000Y-58400000D03*
X193500000Y-58900000D03*
X193500000Y-59400000D03*
X193500000Y-59900000D03*
X193500000Y-60400000D03*
X193500000Y-60900000D03*
X193500000Y-61400000D03*
X193500000Y-61900000D03*
X193500000Y-62400000D03*
X193500000Y-62900000D03*
X193500000Y-63400000D03*
X193500000Y-63900000D03*
X193500000Y-64400000D03*
X193500000Y-64900000D03*
X193500000Y-65400000D03*
X193500000Y-65900000D03*
X193500000Y-66400000D03*
X193500000Y-66900000D03*
X193500000Y-67400000D03*
X193500000Y-67900000D03*
X193500000Y-68400000D03*
D15*
X191800000Y-70100000D03*
X191300000Y-70100000D03*
X190800000Y-70100000D03*
X190300000Y-70100000D03*
X189800000Y-70100000D03*
X189300000Y-70100000D03*
X188800000Y-70100000D03*
X188300000Y-70100000D03*
X187800000Y-70100000D03*
X187300000Y-70100000D03*
X186800000Y-70100000D03*
X186300000Y-70100000D03*
X185800000Y-70100000D03*
X185300000Y-70100000D03*
X184800000Y-70100000D03*
X184300000Y-70100000D03*
X183800000Y-70100000D03*
X183300000Y-70100000D03*
X182800000Y-70100000D03*
X182300000Y-70100000D03*
X181800000Y-70100000D03*
X181300000Y-70100000D03*
X180800000Y-70100000D03*
X180300000Y-70100000D03*
X179800000Y-70100000D03*
D16*
X178100000Y-68400000D03*
X178100000Y-67900000D03*
X178100000Y-67400000D03*
X178100000Y-66900000D03*
X178100000Y-66400000D03*
X178100000Y-65900000D03*
X178100000Y-65400000D03*
X178100000Y-64900000D03*
X178100000Y-64400000D03*
X178100000Y-63900000D03*
X178100000Y-63400000D03*
X178100000Y-62900000D03*
X178100000Y-62400000D03*
X178100000Y-61900000D03*
X178100000Y-61400000D03*
X178100000Y-60900000D03*
X178100000Y-60400000D03*
X178100000Y-59900000D03*
X178100000Y-59400000D03*
X178100000Y-58900000D03*
X178100000Y-58400000D03*
X178100000Y-57900000D03*
X178100000Y-57400000D03*
X178100000Y-56900000D03*
X178100000Y-56400000D03*
%TD*%
D17*
%TO.C,U12*%
X156150000Y-64645000D03*
X156150000Y-63375000D03*
X156150000Y-62105000D03*
X156150000Y-60835000D03*
X156150000Y-59565000D03*
X156150000Y-58295000D03*
X156150000Y-57025000D03*
X156150000Y-55755000D03*
X165450000Y-55755000D03*
X165450000Y-57025000D03*
X165450000Y-58295000D03*
X165450000Y-59565000D03*
X165450000Y-60835000D03*
X165450000Y-62105000D03*
X165450000Y-63375000D03*
X165450000Y-64645000D03*
%TD*%
D18*
%TO.C,U10*%
X219850000Y-87125000D03*
D19*
X218875000Y-85175000D03*
X219525000Y-85175000D03*
X220175000Y-85175000D03*
X220825000Y-85175000D03*
D20*
X221800000Y-86150000D03*
X221800000Y-86800000D03*
X221800000Y-87450000D03*
X221800000Y-88100000D03*
D19*
X220825000Y-89075000D03*
X220175000Y-89075000D03*
X219525000Y-89075000D03*
X218875000Y-89075000D03*
D20*
X217900000Y-88100000D03*
X217900000Y-87450000D03*
X217900000Y-86800000D03*
X217900000Y-86150000D03*
%TD*%
D21*
%TO.C,J8*%
X127700000Y-48400000D03*
D22*
X132780000Y-56020000D03*
D21*
X127700000Y-58560000D03*
D22*
X132780000Y-53480000D03*
%TD*%
D23*
%TO.C,U2*%
X158690000Y-96682500D03*
X161230000Y-96682500D03*
X163770000Y-96682500D03*
D24*
X166310000Y-96682500D03*
%TD*%
D25*
%TO.C,U7*%
X143925000Y-93995000D03*
X143925000Y-95265000D03*
X143925000Y-96535000D03*
X143925000Y-97805000D03*
X148875000Y-97805000D03*
X148875000Y-96535000D03*
X148875000Y-95265000D03*
X148875000Y-93995000D03*
%TD*%
D26*
%TO.C,R4*%
X210487500Y-99900000D03*
X212312500Y-99900000D03*
%TD*%
D27*
%TO.C,R17*%
X152500000Y-96512500D03*
X152500000Y-94687500D03*
%TD*%
D23*
%TO.C,SW3*%
X224600000Y-54900000D03*
X224600000Y-59900000D03*
D28*
X210100000Y-54900000D03*
D29*
X210100000Y-59900000D03*
X210100000Y-57400000D03*
D30*
X217600000Y-51800000D03*
X217600000Y-63000000D03*
%TD*%
D31*
%TO.C,U9*%
X164050000Y-47770000D03*
X164050000Y-45230000D03*
X157550000Y-45230000D03*
X157550000Y-47770000D03*
%TD*%
D32*
%TO.C,R19*%
X145312500Y-91700000D03*
X143487500Y-91700000D03*
%TD*%
D33*
%TO.C,C13*%
X154650000Y-78587400D03*
X152750000Y-78587400D03*
%TD*%
%TO.C,C2*%
X140350000Y-77100000D03*
X138450000Y-77100000D03*
%TD*%
D13*
%TO.C,C37*%
X193150000Y-52700000D03*
X195050000Y-52700000D03*
%TD*%
D34*
%TO.C,C36*%
X145900000Y-69030000D03*
X145900000Y-73970000D03*
%TD*%
D35*
%TO.C,D2*%
X210462500Y-93000000D03*
X212337500Y-93000000D03*
%TD*%
D33*
%TO.C,C30*%
X165650000Y-66700000D03*
X163750000Y-66700000D03*
%TD*%
D26*
%TO.C,R9*%
X138400000Y-87400000D03*
X140225000Y-87400000D03*
%TD*%
D31*
%TO.C,U6*%
X165550000Y-85470000D03*
X165550000Y-82930000D03*
X159050000Y-82930000D03*
X159050000Y-85470000D03*
%TD*%
D36*
%TO.C,J1*%
X141050000Y-107500000D03*
D37*
X143590000Y-107500000D03*
X146130000Y-107500000D03*
X148670000Y-107500000D03*
X151210000Y-107500000D03*
X153750000Y-107500000D03*
%TD*%
D13*
%TO.C,C27*%
X215250000Y-95000000D03*
X217150000Y-95000000D03*
%TD*%
D38*
%TO.C,R18*%
X148800000Y-72687500D03*
X148800000Y-74512500D03*
%TD*%
%TO.C,R38*%
X207600000Y-59987500D03*
X207600000Y-61812500D03*
%TD*%
D39*
%TO.C,SW1*%
X223050000Y-32150000D03*
X223050000Y-41250000D03*
X218550000Y-32150000D03*
X218550000Y-41250000D03*
%TD*%
D36*
%TO.C,J10*%
X198360000Y-60120000D03*
D37*
X200900000Y-60120000D03*
X198360000Y-62660000D03*
X200900000Y-62660000D03*
X198360000Y-65200000D03*
X200900000Y-65200000D03*
%TD*%
D40*
%TO.C,H2*%
X230000000Y-40000000D03*
D41*
X230000000Y-40000000D03*
%TD*%
D26*
%TO.C,R5*%
X210487500Y-98000000D03*
X212312500Y-98000000D03*
%TD*%
D42*
%TO.C,Q2*%
X141900000Y-70400000D03*
X141900000Y-68500000D03*
X140025000Y-69450000D03*
%TD*%
D38*
%TO.C,R35*%
X166200000Y-51187500D03*
X166200000Y-53012500D03*
%TD*%
D43*
%TO.C,C33*%
X205600000Y-73650000D03*
X205600000Y-75550000D03*
%TD*%
D27*
%TO.C,R6*%
X225400000Y-92300000D03*
X225400000Y-90475000D03*
%TD*%
D40*
%TO.C,H3*%
X130000000Y-100000000D03*
D41*
X130000000Y-100000000D03*
%TD*%
D26*
%TO.C,R11*%
X227187500Y-105500000D03*
X229012500Y-105500000D03*
%TD*%
D44*
%TO.C,U13*%
X151800000Y-87500000D03*
X151800000Y-87000000D03*
X151800000Y-86500000D03*
X151800000Y-86000000D03*
X151800000Y-85500000D03*
X147400000Y-85500000D03*
X147400000Y-86000000D03*
X147400000Y-86500000D03*
X147400000Y-87000000D03*
X147400000Y-87500000D03*
%TD*%
D45*
%TO.C,C23*%
X178100000Y-52950000D03*
X178100000Y-51050000D03*
%TD*%
D46*
%TO.C,D7*%
X225200000Y-86162500D03*
X225200000Y-88037500D03*
%TD*%
D27*
%TO.C,R42*%
X165600000Y-89312500D03*
X165600000Y-87487500D03*
%TD*%
D43*
%TO.C,C8*%
X129400000Y-92250000D03*
X129400000Y-94150000D03*
%TD*%
D40*
%TO.C,H4*%
X230000000Y-100000000D03*
D41*
X230000000Y-100000000D03*
%TD*%
D13*
%TO.C,C5*%
X138450000Y-79100000D03*
X140350000Y-79100000D03*
%TD*%
D36*
%TO.C,J5*%
X188470000Y-107500000D03*
D37*
X191010000Y-107500000D03*
X193550000Y-107500000D03*
X196090000Y-107500000D03*
X198630000Y-107500000D03*
X201170000Y-107500000D03*
X203710000Y-107500000D03*
X206250000Y-107500000D03*
%TD*%
D43*
%TO.C,C9*%
X133400000Y-92250000D03*
X133400000Y-94150000D03*
%TD*%
D26*
%TO.C,R8*%
X138400000Y-85500000D03*
X140225000Y-85500000D03*
%TD*%
D13*
%TO.C,C18*%
X147050000Y-76687400D03*
X148950000Y-76687400D03*
%TD*%
D33*
%TO.C,C6*%
X140350000Y-81100000D03*
X138450000Y-81100000D03*
%TD*%
D13*
%TO.C,C10*%
X222600000Y-97400000D03*
X224500000Y-97400000D03*
%TD*%
D26*
%TO.C,R37*%
X148587500Y-70900000D03*
X150412500Y-70900000D03*
%TD*%
%TO.C,R29*%
X171100000Y-72075000D03*
X172925000Y-72075000D03*
%TD*%
D13*
%TO.C,C4*%
X122450000Y-83900000D03*
X124350000Y-83900000D03*
%TD*%
D33*
%TO.C,C22*%
X175950000Y-60000000D03*
X174050000Y-60000000D03*
%TD*%
%TO.C,C11*%
X212350000Y-95000000D03*
X210450000Y-95000000D03*
%TD*%
D32*
%TO.C,R23*%
X155012500Y-83700000D03*
X153187500Y-83700000D03*
%TD*%
D40*
%TO.C,H1*%
X130000000Y-40000000D03*
D41*
X130000000Y-40000000D03*
%TD*%
D26*
%TO.C,R33*%
X214475000Y-91100000D03*
X216300000Y-91100000D03*
%TD*%
D32*
%TO.C,R14*%
X145412500Y-81300000D03*
X143587500Y-81300000D03*
%TD*%
D45*
%TO.C,C31*%
X205600000Y-54850000D03*
X205600000Y-52950000D03*
%TD*%
D46*
%TO.C,F1*%
X169600000Y-96262500D03*
X169600000Y-98137500D03*
%TD*%
D36*
%TO.C,J7*%
X230000000Y-47140000D03*
D37*
X232540000Y-47140000D03*
X230000000Y-49680000D03*
X232540000Y-49680000D03*
X230000000Y-52220000D03*
X232540000Y-52220000D03*
X230000000Y-54760000D03*
X232540000Y-54760000D03*
X230000000Y-57300000D03*
X232540000Y-57300000D03*
X230000000Y-59840000D03*
X232540000Y-59840000D03*
X230000000Y-62380000D03*
X232540000Y-62380000D03*
X230000000Y-64920000D03*
X232540000Y-64920000D03*
X230000000Y-67460000D03*
X232540000Y-67460000D03*
X230000000Y-70000000D03*
X232540000Y-70000000D03*
X230000000Y-72540000D03*
X232540000Y-72540000D03*
X230000000Y-75080000D03*
X232540000Y-75080000D03*
X230000000Y-77620000D03*
X232540000Y-77620000D03*
X230000000Y-80160000D03*
X232540000Y-80160000D03*
X230000000Y-82700000D03*
X232540000Y-82700000D03*
X230000000Y-85240000D03*
X232540000Y-85240000D03*
X230000000Y-87780000D03*
X232540000Y-87780000D03*
X230000000Y-90320000D03*
X232540000Y-90320000D03*
%TD*%
D32*
%TO.C,R31*%
X141612500Y-72600000D03*
X139787500Y-72600000D03*
%TD*%
D26*
%TO.C,R21*%
X147087500Y-78687400D03*
X148912500Y-78687400D03*
%TD*%
D47*
%TO.C,D6*%
X213400000Y-88037500D03*
X213400000Y-86162500D03*
%TD*%
D43*
%TO.C,C28*%
X213400000Y-82050000D03*
X213400000Y-83950000D03*
%TD*%
D48*
%TO.C,Y1*%
X170500000Y-83500000D03*
X170500000Y-87200000D03*
%TD*%
D43*
%TO.C,C24*%
X225100000Y-44050000D03*
X225100000Y-45950000D03*
%TD*%
D38*
%TO.C,R41*%
X215200000Y-44087500D03*
X215200000Y-45912500D03*
%TD*%
D49*
%TO.C,U3*%
X220350001Y-98350000D03*
X220350001Y-97850001D03*
X220350001Y-97349999D03*
X220350001Y-96850001D03*
X218449999Y-96850001D03*
X218449999Y-97349999D03*
X218449999Y-97850001D03*
X218449999Y-98350000D03*
D50*
X219400000Y-97600002D03*
D51*
X219400000Y-97999998D03*
X219400000Y-97200000D03*
%TD*%
D39*
%TO.C,SW4*%
X215050000Y-32150000D03*
X215050000Y-41250000D03*
X210550000Y-32150000D03*
X210550000Y-41250000D03*
%TD*%
D43*
%TO.C,C35*%
X217200000Y-44050000D03*
X217200000Y-45950000D03*
%TD*%
D38*
%TO.C,R26*%
X173800000Y-82987500D03*
X173800000Y-84812500D03*
%TD*%
D13*
%TO.C,C19*%
X169950000Y-80900000D03*
X171850000Y-80900000D03*
%TD*%
D36*
%TO.C,J6*%
X188470000Y-32500000D03*
D37*
X191010000Y-32500000D03*
X193550000Y-32500000D03*
X196090000Y-32500000D03*
X198630000Y-32500000D03*
X201170000Y-32500000D03*
X203710000Y-32500000D03*
X206250000Y-32500000D03*
%TD*%
D26*
%TO.C,R27*%
X173587500Y-87500000D03*
X175412500Y-87500000D03*
%TD*%
D27*
%TO.C,R25*%
X137700000Y-97100000D03*
X137700000Y-95275000D03*
%TD*%
D43*
%TO.C,C32*%
X205600000Y-59950000D03*
X205600000Y-61850000D03*
%TD*%
D52*
%TO.C,U4*%
X151725000Y-73050000D03*
X151725000Y-73549999D03*
X151725000Y-74050000D03*
X151725000Y-74550000D03*
X151725000Y-75050001D03*
X151725000Y-75550000D03*
D53*
X152449685Y-76275000D03*
X152949811Y-76275000D03*
X153449937Y-76275000D03*
X153950063Y-76275000D03*
X154450189Y-76275000D03*
X154950315Y-76275000D03*
D52*
X155675000Y-75550000D03*
X155675000Y-75050001D03*
X155675000Y-74550000D03*
X155675000Y-74050000D03*
X155675000Y-73549999D03*
X155675000Y-73050000D03*
D53*
X154950315Y-72325000D03*
X154450189Y-72325000D03*
X153950063Y-72325000D03*
X153449937Y-72325000D03*
X152949811Y-72325000D03*
X152449685Y-72325000D03*
D54*
X152912600Y-73512600D03*
X152912600Y-74300000D03*
X152912600Y-75087400D03*
X153700000Y-73512600D03*
X153700000Y-74300000D03*
X153700000Y-75087400D03*
X154487400Y-73512600D03*
X154487400Y-74300000D03*
X154487400Y-75087400D03*
%TD*%
D36*
%TO.C,J4*%
X182540000Y-32500000D03*
D37*
X180000000Y-32500000D03*
X177460000Y-32500000D03*
X174920000Y-32500000D03*
X172380000Y-32500000D03*
X169840000Y-32500000D03*
X167300000Y-32500000D03*
X164760000Y-32500000D03*
%TD*%
D26*
%TO.C,R1*%
X125100000Y-62700000D03*
X126925000Y-62700000D03*
%TD*%
D36*
%TO.C,J3*%
X164760000Y-107500000D03*
D37*
X167300000Y-107500000D03*
X169840000Y-107500000D03*
X172380000Y-107500000D03*
X174920000Y-107500000D03*
X177460000Y-107500000D03*
X180000000Y-107500000D03*
X182540000Y-107500000D03*
%TD*%
D33*
%TO.C,C21*%
X179162500Y-83200000D03*
X177262500Y-83200000D03*
%TD*%
D26*
%TO.C,R15*%
X146987500Y-81300000D03*
X148812500Y-81300000D03*
%TD*%
D33*
%TO.C,C26*%
X224450000Y-95000000D03*
X222550000Y-95000000D03*
%TD*%
D27*
%TO.C,R40*%
X207600000Y-54812500D03*
X207600000Y-52987500D03*
%TD*%
%TO.C,R12*%
X220800000Y-93212500D03*
X220800000Y-91387500D03*
%TD*%
D55*
%TO.C,J9*%
X216730000Y-103720000D03*
X222510000Y-103720000D03*
D56*
X216420000Y-102645000D03*
X217220000Y-102645000D03*
D57*
X218370000Y-102645000D03*
X219370000Y-102645000D03*
X219870000Y-102645000D03*
X220870000Y-102645000D03*
D56*
X222020000Y-102645000D03*
X222820000Y-102645000D03*
X222820000Y-102645000D03*
X222020000Y-102645000D03*
D57*
X221370000Y-102645000D03*
X220370000Y-102645000D03*
X218870000Y-102645000D03*
X217870000Y-102645000D03*
D56*
X217220000Y-102645000D03*
X216420000Y-102645000D03*
D58*
X215300000Y-103220000D03*
D59*
X215300000Y-107400000D03*
D58*
X223940000Y-103220000D03*
D59*
X223940000Y-107400000D03*
%TD*%
D43*
%TO.C,C16*%
X141600000Y-95250000D03*
X141600000Y-97150000D03*
%TD*%
D33*
%TO.C,C29*%
X158250000Y-66700000D03*
X156350000Y-66700000D03*
%TD*%
D31*
%TO.C,U11*%
X164050000Y-52670000D03*
X164050000Y-50130000D03*
X157550000Y-50130000D03*
X157550000Y-52670000D03*
%TD*%
D26*
%TO.C,Rsns1*%
X129000000Y-62700000D03*
X130825000Y-62700000D03*
%TD*%
D27*
%TO.C,R13*%
X218900000Y-93212500D03*
X218900000Y-91387500D03*
%TD*%
D43*
%TO.C,C7*%
X131400000Y-92250000D03*
X131400000Y-94150000D03*
%TD*%
D36*
%TO.C,J2*%
X158830000Y-32500000D03*
D37*
X156290000Y-32500000D03*
X153750000Y-32500000D03*
X151210000Y-32500000D03*
X148670000Y-32500000D03*
X146130000Y-32500000D03*
X143590000Y-32500000D03*
X141050000Y-32500000D03*
%TD*%
D32*
%TO.C,R34*%
X225400000Y-83100000D03*
X223575000Y-83100000D03*
%TD*%
D27*
%TO.C,R22*%
X139600000Y-97100000D03*
X139600000Y-95275000D03*
%TD*%
%TO.C,R30*%
X166200000Y-49612500D03*
X166200000Y-47787500D03*
%TD*%
D46*
%TO.C,D5*%
X210700000Y-86162500D03*
X210700000Y-88037500D03*
%TD*%
D27*
%TO.C,R7*%
X223500000Y-92300000D03*
X223500000Y-90475000D03*
%TD*%
D13*
%TO.C,C17*%
X153150000Y-91900000D03*
X155050000Y-91900000D03*
%TD*%
D45*
%TO.C,C15*%
X159000000Y-77037400D03*
X159000000Y-75137400D03*
%TD*%
D43*
%TO.C,C25*%
X124500000Y-65650000D03*
X124500000Y-67550000D03*
%TD*%
D26*
%TO.C,R16*%
X210487500Y-91100000D03*
X212312500Y-91100000D03*
%TD*%
D60*
%TO.C,U5*%
X143225000Y-88612500D03*
X143875000Y-88612500D03*
X144525000Y-88612500D03*
X145175000Y-88612500D03*
X145175000Y-84387500D03*
X144525000Y-84387500D03*
X143875000Y-84387500D03*
X143225000Y-84387500D03*
%TD*%
D26*
%TO.C,R20*%
X146887500Y-91700000D03*
X148712500Y-91700000D03*
%TD*%
%TO.C,R3*%
X132900000Y-62700000D03*
X134725000Y-62700000D03*
%TD*%
%TO.C,R24*%
X153187500Y-89300000D03*
X155012500Y-89300000D03*
%TD*%
D43*
%TO.C,C12*%
X212100000Y-102350000D03*
X212100000Y-104250000D03*
%TD*%
D45*
%TO.C,C14*%
X159000000Y-73187400D03*
X159000000Y-71287400D03*
%TD*%
D23*
%TO.C,SW2*%
X224600000Y-68600000D03*
X224600000Y-73600000D03*
D28*
X210100000Y-68600000D03*
D29*
X210100000Y-73600000D03*
X210100000Y-71100000D03*
D30*
X217600000Y-65500000D03*
X217600000Y-76700000D03*
%TD*%
D45*
%TO.C,C34*%
X205600000Y-68550000D03*
X205600000Y-66650000D03*
%TD*%
D35*
%TO.C,D3*%
X171075000Y-70075000D03*
X172950000Y-70075000D03*
%TD*%
D38*
%TO.C,R36*%
X207600000Y-73687500D03*
X207600000Y-75512500D03*
%TD*%
%TO.C,R32*%
X208000000Y-86187500D03*
X208000000Y-88012500D03*
%TD*%
%TO.C,R28*%
X223100000Y-44100000D03*
X223100000Y-45925000D03*
%TD*%
D27*
%TO.C,R43*%
X159000000Y-89312500D03*
X159000000Y-87487500D03*
%TD*%
D61*
%TO.C,K3*%
X127300000Y-66300000D03*
X127300000Y-69500000D03*
X127300000Y-71700000D03*
X127300000Y-73900000D03*
X134300000Y-73900000D03*
X134300000Y-71700000D03*
X134300000Y-69500000D03*
X134300000Y-66300000D03*
%TD*%
D27*
%TO.C,R39*%
X207600000Y-68525000D03*
X207600000Y-66700000D03*
%TD*%
D62*
%TO.C,D1*%
X222750000Y-99600000D03*
X225650000Y-99600000D03*
%TD*%
D33*
%TO.C,C20*%
X171840000Y-89800000D03*
X169940000Y-89800000D03*
%TD*%
D27*
%TO.C,R2*%
X135400000Y-94112500D03*
X135400000Y-92287500D03*
%TD*%
D26*
%TO.C,R10*%
X227187500Y-107400000D03*
X229012500Y-107400000D03*
%TD*%
D13*
%TO.C,C3*%
X122450000Y-81900000D03*
X124350000Y-81900000D03*
%TD*%
M02*
