%TF.GenerationSoftware,KiCad,Pcbnew,9.0.5*%
%TF.CreationDate,2025-12-29T18:52:27+02:00*%
%TF.ProjectId,Circuit_Design_DO,43697263-7569-4745-9f44-657369676e5f,rev?*%
%TF.SameCoordinates,Original*%
%TF.FileFunction,Soldermask,Bot*%
%TF.FilePolarity,Negative*%
%FSLAX46Y46*%
G04 Gerber Fmt 4.6, Leading zero omitted, Abs format (unit mm)*
G04 Created by KiCad (PCBNEW 9.0.5) date 2025-12-29 18:52:27*
%MOMM*%
%LPD*%
G01*
G04 APERTURE LIST*
G04 Aperture macros list*
%AMRoundRect*
0 Rectangle with rounded corners*
0 $1 Rounding radius*
0 $2 $3 $4 $5 $6 $7 $8 $9 X,Y pos of 4 corners*
0 Add a 4 corners polygon primitive as box body*
4,1,4,$2,$3,$4,$5,$6,$7,$8,$9,$2,$3,0*
0 Add four circle primitives for the rounded corners*
1,1,$1+$1,$2,$3*
1,1,$1+$1,$4,$5*
1,1,$1+$1,$6,$7*
1,1,$1+$1,$8,$9*
0 Add four rect primitives between the rounded corners*
20,1,$1+$1,$2,$3,$4,$5,0*
20,1,$1+$1,$4,$5,$6,$7,0*
20,1,$1+$1,$6,$7,$8,$9,0*
20,1,$1+$1,$8,$9,$2,$3,0*%
G04 Aperture macros list end*
%ADD10O,7.000000X3.500000*%
%ADD11O,2.500000X1.600000*%
%ADD12C,1.500000*%
%ADD13RoundRect,0.250001X-0.499999X0.499999X-0.499999X-0.499999X0.499999X-0.499999X0.499999X0.499999X0*%
%ADD14R,2.000000X2.000000*%
%ADD15C,2.000000*%
%ADD16R,3.200000X2.000000*%
%ADD17R,1.700000X1.700000*%
%ADD18C,1.700000*%
%ADD19C,3.600000*%
%ADD20C,5.600000*%
%ADD21C,0.499999*%
%ADD22C,0.508000*%
%ADD23C,0.650000*%
%ADD24O,1.000000X2.100000*%
%ADD25O,1.000000X1.800000*%
G04 APERTURE END LIST*
D10*
%TO.C,J8*%
X127700000Y-48400000D03*
D11*
X132780000Y-56020000D03*
D10*
X127700000Y-58560000D03*
D11*
X132780000Y-53480000D03*
%TD*%
D12*
%TO.C,U2*%
X158690000Y-96682500D03*
X161230000Y-96682500D03*
X163770000Y-96682500D03*
D13*
X166310000Y-96682500D03*
%TD*%
D12*
%TO.C,SW3*%
X224600000Y-54900000D03*
X224600000Y-59900000D03*
D14*
X210100000Y-54900000D03*
D15*
X210100000Y-59900000D03*
X210100000Y-57400000D03*
D16*
X217600000Y-51800000D03*
X217600000Y-63000000D03*
%TD*%
D17*
%TO.C,J1*%
X141050000Y-107500000D03*
D18*
X143590000Y-107500000D03*
X146130000Y-107500000D03*
X148670000Y-107500000D03*
X151210000Y-107500000D03*
X153750000Y-107500000D03*
%TD*%
D17*
%TO.C,J10*%
X198360000Y-60120000D03*
D18*
X200900000Y-60120000D03*
X198360000Y-62660000D03*
X200900000Y-62660000D03*
X198360000Y-65200000D03*
X200900000Y-65200000D03*
%TD*%
D19*
%TO.C,H2*%
X230000000Y-40000000D03*
D20*
X230000000Y-40000000D03*
%TD*%
D19*
%TO.C,H3*%
X130000000Y-100000000D03*
D20*
X130000000Y-100000000D03*
%TD*%
D19*
%TO.C,H4*%
X230000000Y-100000000D03*
D20*
X230000000Y-100000000D03*
%TD*%
D17*
%TO.C,J5*%
X188470000Y-107500000D03*
D18*
X191010000Y-107500000D03*
X193550000Y-107500000D03*
X196090000Y-107500000D03*
X198630000Y-107500000D03*
X201170000Y-107500000D03*
X203710000Y-107500000D03*
X206250000Y-107500000D03*
%TD*%
D19*
%TO.C,H1*%
X130000000Y-40000000D03*
D20*
X130000000Y-40000000D03*
%TD*%
D17*
%TO.C,J7*%
X230000000Y-47140000D03*
D18*
X232540000Y-47140000D03*
X230000000Y-49680000D03*
X232540000Y-49680000D03*
X230000000Y-52220000D03*
X232540000Y-52220000D03*
X230000000Y-54760000D03*
X232540000Y-54760000D03*
X230000000Y-57300000D03*
X232540000Y-57300000D03*
X230000000Y-59840000D03*
X232540000Y-59840000D03*
X230000000Y-62380000D03*
X232540000Y-62380000D03*
X230000000Y-64920000D03*
X232540000Y-64920000D03*
X230000000Y-67460000D03*
X232540000Y-67460000D03*
X230000000Y-70000000D03*
X232540000Y-70000000D03*
X230000000Y-72540000D03*
X232540000Y-72540000D03*
X230000000Y-75080000D03*
X232540000Y-75080000D03*
X230000000Y-77620000D03*
X232540000Y-77620000D03*
X230000000Y-80160000D03*
X232540000Y-80160000D03*
X230000000Y-82700000D03*
X232540000Y-82700000D03*
X230000000Y-85240000D03*
X232540000Y-85240000D03*
X230000000Y-87780000D03*
X232540000Y-87780000D03*
X230000000Y-90320000D03*
X232540000Y-90320000D03*
%TD*%
D21*
%TO.C,U3*%
X219400000Y-97999998D03*
X219400000Y-97200000D03*
%TD*%
D17*
%TO.C,J6*%
X188470000Y-32500000D03*
D18*
X191010000Y-32500000D03*
X193550000Y-32500000D03*
X196090000Y-32500000D03*
X198630000Y-32500000D03*
X201170000Y-32500000D03*
X203710000Y-32500000D03*
X206250000Y-32500000D03*
%TD*%
D22*
%TO.C,U4*%
X152912600Y-73512600D03*
X152912600Y-74300000D03*
X152912600Y-75087400D03*
X153700000Y-73512600D03*
X153700000Y-74300000D03*
X153700000Y-75087400D03*
X154487400Y-73512600D03*
X154487400Y-74300000D03*
X154487400Y-75087400D03*
%TD*%
D17*
%TO.C,J4*%
X182540000Y-32500000D03*
D18*
X180000000Y-32500000D03*
X177460000Y-32500000D03*
X174920000Y-32500000D03*
X172380000Y-32500000D03*
X169840000Y-32500000D03*
X167300000Y-32500000D03*
X164760000Y-32500000D03*
%TD*%
D17*
%TO.C,J3*%
X164760000Y-107500000D03*
D18*
X167300000Y-107500000D03*
X169840000Y-107500000D03*
X172380000Y-107500000D03*
X174920000Y-107500000D03*
X177460000Y-107500000D03*
X180000000Y-107500000D03*
X182540000Y-107500000D03*
%TD*%
D23*
%TO.C,J9*%
X216730000Y-103720000D03*
X222510000Y-103720000D03*
D24*
X215300000Y-103220000D03*
D25*
X215300000Y-107400000D03*
D24*
X223940000Y-103220000D03*
D25*
X223940000Y-107400000D03*
%TD*%
D17*
%TO.C,J2*%
X158830000Y-32500000D03*
D18*
X156290000Y-32500000D03*
X153750000Y-32500000D03*
X151210000Y-32500000D03*
X148670000Y-32500000D03*
X146130000Y-32500000D03*
X143590000Y-32500000D03*
X141050000Y-32500000D03*
%TD*%
D12*
%TO.C,SW2*%
X224600000Y-68600000D03*
X224600000Y-73600000D03*
D14*
X210100000Y-68600000D03*
D15*
X210100000Y-73600000D03*
X210100000Y-71100000D03*
D16*
X217600000Y-65500000D03*
X217600000Y-76700000D03*
%TD*%
M02*
