%TF.GenerationSoftware,KiCad,Pcbnew,9.0.5*%
%TF.CreationDate,2025-12-29T18:52:27+02:00*%
%TF.ProjectId,Circuit_Design_DO,43697263-7569-4745-9f44-657369676e5f,rev?*%
%TF.SameCoordinates,Original*%
%TF.FileFunction,Legend,Top*%
%TF.FilePolarity,Positive*%
%FSLAX46Y46*%
G04 Gerber Fmt 4.6, Leading zero omitted, Abs format (unit mm)*
G04 Created by KiCad (PCBNEW 9.0.5) date 2025-12-29 18:52:27*
%MOMM*%
%LPD*%
G01*
G04 APERTURE LIST*
%ADD10C,0.100000*%
%ADD11C,0.062500*%
%ADD12C,0.150000*%
%ADD13C,0.120000*%
%ADD14C,0.170000*%
%ADD15C,0.152400*%
%ADD16C,0.000000*%
G04 APERTURE END LIST*
D10*
X199303884Y-58572419D02*
X199303884Y-57572419D01*
X200351502Y-58477180D02*
X200303883Y-58524800D01*
X200303883Y-58524800D02*
X200161026Y-58572419D01*
X200161026Y-58572419D02*
X200065788Y-58572419D01*
X200065788Y-58572419D02*
X199922931Y-58524800D01*
X199922931Y-58524800D02*
X199827693Y-58429561D01*
X199827693Y-58429561D02*
X199780074Y-58334323D01*
X199780074Y-58334323D02*
X199732455Y-58143847D01*
X199732455Y-58143847D02*
X199732455Y-58000990D01*
X199732455Y-58000990D02*
X199780074Y-57810514D01*
X199780074Y-57810514D02*
X199827693Y-57715276D01*
X199827693Y-57715276D02*
X199922931Y-57620038D01*
X199922931Y-57620038D02*
X200065788Y-57572419D01*
X200065788Y-57572419D02*
X200161026Y-57572419D01*
X200161026Y-57572419D02*
X200303883Y-57620038D01*
X200303883Y-57620038D02*
X200351502Y-57667657D01*
X200732455Y-58524800D02*
X200875312Y-58572419D01*
X200875312Y-58572419D02*
X201113407Y-58572419D01*
X201113407Y-58572419D02*
X201208645Y-58524800D01*
X201208645Y-58524800D02*
X201256264Y-58477180D01*
X201256264Y-58477180D02*
X201303883Y-58381942D01*
X201303883Y-58381942D02*
X201303883Y-58286704D01*
X201303883Y-58286704D02*
X201256264Y-58191466D01*
X201256264Y-58191466D02*
X201208645Y-58143847D01*
X201208645Y-58143847D02*
X201113407Y-58096228D01*
X201113407Y-58096228D02*
X200922931Y-58048609D01*
X200922931Y-58048609D02*
X200827693Y-58000990D01*
X200827693Y-58000990D02*
X200780074Y-57953371D01*
X200780074Y-57953371D02*
X200732455Y-57858133D01*
X200732455Y-57858133D02*
X200732455Y-57762895D01*
X200732455Y-57762895D02*
X200780074Y-57667657D01*
X200780074Y-57667657D02*
X200827693Y-57620038D01*
X200827693Y-57620038D02*
X200922931Y-57572419D01*
X200922931Y-57572419D02*
X201161026Y-57572419D01*
X201161026Y-57572419D02*
X201303883Y-57620038D01*
X201732455Y-58572419D02*
X201732455Y-57572419D01*
X201732455Y-57572419D02*
X202113407Y-57572419D01*
X202113407Y-57572419D02*
X202208645Y-57620038D01*
X202208645Y-57620038D02*
X202256264Y-57667657D01*
X202256264Y-57667657D02*
X202303883Y-57762895D01*
X202303883Y-57762895D02*
X202303883Y-57905752D01*
X202303883Y-57905752D02*
X202256264Y-58000990D01*
X202256264Y-58000990D02*
X202208645Y-58048609D01*
X202208645Y-58048609D02*
X202113407Y-58096228D01*
X202113407Y-58096228D02*
X201732455Y-58096228D01*
X184980950Y-81700150D02*
X184885712Y-81652531D01*
X184885712Y-81652531D02*
X184742855Y-81652531D01*
X184742855Y-81652531D02*
X184599998Y-81700150D01*
X184599998Y-81700150D02*
X184504760Y-81795388D01*
X184504760Y-81795388D02*
X184457141Y-81890626D01*
X184457141Y-81890626D02*
X184409522Y-82081102D01*
X184409522Y-82081102D02*
X184409522Y-82223959D01*
X184409522Y-82223959D02*
X184457141Y-82414435D01*
X184457141Y-82414435D02*
X184504760Y-82509673D01*
X184504760Y-82509673D02*
X184599998Y-82604912D01*
X184599998Y-82604912D02*
X184742855Y-82652531D01*
X184742855Y-82652531D02*
X184838093Y-82652531D01*
X184838093Y-82652531D02*
X184980950Y-82604912D01*
X184980950Y-82604912D02*
X185028569Y-82557292D01*
X185028569Y-82557292D02*
X185028569Y-82223959D01*
X185028569Y-82223959D02*
X184838093Y-82223959D01*
X185885712Y-82652531D02*
X185885712Y-82128721D01*
X185885712Y-82128721D02*
X185838093Y-82033483D01*
X185838093Y-82033483D02*
X185742855Y-81985864D01*
X185742855Y-81985864D02*
X185552379Y-81985864D01*
X185552379Y-81985864D02*
X185457141Y-82033483D01*
X185885712Y-82604912D02*
X185790474Y-82652531D01*
X185790474Y-82652531D02*
X185552379Y-82652531D01*
X185552379Y-82652531D02*
X185457141Y-82604912D01*
X185457141Y-82604912D02*
X185409522Y-82509673D01*
X185409522Y-82509673D02*
X185409522Y-82414435D01*
X185409522Y-82414435D02*
X185457141Y-82319197D01*
X185457141Y-82319197D02*
X185552379Y-82271578D01*
X185552379Y-82271578D02*
X185790474Y-82271578D01*
X185790474Y-82271578D02*
X185885712Y-82223959D01*
X186504760Y-82652531D02*
X186409522Y-82604912D01*
X186409522Y-82604912D02*
X186361903Y-82509673D01*
X186361903Y-82509673D02*
X186361903Y-81652531D01*
X186790475Y-81985864D02*
X187028570Y-82652531D01*
X187028570Y-82652531D02*
X187266665Y-81985864D01*
X188076189Y-82652531D02*
X188076189Y-82128721D01*
X188076189Y-82128721D02*
X188028570Y-82033483D01*
X188028570Y-82033483D02*
X187933332Y-81985864D01*
X187933332Y-81985864D02*
X187742856Y-81985864D01*
X187742856Y-81985864D02*
X187647618Y-82033483D01*
X188076189Y-82604912D02*
X187980951Y-82652531D01*
X187980951Y-82652531D02*
X187742856Y-82652531D01*
X187742856Y-82652531D02*
X187647618Y-82604912D01*
X187647618Y-82604912D02*
X187599999Y-82509673D01*
X187599999Y-82509673D02*
X187599999Y-82414435D01*
X187599999Y-82414435D02*
X187647618Y-82319197D01*
X187647618Y-82319197D02*
X187742856Y-82271578D01*
X187742856Y-82271578D02*
X187980951Y-82271578D01*
X187980951Y-82271578D02*
X188076189Y-82223959D01*
X188552380Y-81985864D02*
X188552380Y-82652531D01*
X188552380Y-82081102D02*
X188599999Y-82033483D01*
X188599999Y-82033483D02*
X188695237Y-81985864D01*
X188695237Y-81985864D02*
X188838094Y-81985864D01*
X188838094Y-81985864D02*
X188933332Y-82033483D01*
X188933332Y-82033483D02*
X188980951Y-82128721D01*
X188980951Y-82128721D02*
X188980951Y-82652531D01*
X189457142Y-82652531D02*
X189457142Y-81985864D01*
X189457142Y-81652531D02*
X189409523Y-81700150D01*
X189409523Y-81700150D02*
X189457142Y-81747769D01*
X189457142Y-81747769D02*
X189504761Y-81700150D01*
X189504761Y-81700150D02*
X189457142Y-81652531D01*
X189457142Y-81652531D02*
X189457142Y-81747769D01*
X190361903Y-82604912D02*
X190266665Y-82652531D01*
X190266665Y-82652531D02*
X190076189Y-82652531D01*
X190076189Y-82652531D02*
X189980951Y-82604912D01*
X189980951Y-82604912D02*
X189933332Y-82557292D01*
X189933332Y-82557292D02*
X189885713Y-82462054D01*
X189885713Y-82462054D02*
X189885713Y-82176340D01*
X189885713Y-82176340D02*
X189933332Y-82081102D01*
X189933332Y-82081102D02*
X189980951Y-82033483D01*
X189980951Y-82033483D02*
X190076189Y-81985864D01*
X190076189Y-81985864D02*
X190266665Y-81985864D01*
X190266665Y-81985864D02*
X190361903Y-82033483D01*
X191219046Y-82652531D02*
X191219046Y-82128721D01*
X191219046Y-82128721D02*
X191171427Y-82033483D01*
X191171427Y-82033483D02*
X191076189Y-81985864D01*
X191076189Y-81985864D02*
X190885713Y-81985864D01*
X190885713Y-81985864D02*
X190790475Y-82033483D01*
X191219046Y-82604912D02*
X191123808Y-82652531D01*
X191123808Y-82652531D02*
X190885713Y-82652531D01*
X190885713Y-82652531D02*
X190790475Y-82604912D01*
X190790475Y-82604912D02*
X190742856Y-82509673D01*
X190742856Y-82509673D02*
X190742856Y-82414435D01*
X190742856Y-82414435D02*
X190790475Y-82319197D01*
X190790475Y-82319197D02*
X190885713Y-82271578D01*
X190885713Y-82271578D02*
X191123808Y-82271578D01*
X191123808Y-82271578D02*
X191219046Y-82223959D01*
X191838094Y-82652531D02*
X191742856Y-82604912D01*
X191742856Y-82604912D02*
X191695237Y-82509673D01*
X191695237Y-82509673D02*
X191695237Y-81652531D01*
X192361904Y-82652531D02*
X192266666Y-82604912D01*
X192266666Y-82604912D02*
X192219047Y-82509673D01*
X192219047Y-82509673D02*
X192219047Y-81652531D01*
X192647619Y-81985864D02*
X192885714Y-82652531D01*
X193123809Y-81985864D02*
X192885714Y-82652531D01*
X192885714Y-82652531D02*
X192790476Y-82890626D01*
X192790476Y-82890626D02*
X192742857Y-82938245D01*
X192742857Y-82938245D02*
X192647619Y-82985864D01*
X194266667Y-82652531D02*
X194266667Y-81652531D01*
X194695238Y-82604912D02*
X194790476Y-82652531D01*
X194790476Y-82652531D02*
X194980952Y-82652531D01*
X194980952Y-82652531D02*
X195076190Y-82604912D01*
X195076190Y-82604912D02*
X195123809Y-82509673D01*
X195123809Y-82509673D02*
X195123809Y-82462054D01*
X195123809Y-82462054D02*
X195076190Y-82366816D01*
X195076190Y-82366816D02*
X194980952Y-82319197D01*
X194980952Y-82319197D02*
X194838095Y-82319197D01*
X194838095Y-82319197D02*
X194742857Y-82271578D01*
X194742857Y-82271578D02*
X194695238Y-82176340D01*
X194695238Y-82176340D02*
X194695238Y-82128721D01*
X194695238Y-82128721D02*
X194742857Y-82033483D01*
X194742857Y-82033483D02*
X194838095Y-81985864D01*
X194838095Y-81985864D02*
X194980952Y-81985864D01*
X194980952Y-81985864D02*
X195076190Y-82033483D01*
X195695238Y-82652531D02*
X195600000Y-82604912D01*
X195600000Y-82604912D02*
X195552381Y-82557292D01*
X195552381Y-82557292D02*
X195504762Y-82462054D01*
X195504762Y-82462054D02*
X195504762Y-82176340D01*
X195504762Y-82176340D02*
X195552381Y-82081102D01*
X195552381Y-82081102D02*
X195600000Y-82033483D01*
X195600000Y-82033483D02*
X195695238Y-81985864D01*
X195695238Y-81985864D02*
X195838095Y-81985864D01*
X195838095Y-81985864D02*
X195933333Y-82033483D01*
X195933333Y-82033483D02*
X195980952Y-82081102D01*
X195980952Y-82081102D02*
X196028571Y-82176340D01*
X196028571Y-82176340D02*
X196028571Y-82462054D01*
X196028571Y-82462054D02*
X195980952Y-82557292D01*
X195980952Y-82557292D02*
X195933333Y-82604912D01*
X195933333Y-82604912D02*
X195838095Y-82652531D01*
X195838095Y-82652531D02*
X195695238Y-82652531D01*
X196600000Y-82652531D02*
X196504762Y-82604912D01*
X196504762Y-82604912D02*
X196457143Y-82509673D01*
X196457143Y-82509673D02*
X196457143Y-81652531D01*
X197409524Y-82652531D02*
X197409524Y-82128721D01*
X197409524Y-82128721D02*
X197361905Y-82033483D01*
X197361905Y-82033483D02*
X197266667Y-81985864D01*
X197266667Y-81985864D02*
X197076191Y-81985864D01*
X197076191Y-81985864D02*
X196980953Y-82033483D01*
X197409524Y-82604912D02*
X197314286Y-82652531D01*
X197314286Y-82652531D02*
X197076191Y-82652531D01*
X197076191Y-82652531D02*
X196980953Y-82604912D01*
X196980953Y-82604912D02*
X196933334Y-82509673D01*
X196933334Y-82509673D02*
X196933334Y-82414435D01*
X196933334Y-82414435D02*
X196980953Y-82319197D01*
X196980953Y-82319197D02*
X197076191Y-82271578D01*
X197076191Y-82271578D02*
X197314286Y-82271578D01*
X197314286Y-82271578D02*
X197409524Y-82223959D01*
X197742858Y-81985864D02*
X198123810Y-81985864D01*
X197885715Y-81652531D02*
X197885715Y-82509673D01*
X197885715Y-82509673D02*
X197933334Y-82604912D01*
X197933334Y-82604912D02*
X198028572Y-82652531D01*
X198028572Y-82652531D02*
X198123810Y-82652531D01*
X198838096Y-82604912D02*
X198742858Y-82652531D01*
X198742858Y-82652531D02*
X198552382Y-82652531D01*
X198552382Y-82652531D02*
X198457144Y-82604912D01*
X198457144Y-82604912D02*
X198409525Y-82509673D01*
X198409525Y-82509673D02*
X198409525Y-82128721D01*
X198409525Y-82128721D02*
X198457144Y-82033483D01*
X198457144Y-82033483D02*
X198552382Y-81985864D01*
X198552382Y-81985864D02*
X198742858Y-81985864D01*
X198742858Y-81985864D02*
X198838096Y-82033483D01*
X198838096Y-82033483D02*
X198885715Y-82128721D01*
X198885715Y-82128721D02*
X198885715Y-82223959D01*
X198885715Y-82223959D02*
X198409525Y-82319197D01*
X199742858Y-82652531D02*
X199742858Y-81652531D01*
X199742858Y-82604912D02*
X199647620Y-82652531D01*
X199647620Y-82652531D02*
X199457144Y-82652531D01*
X199457144Y-82652531D02*
X199361906Y-82604912D01*
X199361906Y-82604912D02*
X199314287Y-82557292D01*
X199314287Y-82557292D02*
X199266668Y-82462054D01*
X199266668Y-82462054D02*
X199266668Y-82176340D01*
X199266668Y-82176340D02*
X199314287Y-82081102D01*
X199314287Y-82081102D02*
X199361906Y-82033483D01*
X199361906Y-82033483D02*
X199457144Y-81985864D01*
X199457144Y-81985864D02*
X199647620Y-81985864D01*
X199647620Y-81985864D02*
X199742858Y-82033483D01*
X184790475Y-84262475D02*
X184790475Y-83262475D01*
X184790475Y-83262475D02*
X185028570Y-83262475D01*
X185028570Y-83262475D02*
X185171427Y-83310094D01*
X185171427Y-83310094D02*
X185266665Y-83405332D01*
X185266665Y-83405332D02*
X185314284Y-83500570D01*
X185314284Y-83500570D02*
X185361903Y-83691046D01*
X185361903Y-83691046D02*
X185361903Y-83833903D01*
X185361903Y-83833903D02*
X185314284Y-84024379D01*
X185314284Y-84024379D02*
X185266665Y-84119617D01*
X185266665Y-84119617D02*
X185171427Y-84214856D01*
X185171427Y-84214856D02*
X185028570Y-84262475D01*
X185028570Y-84262475D02*
X184790475Y-84262475D01*
X185790475Y-84262475D02*
X185790475Y-83595808D01*
X185790475Y-83262475D02*
X185742856Y-83310094D01*
X185742856Y-83310094D02*
X185790475Y-83357713D01*
X185790475Y-83357713D02*
X185838094Y-83310094D01*
X185838094Y-83310094D02*
X185790475Y-83262475D01*
X185790475Y-83262475D02*
X185790475Y-83357713D01*
X186695236Y-83595808D02*
X186695236Y-84405332D01*
X186695236Y-84405332D02*
X186647617Y-84500570D01*
X186647617Y-84500570D02*
X186599998Y-84548189D01*
X186599998Y-84548189D02*
X186504760Y-84595808D01*
X186504760Y-84595808D02*
X186361903Y-84595808D01*
X186361903Y-84595808D02*
X186266665Y-84548189D01*
X186695236Y-84214856D02*
X186599998Y-84262475D01*
X186599998Y-84262475D02*
X186409522Y-84262475D01*
X186409522Y-84262475D02*
X186314284Y-84214856D01*
X186314284Y-84214856D02*
X186266665Y-84167236D01*
X186266665Y-84167236D02*
X186219046Y-84071998D01*
X186219046Y-84071998D02*
X186219046Y-83786284D01*
X186219046Y-83786284D02*
X186266665Y-83691046D01*
X186266665Y-83691046D02*
X186314284Y-83643427D01*
X186314284Y-83643427D02*
X186409522Y-83595808D01*
X186409522Y-83595808D02*
X186599998Y-83595808D01*
X186599998Y-83595808D02*
X186695236Y-83643427D01*
X187171427Y-84262475D02*
X187171427Y-83595808D01*
X187171427Y-83262475D02*
X187123808Y-83310094D01*
X187123808Y-83310094D02*
X187171427Y-83357713D01*
X187171427Y-83357713D02*
X187219046Y-83310094D01*
X187219046Y-83310094D02*
X187171427Y-83262475D01*
X187171427Y-83262475D02*
X187171427Y-83357713D01*
X187504760Y-83595808D02*
X187885712Y-83595808D01*
X187647617Y-83262475D02*
X187647617Y-84119617D01*
X187647617Y-84119617D02*
X187695236Y-84214856D01*
X187695236Y-84214856D02*
X187790474Y-84262475D01*
X187790474Y-84262475D02*
X187885712Y-84262475D01*
X188647617Y-84262475D02*
X188647617Y-83738665D01*
X188647617Y-83738665D02*
X188599998Y-83643427D01*
X188599998Y-83643427D02*
X188504760Y-83595808D01*
X188504760Y-83595808D02*
X188314284Y-83595808D01*
X188314284Y-83595808D02*
X188219046Y-83643427D01*
X188647617Y-84214856D02*
X188552379Y-84262475D01*
X188552379Y-84262475D02*
X188314284Y-84262475D01*
X188314284Y-84262475D02*
X188219046Y-84214856D01*
X188219046Y-84214856D02*
X188171427Y-84119617D01*
X188171427Y-84119617D02*
X188171427Y-84024379D01*
X188171427Y-84024379D02*
X188219046Y-83929141D01*
X188219046Y-83929141D02*
X188314284Y-83881522D01*
X188314284Y-83881522D02*
X188552379Y-83881522D01*
X188552379Y-83881522D02*
X188647617Y-83833903D01*
X189266665Y-84262475D02*
X189171427Y-84214856D01*
X189171427Y-84214856D02*
X189123808Y-84119617D01*
X189123808Y-84119617D02*
X189123808Y-83262475D01*
X190599999Y-83262475D02*
X190790475Y-83262475D01*
X190790475Y-83262475D02*
X190885713Y-83310094D01*
X190885713Y-83310094D02*
X190980951Y-83405332D01*
X190980951Y-83405332D02*
X191028570Y-83595808D01*
X191028570Y-83595808D02*
X191028570Y-83929141D01*
X191028570Y-83929141D02*
X190980951Y-84119617D01*
X190980951Y-84119617D02*
X190885713Y-84214856D01*
X190885713Y-84214856D02*
X190790475Y-84262475D01*
X190790475Y-84262475D02*
X190599999Y-84262475D01*
X190599999Y-84262475D02*
X190504761Y-84214856D01*
X190504761Y-84214856D02*
X190409523Y-84119617D01*
X190409523Y-84119617D02*
X190361904Y-83929141D01*
X190361904Y-83929141D02*
X190361904Y-83595808D01*
X190361904Y-83595808D02*
X190409523Y-83405332D01*
X190409523Y-83405332D02*
X190504761Y-83310094D01*
X190504761Y-83310094D02*
X190599999Y-83262475D01*
X191409523Y-84214856D02*
X191504761Y-84262475D01*
X191504761Y-84262475D02*
X191695237Y-84262475D01*
X191695237Y-84262475D02*
X191790475Y-84214856D01*
X191790475Y-84214856D02*
X191838094Y-84119617D01*
X191838094Y-84119617D02*
X191838094Y-84071998D01*
X191838094Y-84071998D02*
X191790475Y-83976760D01*
X191790475Y-83976760D02*
X191695237Y-83929141D01*
X191695237Y-83929141D02*
X191552380Y-83929141D01*
X191552380Y-83929141D02*
X191457142Y-83881522D01*
X191457142Y-83881522D02*
X191409523Y-83786284D01*
X191409523Y-83786284D02*
X191409523Y-83738665D01*
X191409523Y-83738665D02*
X191457142Y-83643427D01*
X191457142Y-83643427D02*
X191552380Y-83595808D01*
X191552380Y-83595808D02*
X191695237Y-83595808D01*
X191695237Y-83595808D02*
X191790475Y-83643427D01*
X192695237Y-84214856D02*
X192599999Y-84262475D01*
X192599999Y-84262475D02*
X192409523Y-84262475D01*
X192409523Y-84262475D02*
X192314285Y-84214856D01*
X192314285Y-84214856D02*
X192266666Y-84167236D01*
X192266666Y-84167236D02*
X192219047Y-84071998D01*
X192219047Y-84071998D02*
X192219047Y-83786284D01*
X192219047Y-83786284D02*
X192266666Y-83691046D01*
X192266666Y-83691046D02*
X192314285Y-83643427D01*
X192314285Y-83643427D02*
X192409523Y-83595808D01*
X192409523Y-83595808D02*
X192599999Y-83595808D01*
X192599999Y-83595808D02*
X192695237Y-83643427D01*
X193123809Y-84262475D02*
X193123809Y-83595808D01*
X193123809Y-83262475D02*
X193076190Y-83310094D01*
X193076190Y-83310094D02*
X193123809Y-83357713D01*
X193123809Y-83357713D02*
X193171428Y-83310094D01*
X193171428Y-83310094D02*
X193123809Y-83262475D01*
X193123809Y-83262475D02*
X193123809Y-83357713D01*
X193742856Y-84262475D02*
X193647618Y-84214856D01*
X193647618Y-84214856D02*
X193599999Y-84119617D01*
X193599999Y-84119617D02*
X193599999Y-83262475D01*
X194266666Y-84262475D02*
X194171428Y-84214856D01*
X194171428Y-84214856D02*
X194123809Y-84119617D01*
X194123809Y-84119617D02*
X194123809Y-83262475D01*
X194790476Y-84262475D02*
X194695238Y-84214856D01*
X194695238Y-84214856D02*
X194647619Y-84167236D01*
X194647619Y-84167236D02*
X194600000Y-84071998D01*
X194600000Y-84071998D02*
X194600000Y-83786284D01*
X194600000Y-83786284D02*
X194647619Y-83691046D01*
X194647619Y-83691046D02*
X194695238Y-83643427D01*
X194695238Y-83643427D02*
X194790476Y-83595808D01*
X194790476Y-83595808D02*
X194933333Y-83595808D01*
X194933333Y-83595808D02*
X195028571Y-83643427D01*
X195028571Y-83643427D02*
X195076190Y-83691046D01*
X195076190Y-83691046D02*
X195123809Y-83786284D01*
X195123809Y-83786284D02*
X195123809Y-84071998D01*
X195123809Y-84071998D02*
X195076190Y-84167236D01*
X195076190Y-84167236D02*
X195028571Y-84214856D01*
X195028571Y-84214856D02*
X194933333Y-84262475D01*
X194933333Y-84262475D02*
X194790476Y-84262475D01*
X195504762Y-84214856D02*
X195600000Y-84262475D01*
X195600000Y-84262475D02*
X195790476Y-84262475D01*
X195790476Y-84262475D02*
X195885714Y-84214856D01*
X195885714Y-84214856D02*
X195933333Y-84119617D01*
X195933333Y-84119617D02*
X195933333Y-84071998D01*
X195933333Y-84071998D02*
X195885714Y-83976760D01*
X195885714Y-83976760D02*
X195790476Y-83929141D01*
X195790476Y-83929141D02*
X195647619Y-83929141D01*
X195647619Y-83929141D02*
X195552381Y-83881522D01*
X195552381Y-83881522D02*
X195504762Y-83786284D01*
X195504762Y-83786284D02*
X195504762Y-83738665D01*
X195504762Y-83738665D02*
X195552381Y-83643427D01*
X195552381Y-83643427D02*
X195647619Y-83595808D01*
X195647619Y-83595808D02*
X195790476Y-83595808D01*
X195790476Y-83595808D02*
X195885714Y-83643427D01*
X196790476Y-84214856D02*
X196695238Y-84262475D01*
X196695238Y-84262475D02*
X196504762Y-84262475D01*
X196504762Y-84262475D02*
X196409524Y-84214856D01*
X196409524Y-84214856D02*
X196361905Y-84167236D01*
X196361905Y-84167236D02*
X196314286Y-84071998D01*
X196314286Y-84071998D02*
X196314286Y-83786284D01*
X196314286Y-83786284D02*
X196361905Y-83691046D01*
X196361905Y-83691046D02*
X196409524Y-83643427D01*
X196409524Y-83643427D02*
X196504762Y-83595808D01*
X196504762Y-83595808D02*
X196695238Y-83595808D01*
X196695238Y-83595808D02*
X196790476Y-83643427D01*
X197361905Y-84262475D02*
X197266667Y-84214856D01*
X197266667Y-84214856D02*
X197219048Y-84167236D01*
X197219048Y-84167236D02*
X197171429Y-84071998D01*
X197171429Y-84071998D02*
X197171429Y-83786284D01*
X197171429Y-83786284D02*
X197219048Y-83691046D01*
X197219048Y-83691046D02*
X197266667Y-83643427D01*
X197266667Y-83643427D02*
X197361905Y-83595808D01*
X197361905Y-83595808D02*
X197504762Y-83595808D01*
X197504762Y-83595808D02*
X197600000Y-83643427D01*
X197600000Y-83643427D02*
X197647619Y-83691046D01*
X197647619Y-83691046D02*
X197695238Y-83786284D01*
X197695238Y-83786284D02*
X197695238Y-84071998D01*
X197695238Y-84071998D02*
X197647619Y-84167236D01*
X197647619Y-84167236D02*
X197600000Y-84214856D01*
X197600000Y-84214856D02*
X197504762Y-84262475D01*
X197504762Y-84262475D02*
X197361905Y-84262475D01*
X198123810Y-83595808D02*
X198123810Y-84595808D01*
X198123810Y-83643427D02*
X198219048Y-83595808D01*
X198219048Y-83595808D02*
X198409524Y-83595808D01*
X198409524Y-83595808D02*
X198504762Y-83643427D01*
X198504762Y-83643427D02*
X198552381Y-83691046D01*
X198552381Y-83691046D02*
X198600000Y-83786284D01*
X198600000Y-83786284D02*
X198600000Y-84071998D01*
X198600000Y-84071998D02*
X198552381Y-84167236D01*
X198552381Y-84167236D02*
X198504762Y-84214856D01*
X198504762Y-84214856D02*
X198409524Y-84262475D01*
X198409524Y-84262475D02*
X198219048Y-84262475D01*
X198219048Y-84262475D02*
X198123810Y-84214856D01*
X199409524Y-84214856D02*
X199314286Y-84262475D01*
X199314286Y-84262475D02*
X199123810Y-84262475D01*
X199123810Y-84262475D02*
X199028572Y-84214856D01*
X199028572Y-84214856D02*
X198980953Y-84119617D01*
X198980953Y-84119617D02*
X198980953Y-83738665D01*
X198980953Y-83738665D02*
X199028572Y-83643427D01*
X199028572Y-83643427D02*
X199123810Y-83595808D01*
X199123810Y-83595808D02*
X199314286Y-83595808D01*
X199314286Y-83595808D02*
X199409524Y-83643427D01*
X199409524Y-83643427D02*
X199457143Y-83738665D01*
X199457143Y-83738665D02*
X199457143Y-83833903D01*
X199457143Y-83833903D02*
X198980953Y-83929141D01*
X190028571Y-85872419D02*
X189695238Y-85396228D01*
X189457143Y-85872419D02*
X189457143Y-84872419D01*
X189457143Y-84872419D02*
X189838095Y-84872419D01*
X189838095Y-84872419D02*
X189933333Y-84920038D01*
X189933333Y-84920038D02*
X189980952Y-84967657D01*
X189980952Y-84967657D02*
X190028571Y-85062895D01*
X190028571Y-85062895D02*
X190028571Y-85205752D01*
X190028571Y-85205752D02*
X189980952Y-85300990D01*
X189980952Y-85300990D02*
X189933333Y-85348609D01*
X189933333Y-85348609D02*
X189838095Y-85396228D01*
X189838095Y-85396228D02*
X189457143Y-85396228D01*
X190838095Y-85824800D02*
X190742857Y-85872419D01*
X190742857Y-85872419D02*
X190552381Y-85872419D01*
X190552381Y-85872419D02*
X190457143Y-85824800D01*
X190457143Y-85824800D02*
X190409524Y-85729561D01*
X190409524Y-85729561D02*
X190409524Y-85348609D01*
X190409524Y-85348609D02*
X190457143Y-85253371D01*
X190457143Y-85253371D02*
X190552381Y-85205752D01*
X190552381Y-85205752D02*
X190742857Y-85205752D01*
X190742857Y-85205752D02*
X190838095Y-85253371D01*
X190838095Y-85253371D02*
X190885714Y-85348609D01*
X190885714Y-85348609D02*
X190885714Y-85443847D01*
X190885714Y-85443847D02*
X190409524Y-85539085D01*
X191219048Y-85205752D02*
X191457143Y-85872419D01*
X191457143Y-85872419D02*
X191695238Y-85205752D01*
X193028572Y-84872419D02*
X193123810Y-84872419D01*
X193123810Y-84872419D02*
X193219048Y-84920038D01*
X193219048Y-84920038D02*
X193266667Y-84967657D01*
X193266667Y-84967657D02*
X193314286Y-85062895D01*
X193314286Y-85062895D02*
X193361905Y-85253371D01*
X193361905Y-85253371D02*
X193361905Y-85491466D01*
X193361905Y-85491466D02*
X193314286Y-85681942D01*
X193314286Y-85681942D02*
X193266667Y-85777180D01*
X193266667Y-85777180D02*
X193219048Y-85824800D01*
X193219048Y-85824800D02*
X193123810Y-85872419D01*
X193123810Y-85872419D02*
X193028572Y-85872419D01*
X193028572Y-85872419D02*
X192933334Y-85824800D01*
X192933334Y-85824800D02*
X192885715Y-85777180D01*
X192885715Y-85777180D02*
X192838096Y-85681942D01*
X192838096Y-85681942D02*
X192790477Y-85491466D01*
X192790477Y-85491466D02*
X192790477Y-85253371D01*
X192790477Y-85253371D02*
X192838096Y-85062895D01*
X192838096Y-85062895D02*
X192885715Y-84967657D01*
X192885715Y-84967657D02*
X192933334Y-84920038D01*
X192933334Y-84920038D02*
X193028572Y-84872419D01*
X193790477Y-85777180D02*
X193838096Y-85824800D01*
X193838096Y-85824800D02*
X193790477Y-85872419D01*
X193790477Y-85872419D02*
X193742858Y-85824800D01*
X193742858Y-85824800D02*
X193790477Y-85777180D01*
X193790477Y-85777180D02*
X193790477Y-85872419D01*
X194457143Y-84872419D02*
X194552381Y-84872419D01*
X194552381Y-84872419D02*
X194647619Y-84920038D01*
X194647619Y-84920038D02*
X194695238Y-84967657D01*
X194695238Y-84967657D02*
X194742857Y-85062895D01*
X194742857Y-85062895D02*
X194790476Y-85253371D01*
X194790476Y-85253371D02*
X194790476Y-85491466D01*
X194790476Y-85491466D02*
X194742857Y-85681942D01*
X194742857Y-85681942D02*
X194695238Y-85777180D01*
X194695238Y-85777180D02*
X194647619Y-85824800D01*
X194647619Y-85824800D02*
X194552381Y-85872419D01*
X194552381Y-85872419D02*
X194457143Y-85872419D01*
X194457143Y-85872419D02*
X194361905Y-85824800D01*
X194361905Y-85824800D02*
X194314286Y-85777180D01*
X194314286Y-85777180D02*
X194266667Y-85681942D01*
X194266667Y-85681942D02*
X194219048Y-85491466D01*
X194219048Y-85491466D02*
X194219048Y-85253371D01*
X194219048Y-85253371D02*
X194266667Y-85062895D01*
X194266667Y-85062895D02*
X194314286Y-84967657D01*
X194314286Y-84967657D02*
X194361905Y-84920038D01*
X194361905Y-84920038D02*
X194457143Y-84872419D01*
X163503884Y-41672419D02*
X163503884Y-40672419D01*
X163503884Y-40672419D02*
X163741979Y-40672419D01*
X163741979Y-40672419D02*
X163884836Y-40720038D01*
X163884836Y-40720038D02*
X163980074Y-40815276D01*
X163980074Y-40815276D02*
X164027693Y-40910514D01*
X164027693Y-40910514D02*
X164075312Y-41100990D01*
X164075312Y-41100990D02*
X164075312Y-41243847D01*
X164075312Y-41243847D02*
X164027693Y-41434323D01*
X164027693Y-41434323D02*
X163980074Y-41529561D01*
X163980074Y-41529561D02*
X163884836Y-41624800D01*
X163884836Y-41624800D02*
X163741979Y-41672419D01*
X163741979Y-41672419D02*
X163503884Y-41672419D01*
X164503884Y-41672419D02*
X164503884Y-41005752D01*
X164503884Y-40672419D02*
X164456265Y-40720038D01*
X164456265Y-40720038D02*
X164503884Y-40767657D01*
X164503884Y-40767657D02*
X164551503Y-40720038D01*
X164551503Y-40720038D02*
X164503884Y-40672419D01*
X164503884Y-40672419D02*
X164503884Y-40767657D01*
X165408645Y-41005752D02*
X165408645Y-41815276D01*
X165408645Y-41815276D02*
X165361026Y-41910514D01*
X165361026Y-41910514D02*
X165313407Y-41958133D01*
X165313407Y-41958133D02*
X165218169Y-42005752D01*
X165218169Y-42005752D02*
X165075312Y-42005752D01*
X165075312Y-42005752D02*
X164980074Y-41958133D01*
X165408645Y-41624800D02*
X165313407Y-41672419D01*
X165313407Y-41672419D02*
X165122931Y-41672419D01*
X165122931Y-41672419D02*
X165027693Y-41624800D01*
X165027693Y-41624800D02*
X164980074Y-41577180D01*
X164980074Y-41577180D02*
X164932455Y-41481942D01*
X164932455Y-41481942D02*
X164932455Y-41196228D01*
X164932455Y-41196228D02*
X164980074Y-41100990D01*
X164980074Y-41100990D02*
X165027693Y-41053371D01*
X165027693Y-41053371D02*
X165122931Y-41005752D01*
X165122931Y-41005752D02*
X165313407Y-41005752D01*
X165313407Y-41005752D02*
X165408645Y-41053371D01*
X165884836Y-41672419D02*
X165884836Y-41005752D01*
X165884836Y-40672419D02*
X165837217Y-40720038D01*
X165837217Y-40720038D02*
X165884836Y-40767657D01*
X165884836Y-40767657D02*
X165932455Y-40720038D01*
X165932455Y-40720038D02*
X165884836Y-40672419D01*
X165884836Y-40672419D02*
X165884836Y-40767657D01*
X166218169Y-41005752D02*
X166599121Y-41005752D01*
X166361026Y-40672419D02*
X166361026Y-41529561D01*
X166361026Y-41529561D02*
X166408645Y-41624800D01*
X166408645Y-41624800D02*
X166503883Y-41672419D01*
X166503883Y-41672419D02*
X166599121Y-41672419D01*
X167361026Y-41672419D02*
X167361026Y-41148609D01*
X167361026Y-41148609D02*
X167313407Y-41053371D01*
X167313407Y-41053371D02*
X167218169Y-41005752D01*
X167218169Y-41005752D02*
X167027693Y-41005752D01*
X167027693Y-41005752D02*
X166932455Y-41053371D01*
X167361026Y-41624800D02*
X167265788Y-41672419D01*
X167265788Y-41672419D02*
X167027693Y-41672419D01*
X167027693Y-41672419D02*
X166932455Y-41624800D01*
X166932455Y-41624800D02*
X166884836Y-41529561D01*
X166884836Y-41529561D02*
X166884836Y-41434323D01*
X166884836Y-41434323D02*
X166932455Y-41339085D01*
X166932455Y-41339085D02*
X167027693Y-41291466D01*
X167027693Y-41291466D02*
X167265788Y-41291466D01*
X167265788Y-41291466D02*
X167361026Y-41243847D01*
X167980074Y-41672419D02*
X167884836Y-41624800D01*
X167884836Y-41624800D02*
X167837217Y-41529561D01*
X167837217Y-41529561D02*
X167837217Y-40672419D01*
X156956265Y-41386704D02*
X157432455Y-41386704D01*
X156861027Y-41672419D02*
X157194360Y-40672419D01*
X157194360Y-40672419D02*
X157527693Y-41672419D01*
X157861027Y-41005752D02*
X157861027Y-41672419D01*
X157861027Y-41100990D02*
X157908646Y-41053371D01*
X157908646Y-41053371D02*
X158003884Y-41005752D01*
X158003884Y-41005752D02*
X158146741Y-41005752D01*
X158146741Y-41005752D02*
X158241979Y-41053371D01*
X158241979Y-41053371D02*
X158289598Y-41148609D01*
X158289598Y-41148609D02*
X158289598Y-41672419D01*
X159194360Y-41672419D02*
X159194360Y-41148609D01*
X159194360Y-41148609D02*
X159146741Y-41053371D01*
X159146741Y-41053371D02*
X159051503Y-41005752D01*
X159051503Y-41005752D02*
X158861027Y-41005752D01*
X158861027Y-41005752D02*
X158765789Y-41053371D01*
X159194360Y-41624800D02*
X159099122Y-41672419D01*
X159099122Y-41672419D02*
X158861027Y-41672419D01*
X158861027Y-41672419D02*
X158765789Y-41624800D01*
X158765789Y-41624800D02*
X158718170Y-41529561D01*
X158718170Y-41529561D02*
X158718170Y-41434323D01*
X158718170Y-41434323D02*
X158765789Y-41339085D01*
X158765789Y-41339085D02*
X158861027Y-41291466D01*
X158861027Y-41291466D02*
X159099122Y-41291466D01*
X159099122Y-41291466D02*
X159194360Y-41243847D01*
X159813408Y-41672419D02*
X159718170Y-41624800D01*
X159718170Y-41624800D02*
X159670551Y-41529561D01*
X159670551Y-41529561D02*
X159670551Y-40672419D01*
X160337218Y-41672419D02*
X160241980Y-41624800D01*
X160241980Y-41624800D02*
X160194361Y-41577180D01*
X160194361Y-41577180D02*
X160146742Y-41481942D01*
X160146742Y-41481942D02*
X160146742Y-41196228D01*
X160146742Y-41196228D02*
X160194361Y-41100990D01*
X160194361Y-41100990D02*
X160241980Y-41053371D01*
X160241980Y-41053371D02*
X160337218Y-41005752D01*
X160337218Y-41005752D02*
X160480075Y-41005752D01*
X160480075Y-41005752D02*
X160575313Y-41053371D01*
X160575313Y-41053371D02*
X160622932Y-41100990D01*
X160622932Y-41100990D02*
X160670551Y-41196228D01*
X160670551Y-41196228D02*
X160670551Y-41481942D01*
X160670551Y-41481942D02*
X160622932Y-41577180D01*
X160622932Y-41577180D02*
X160575313Y-41624800D01*
X160575313Y-41624800D02*
X160480075Y-41672419D01*
X160480075Y-41672419D02*
X160337218Y-41672419D01*
X161527694Y-41005752D02*
X161527694Y-41815276D01*
X161527694Y-41815276D02*
X161480075Y-41910514D01*
X161480075Y-41910514D02*
X161432456Y-41958133D01*
X161432456Y-41958133D02*
X161337218Y-42005752D01*
X161337218Y-42005752D02*
X161194361Y-42005752D01*
X161194361Y-42005752D02*
X161099123Y-41958133D01*
X161527694Y-41624800D02*
X161432456Y-41672419D01*
X161432456Y-41672419D02*
X161241980Y-41672419D01*
X161241980Y-41672419D02*
X161146742Y-41624800D01*
X161146742Y-41624800D02*
X161099123Y-41577180D01*
X161099123Y-41577180D02*
X161051504Y-41481942D01*
X161051504Y-41481942D02*
X161051504Y-41196228D01*
X161051504Y-41196228D02*
X161099123Y-41100990D01*
X161099123Y-41100990D02*
X161146742Y-41053371D01*
X161146742Y-41053371D02*
X161241980Y-41005752D01*
X161241980Y-41005752D02*
X161432456Y-41005752D01*
X161432456Y-41005752D02*
X161527694Y-41053371D01*
X162500000Y-40000000D02*
X120000000Y-40000000D01*
X162500000Y-100000000D02*
X162500000Y-40000000D01*
X120000000Y-100000000D02*
X162500000Y-100000000D01*
X153272419Y-104719925D02*
X153272419Y-105196115D01*
X153272419Y-105196115D02*
X153748609Y-105243734D01*
X153748609Y-105243734D02*
X153700990Y-105196115D01*
X153700990Y-105196115D02*
X153653371Y-105100877D01*
X153653371Y-105100877D02*
X153653371Y-104862782D01*
X153653371Y-104862782D02*
X153700990Y-104767544D01*
X153700990Y-104767544D02*
X153748609Y-104719925D01*
X153748609Y-104719925D02*
X153843847Y-104672306D01*
X153843847Y-104672306D02*
X154081942Y-104672306D01*
X154081942Y-104672306D02*
X154177180Y-104719925D01*
X154177180Y-104719925D02*
X154224800Y-104767544D01*
X154224800Y-104767544D02*
X154272419Y-104862782D01*
X154272419Y-104862782D02*
X154272419Y-105100877D01*
X154272419Y-105100877D02*
X154224800Y-105196115D01*
X154224800Y-105196115D02*
X154177180Y-105243734D01*
X153272419Y-104386591D02*
X154272419Y-104053258D01*
X154272419Y-104053258D02*
X153272419Y-103719925D01*
X150720038Y-104872306D02*
X150672419Y-104967544D01*
X150672419Y-104967544D02*
X150672419Y-105110401D01*
X150672419Y-105110401D02*
X150720038Y-105253258D01*
X150720038Y-105253258D02*
X150815276Y-105348496D01*
X150815276Y-105348496D02*
X150910514Y-105396115D01*
X150910514Y-105396115D02*
X151100990Y-105443734D01*
X151100990Y-105443734D02*
X151243847Y-105443734D01*
X151243847Y-105443734D02*
X151434323Y-105396115D01*
X151434323Y-105396115D02*
X151529561Y-105348496D01*
X151529561Y-105348496D02*
X151624800Y-105253258D01*
X151624800Y-105253258D02*
X151672419Y-105110401D01*
X151672419Y-105110401D02*
X151672419Y-105015163D01*
X151672419Y-105015163D02*
X151624800Y-104872306D01*
X151624800Y-104872306D02*
X151577180Y-104824687D01*
X151577180Y-104824687D02*
X151243847Y-104824687D01*
X151243847Y-104824687D02*
X151243847Y-105015163D01*
X151672419Y-104396115D02*
X150672419Y-104396115D01*
X150672419Y-104396115D02*
X151672419Y-103824687D01*
X151672419Y-103824687D02*
X150672419Y-103824687D01*
X151672419Y-103348496D02*
X150672419Y-103348496D01*
X150672419Y-103348496D02*
X150672419Y-103110401D01*
X150672419Y-103110401D02*
X150720038Y-102967544D01*
X150720038Y-102967544D02*
X150815276Y-102872306D01*
X150815276Y-102872306D02*
X150910514Y-102824687D01*
X150910514Y-102824687D02*
X151100990Y-102777068D01*
X151100990Y-102777068D02*
X151243847Y-102777068D01*
X151243847Y-102777068D02*
X151434323Y-102824687D01*
X151434323Y-102824687D02*
X151529561Y-102872306D01*
X151529561Y-102872306D02*
X151624800Y-102967544D01*
X151624800Y-102967544D02*
X151672419Y-103110401D01*
X151672419Y-103110401D02*
X151672419Y-103348496D01*
X148120038Y-104872306D02*
X148072419Y-104967544D01*
X148072419Y-104967544D02*
X148072419Y-105110401D01*
X148072419Y-105110401D02*
X148120038Y-105253258D01*
X148120038Y-105253258D02*
X148215276Y-105348496D01*
X148215276Y-105348496D02*
X148310514Y-105396115D01*
X148310514Y-105396115D02*
X148500990Y-105443734D01*
X148500990Y-105443734D02*
X148643847Y-105443734D01*
X148643847Y-105443734D02*
X148834323Y-105396115D01*
X148834323Y-105396115D02*
X148929561Y-105348496D01*
X148929561Y-105348496D02*
X149024800Y-105253258D01*
X149024800Y-105253258D02*
X149072419Y-105110401D01*
X149072419Y-105110401D02*
X149072419Y-105015163D01*
X149072419Y-105015163D02*
X149024800Y-104872306D01*
X149024800Y-104872306D02*
X148977180Y-104824687D01*
X148977180Y-104824687D02*
X148643847Y-104824687D01*
X148643847Y-104824687D02*
X148643847Y-105015163D01*
X149072419Y-104396115D02*
X148072419Y-104396115D01*
X148072419Y-104396115D02*
X149072419Y-103824687D01*
X149072419Y-103824687D02*
X148072419Y-103824687D01*
X149072419Y-103348496D02*
X148072419Y-103348496D01*
X148072419Y-103348496D02*
X148072419Y-103110401D01*
X148072419Y-103110401D02*
X148120038Y-102967544D01*
X148120038Y-102967544D02*
X148215276Y-102872306D01*
X148215276Y-102872306D02*
X148310514Y-102824687D01*
X148310514Y-102824687D02*
X148500990Y-102777068D01*
X148500990Y-102777068D02*
X148643847Y-102777068D01*
X148643847Y-102777068D02*
X148834323Y-102824687D01*
X148834323Y-102824687D02*
X148929561Y-102872306D01*
X148929561Y-102872306D02*
X149024800Y-102967544D01*
X149024800Y-102967544D02*
X149072419Y-103110401D01*
X149072419Y-103110401D02*
X149072419Y-103348496D01*
X145555271Y-104819924D02*
X145555271Y-105296114D01*
X145555271Y-105296114D02*
X146031461Y-105343733D01*
X146031461Y-105343733D02*
X145983842Y-105296114D01*
X145983842Y-105296114D02*
X145936223Y-105200876D01*
X145936223Y-105200876D02*
X145936223Y-104962781D01*
X145936223Y-104962781D02*
X145983842Y-104867543D01*
X145983842Y-104867543D02*
X146031461Y-104819924D01*
X146031461Y-104819924D02*
X146126699Y-104772305D01*
X146126699Y-104772305D02*
X146364794Y-104772305D01*
X146364794Y-104772305D02*
X146460032Y-104819924D01*
X146460032Y-104819924D02*
X146507652Y-104867543D01*
X146507652Y-104867543D02*
X146555271Y-104962781D01*
X146555271Y-104962781D02*
X146555271Y-105200876D01*
X146555271Y-105200876D02*
X146507652Y-105296114D01*
X146507652Y-105296114D02*
X146460032Y-105343733D01*
X145555271Y-104486590D02*
X146555271Y-104153257D01*
X146555271Y-104153257D02*
X145555271Y-103819924D01*
X143072419Y-104839925D02*
X143072419Y-105316115D01*
X143072419Y-105316115D02*
X143548609Y-105363734D01*
X143548609Y-105363734D02*
X143500990Y-105316115D01*
X143500990Y-105316115D02*
X143453371Y-105220877D01*
X143453371Y-105220877D02*
X143453371Y-104982782D01*
X143453371Y-104982782D02*
X143500990Y-104887544D01*
X143500990Y-104887544D02*
X143548609Y-104839925D01*
X143548609Y-104839925D02*
X143643847Y-104792306D01*
X143643847Y-104792306D02*
X143881942Y-104792306D01*
X143881942Y-104792306D02*
X143977180Y-104839925D01*
X143977180Y-104839925D02*
X144024800Y-104887544D01*
X144024800Y-104887544D02*
X144072419Y-104982782D01*
X144072419Y-104982782D02*
X144072419Y-105220877D01*
X144072419Y-105220877D02*
X144024800Y-105316115D01*
X144024800Y-105316115D02*
X143977180Y-105363734D01*
X143072419Y-104506591D02*
X144072419Y-104173258D01*
X144072419Y-104173258D02*
X143072419Y-103839925D01*
X149071654Y-35468666D02*
X149071654Y-36040094D01*
X149071654Y-35754380D02*
X148071654Y-35754380D01*
X148071654Y-35754380D02*
X148214511Y-35849618D01*
X148214511Y-35849618D02*
X148309749Y-35944856D01*
X148309749Y-35944856D02*
X148357368Y-36040094D01*
X148166892Y-35087713D02*
X148119273Y-35040094D01*
X148119273Y-35040094D02*
X148071654Y-34944856D01*
X148071654Y-34944856D02*
X148071654Y-34706761D01*
X148071654Y-34706761D02*
X148119273Y-34611523D01*
X148119273Y-34611523D02*
X148166892Y-34563904D01*
X148166892Y-34563904D02*
X148262130Y-34516285D01*
X148262130Y-34516285D02*
X148357368Y-34516285D01*
X148357368Y-34516285D02*
X148500225Y-34563904D01*
X148500225Y-34563904D02*
X149071654Y-35135332D01*
X149071654Y-35135332D02*
X149071654Y-34516285D01*
X123972419Y-95610401D02*
X124686704Y-95610401D01*
X124686704Y-95610401D02*
X124829561Y-95658020D01*
X124829561Y-95658020D02*
X124924800Y-95753258D01*
X124924800Y-95753258D02*
X124972419Y-95896115D01*
X124972419Y-95896115D02*
X124972419Y-95991353D01*
X124972419Y-94658020D02*
X124972419Y-95134210D01*
X124972419Y-95134210D02*
X123972419Y-95134210D01*
X124877180Y-93753258D02*
X124924800Y-93800877D01*
X124924800Y-93800877D02*
X124972419Y-93943734D01*
X124972419Y-93943734D02*
X124972419Y-94038972D01*
X124972419Y-94038972D02*
X124924800Y-94181829D01*
X124924800Y-94181829D02*
X124829561Y-94277067D01*
X124829561Y-94277067D02*
X124734323Y-94324686D01*
X124734323Y-94324686D02*
X124543847Y-94372305D01*
X124543847Y-94372305D02*
X124400990Y-94372305D01*
X124400990Y-94372305D02*
X124210514Y-94324686D01*
X124210514Y-94324686D02*
X124115276Y-94277067D01*
X124115276Y-94277067D02*
X124020038Y-94181829D01*
X124020038Y-94181829D02*
X123972419Y-94038972D01*
X123972419Y-94038972D02*
X123972419Y-93943734D01*
X123972419Y-93943734D02*
X124020038Y-93800877D01*
X124020038Y-93800877D02*
X124067657Y-93753258D01*
X123972419Y-93038972D02*
X124686704Y-93038972D01*
X124686704Y-93038972D02*
X124829561Y-93086591D01*
X124829561Y-93086591D02*
X124924800Y-93181829D01*
X124924800Y-93181829D02*
X124972419Y-93324686D01*
X124972419Y-93324686D02*
X124972419Y-93419924D01*
X124972419Y-92086591D02*
X124972419Y-92562781D01*
X124972419Y-92562781D02*
X123972419Y-92562781D01*
X124877180Y-91181829D02*
X124924800Y-91229448D01*
X124924800Y-91229448D02*
X124972419Y-91372305D01*
X124972419Y-91372305D02*
X124972419Y-91467543D01*
X124972419Y-91467543D02*
X124924800Y-91610400D01*
X124924800Y-91610400D02*
X124829561Y-91705638D01*
X124829561Y-91705638D02*
X124734323Y-91753257D01*
X124734323Y-91753257D02*
X124543847Y-91800876D01*
X124543847Y-91800876D02*
X124400990Y-91800876D01*
X124400990Y-91800876D02*
X124210514Y-91753257D01*
X124210514Y-91753257D02*
X124115276Y-91705638D01*
X124115276Y-91705638D02*
X124020038Y-91610400D01*
X124020038Y-91610400D02*
X123972419Y-91467543D01*
X123972419Y-91467543D02*
X123972419Y-91372305D01*
X123972419Y-91372305D02*
X124020038Y-91229448D01*
X124020038Y-91229448D02*
X124067657Y-91181829D01*
X123972419Y-90467543D02*
X124686704Y-90467543D01*
X124686704Y-90467543D02*
X124829561Y-90515162D01*
X124829561Y-90515162D02*
X124924800Y-90610400D01*
X124924800Y-90610400D02*
X124972419Y-90753257D01*
X124972419Y-90753257D02*
X124972419Y-90848495D01*
X124972419Y-89515162D02*
X124972419Y-89991352D01*
X124972419Y-89991352D02*
X123972419Y-89991352D01*
X124877180Y-88610400D02*
X124924800Y-88658019D01*
X124924800Y-88658019D02*
X124972419Y-88800876D01*
X124972419Y-88800876D02*
X124972419Y-88896114D01*
X124972419Y-88896114D02*
X124924800Y-89038971D01*
X124924800Y-89038971D02*
X124829561Y-89134209D01*
X124829561Y-89134209D02*
X124734323Y-89181828D01*
X124734323Y-89181828D02*
X124543847Y-89229447D01*
X124543847Y-89229447D02*
X124400990Y-89229447D01*
X124400990Y-89229447D02*
X124210514Y-89181828D01*
X124210514Y-89181828D02*
X124115276Y-89134209D01*
X124115276Y-89134209D02*
X124020038Y-89038971D01*
X124020038Y-89038971D02*
X123972419Y-88896114D01*
X123972419Y-88896114D02*
X123972419Y-88800876D01*
X123972419Y-88800876D02*
X124020038Y-88658019D01*
X124020038Y-88658019D02*
X124067657Y-88610400D01*
X123972419Y-87896114D02*
X124686704Y-87896114D01*
X124686704Y-87896114D02*
X124829561Y-87943733D01*
X124829561Y-87943733D02*
X124924800Y-88038971D01*
X124924800Y-88038971D02*
X124972419Y-88181828D01*
X124972419Y-88181828D02*
X124972419Y-88277066D01*
X124972419Y-86943733D02*
X124972419Y-87419923D01*
X124972419Y-87419923D02*
X123972419Y-87419923D01*
X124877180Y-86038971D02*
X124924800Y-86086590D01*
X124924800Y-86086590D02*
X124972419Y-86229447D01*
X124972419Y-86229447D02*
X124972419Y-86324685D01*
X124972419Y-86324685D02*
X124924800Y-86467542D01*
X124924800Y-86467542D02*
X124829561Y-86562780D01*
X124829561Y-86562780D02*
X124734323Y-86610399D01*
X124734323Y-86610399D02*
X124543847Y-86658018D01*
X124543847Y-86658018D02*
X124400990Y-86658018D01*
X124400990Y-86658018D02*
X124210514Y-86610399D01*
X124210514Y-86610399D02*
X124115276Y-86562780D01*
X124115276Y-86562780D02*
X124020038Y-86467542D01*
X124020038Y-86467542D02*
X123972419Y-86324685D01*
X123972419Y-86324685D02*
X123972419Y-86229447D01*
X123972419Y-86229447D02*
X124020038Y-86086590D01*
X124020038Y-86086590D02*
X124067657Y-86038971D01*
X205887694Y-36043734D02*
X205840075Y-35996115D01*
X205840075Y-35996115D02*
X205792456Y-35900877D01*
X205792456Y-35900877D02*
X205792456Y-35662782D01*
X205792456Y-35662782D02*
X205840075Y-35567544D01*
X205840075Y-35567544D02*
X205887694Y-35519925D01*
X205887694Y-35519925D02*
X205982932Y-35472306D01*
X205982932Y-35472306D02*
X206078170Y-35472306D01*
X206078170Y-35472306D02*
X206221027Y-35519925D01*
X206221027Y-35519925D02*
X206792456Y-36091353D01*
X206792456Y-36091353D02*
X206792456Y-35472306D01*
X206792456Y-34519925D02*
X206792456Y-35091353D01*
X206792456Y-34805639D02*
X205792456Y-34805639D01*
X205792456Y-34805639D02*
X205935313Y-34900877D01*
X205935313Y-34900877D02*
X206030551Y-34996115D01*
X206030551Y-34996115D02*
X206078170Y-35091353D01*
X203333065Y-36043734D02*
X203285446Y-35996115D01*
X203285446Y-35996115D02*
X203237827Y-35900877D01*
X203237827Y-35900877D02*
X203237827Y-35662782D01*
X203237827Y-35662782D02*
X203285446Y-35567544D01*
X203285446Y-35567544D02*
X203333065Y-35519925D01*
X203333065Y-35519925D02*
X203428303Y-35472306D01*
X203428303Y-35472306D02*
X203523541Y-35472306D01*
X203523541Y-35472306D02*
X203666398Y-35519925D01*
X203666398Y-35519925D02*
X204237827Y-36091353D01*
X204237827Y-36091353D02*
X204237827Y-35472306D01*
X203237827Y-34853258D02*
X203237827Y-34758020D01*
X203237827Y-34758020D02*
X203285446Y-34662782D01*
X203285446Y-34662782D02*
X203333065Y-34615163D01*
X203333065Y-34615163D02*
X203428303Y-34567544D01*
X203428303Y-34567544D02*
X203618779Y-34519925D01*
X203618779Y-34519925D02*
X203856874Y-34519925D01*
X203856874Y-34519925D02*
X204047350Y-34567544D01*
X204047350Y-34567544D02*
X204142588Y-34615163D01*
X204142588Y-34615163D02*
X204190208Y-34662782D01*
X204190208Y-34662782D02*
X204237827Y-34758020D01*
X204237827Y-34758020D02*
X204237827Y-34853258D01*
X204237827Y-34853258D02*
X204190208Y-34948496D01*
X204190208Y-34948496D02*
X204142588Y-34996115D01*
X204142588Y-34996115D02*
X204047350Y-35043734D01*
X204047350Y-35043734D02*
X203856874Y-35091353D01*
X203856874Y-35091353D02*
X203618779Y-35091353D01*
X203618779Y-35091353D02*
X203428303Y-35043734D01*
X203428303Y-35043734D02*
X203333065Y-34996115D01*
X203333065Y-34996115D02*
X203285446Y-34948496D01*
X203285446Y-34948496D02*
X203237827Y-34853258D01*
X201766050Y-35472306D02*
X201766050Y-36043734D01*
X201766050Y-35758020D02*
X200766050Y-35758020D01*
X200766050Y-35758020D02*
X200908907Y-35853258D01*
X200908907Y-35853258D02*
X201004145Y-35948496D01*
X201004145Y-35948496D02*
X201051764Y-36043734D01*
X201766050Y-34996115D02*
X201766050Y-34805639D01*
X201766050Y-34805639D02*
X201718431Y-34710401D01*
X201718431Y-34710401D02*
X201670811Y-34662782D01*
X201670811Y-34662782D02*
X201527954Y-34567544D01*
X201527954Y-34567544D02*
X201337478Y-34519925D01*
X201337478Y-34519925D02*
X200956526Y-34519925D01*
X200956526Y-34519925D02*
X200861288Y-34567544D01*
X200861288Y-34567544D02*
X200813669Y-34615163D01*
X200813669Y-34615163D02*
X200766050Y-34710401D01*
X200766050Y-34710401D02*
X200766050Y-34900877D01*
X200766050Y-34900877D02*
X200813669Y-34996115D01*
X200813669Y-34996115D02*
X200861288Y-35043734D01*
X200861288Y-35043734D02*
X200956526Y-35091353D01*
X200956526Y-35091353D02*
X201194621Y-35091353D01*
X201194621Y-35091353D02*
X201289859Y-35043734D01*
X201289859Y-35043734D02*
X201337478Y-34996115D01*
X201337478Y-34996115D02*
X201385097Y-34900877D01*
X201385097Y-34900877D02*
X201385097Y-34710401D01*
X201385097Y-34710401D02*
X201337478Y-34615163D01*
X201337478Y-34615163D02*
X201289859Y-34567544D01*
X201289859Y-34567544D02*
X201194621Y-34519925D01*
X199236156Y-35472306D02*
X199236156Y-36043734D01*
X199236156Y-35758020D02*
X198236156Y-35758020D01*
X198236156Y-35758020D02*
X198379013Y-35853258D01*
X198379013Y-35853258D02*
X198474251Y-35948496D01*
X198474251Y-35948496D02*
X198521870Y-36043734D01*
X198664727Y-34900877D02*
X198617108Y-34996115D01*
X198617108Y-34996115D02*
X198569489Y-35043734D01*
X198569489Y-35043734D02*
X198474251Y-35091353D01*
X198474251Y-35091353D02*
X198426632Y-35091353D01*
X198426632Y-35091353D02*
X198331394Y-35043734D01*
X198331394Y-35043734D02*
X198283775Y-34996115D01*
X198283775Y-34996115D02*
X198236156Y-34900877D01*
X198236156Y-34900877D02*
X198236156Y-34710401D01*
X198236156Y-34710401D02*
X198283775Y-34615163D01*
X198283775Y-34615163D02*
X198331394Y-34567544D01*
X198331394Y-34567544D02*
X198426632Y-34519925D01*
X198426632Y-34519925D02*
X198474251Y-34519925D01*
X198474251Y-34519925D02*
X198569489Y-34567544D01*
X198569489Y-34567544D02*
X198617108Y-34615163D01*
X198617108Y-34615163D02*
X198664727Y-34710401D01*
X198664727Y-34710401D02*
X198664727Y-34900877D01*
X198664727Y-34900877D02*
X198712346Y-34996115D01*
X198712346Y-34996115D02*
X198759965Y-35043734D01*
X198759965Y-35043734D02*
X198855203Y-35091353D01*
X198855203Y-35091353D02*
X199045679Y-35091353D01*
X199045679Y-35091353D02*
X199140917Y-35043734D01*
X199140917Y-35043734D02*
X199188537Y-34996115D01*
X199188537Y-34996115D02*
X199236156Y-34900877D01*
X199236156Y-34900877D02*
X199236156Y-34710401D01*
X199236156Y-34710401D02*
X199188537Y-34615163D01*
X199188537Y-34615163D02*
X199140917Y-34567544D01*
X199140917Y-34567544D02*
X199045679Y-34519925D01*
X199045679Y-34519925D02*
X198855203Y-34519925D01*
X198855203Y-34519925D02*
X198759965Y-34567544D01*
X198759965Y-34567544D02*
X198712346Y-34615163D01*
X198712346Y-34615163D02*
X198664727Y-34710401D01*
X196695335Y-35472306D02*
X196695335Y-36043734D01*
X196695335Y-35758020D02*
X195695335Y-35758020D01*
X195695335Y-35758020D02*
X195838192Y-35853258D01*
X195838192Y-35853258D02*
X195933430Y-35948496D01*
X195933430Y-35948496D02*
X195981049Y-36043734D01*
X195695335Y-35138972D02*
X195695335Y-34472306D01*
X195695335Y-34472306D02*
X196695335Y-34900877D01*
X194071662Y-35472306D02*
X194071662Y-36043734D01*
X194071662Y-35758020D02*
X193071662Y-35758020D01*
X193071662Y-35758020D02*
X193214519Y-35853258D01*
X193214519Y-35853258D02*
X193309757Y-35948496D01*
X193309757Y-35948496D02*
X193357376Y-36043734D01*
X193071662Y-34615163D02*
X193071662Y-34805639D01*
X193071662Y-34805639D02*
X193119281Y-34900877D01*
X193119281Y-34900877D02*
X193166900Y-34948496D01*
X193166900Y-34948496D02*
X193309757Y-35043734D01*
X193309757Y-35043734D02*
X193500233Y-35091353D01*
X193500233Y-35091353D02*
X193881185Y-35091353D01*
X193881185Y-35091353D02*
X193976423Y-35043734D01*
X193976423Y-35043734D02*
X194024043Y-34996115D01*
X194024043Y-34996115D02*
X194071662Y-34900877D01*
X194071662Y-34900877D02*
X194071662Y-34710401D01*
X194071662Y-34710401D02*
X194024043Y-34615163D01*
X194024043Y-34615163D02*
X193976423Y-34567544D01*
X193976423Y-34567544D02*
X193881185Y-34519925D01*
X193881185Y-34519925D02*
X193643090Y-34519925D01*
X193643090Y-34519925D02*
X193547852Y-34567544D01*
X193547852Y-34567544D02*
X193500233Y-34615163D01*
X193500233Y-34615163D02*
X193452614Y-34710401D01*
X193452614Y-34710401D02*
X193452614Y-34900877D01*
X193452614Y-34900877D02*
X193500233Y-34996115D01*
X193500233Y-34996115D02*
X193547852Y-35043734D01*
X193547852Y-35043734D02*
X193643090Y-35091353D01*
X191475606Y-35472306D02*
X191475606Y-36043734D01*
X191475606Y-35758020D02*
X190475606Y-35758020D01*
X190475606Y-35758020D02*
X190618463Y-35853258D01*
X190618463Y-35853258D02*
X190713701Y-35948496D01*
X190713701Y-35948496D02*
X190761320Y-36043734D01*
X190475606Y-34567544D02*
X190475606Y-35043734D01*
X190475606Y-35043734D02*
X190951796Y-35091353D01*
X190951796Y-35091353D02*
X190904177Y-35043734D01*
X190904177Y-35043734D02*
X190856558Y-34948496D01*
X190856558Y-34948496D02*
X190856558Y-34710401D01*
X190856558Y-34710401D02*
X190904177Y-34615163D01*
X190904177Y-34615163D02*
X190951796Y-34567544D01*
X190951796Y-34567544D02*
X191047034Y-34519925D01*
X191047034Y-34519925D02*
X191285129Y-34519925D01*
X191285129Y-34519925D02*
X191380367Y-34567544D01*
X191380367Y-34567544D02*
X191427987Y-34615163D01*
X191427987Y-34615163D02*
X191475606Y-34710401D01*
X191475606Y-34710401D02*
X191475606Y-34948496D01*
X191475606Y-34948496D02*
X191427987Y-35043734D01*
X191427987Y-35043734D02*
X191380367Y-35091353D01*
X188972419Y-35472306D02*
X188972419Y-36043734D01*
X188972419Y-35758020D02*
X187972419Y-35758020D01*
X187972419Y-35758020D02*
X188115276Y-35853258D01*
X188115276Y-35853258D02*
X188210514Y-35948496D01*
X188210514Y-35948496D02*
X188258133Y-36043734D01*
X188305752Y-34615163D02*
X188972419Y-34615163D01*
X187924800Y-34853258D02*
X188639085Y-35091353D01*
X188639085Y-35091353D02*
X188639085Y-34472306D01*
X146572419Y-35472306D02*
X146572419Y-36043734D01*
X146572419Y-35758020D02*
X145572419Y-35758020D01*
X145572419Y-35758020D02*
X145715276Y-35853258D01*
X145715276Y-35853258D02*
X145810514Y-35948496D01*
X145810514Y-35948496D02*
X145858133Y-36043734D01*
X145572419Y-35138972D02*
X145572419Y-34519925D01*
X145572419Y-34519925D02*
X145953371Y-34853258D01*
X145953371Y-34853258D02*
X145953371Y-34710401D01*
X145953371Y-34710401D02*
X146000990Y-34615163D01*
X146000990Y-34615163D02*
X146048609Y-34567544D01*
X146048609Y-34567544D02*
X146143847Y-34519925D01*
X146143847Y-34519925D02*
X146381942Y-34519925D01*
X146381942Y-34519925D02*
X146477180Y-34567544D01*
X146477180Y-34567544D02*
X146524800Y-34615163D01*
X146524800Y-34615163D02*
X146572419Y-34710401D01*
X146572419Y-34710401D02*
X146572419Y-34996115D01*
X146572419Y-34996115D02*
X146524800Y-35091353D01*
X146524800Y-35091353D02*
X146477180Y-35138972D01*
X151653901Y-35468666D02*
X151653901Y-36040094D01*
X151653901Y-35754380D02*
X150653901Y-35754380D01*
X150653901Y-35754380D02*
X150796758Y-35849618D01*
X150796758Y-35849618D02*
X150891996Y-35944856D01*
X150891996Y-35944856D02*
X150939615Y-36040094D01*
X151653901Y-34516285D02*
X151653901Y-35087713D01*
X151653901Y-34801999D02*
X150653901Y-34801999D01*
X150653901Y-34801999D02*
X150796758Y-34897237D01*
X150796758Y-34897237D02*
X150891996Y-34992475D01*
X150891996Y-34992475D02*
X150939615Y-35087713D01*
X154139487Y-35468666D02*
X154139487Y-36040094D01*
X154139487Y-35754380D02*
X153139487Y-35754380D01*
X153139487Y-35754380D02*
X153282344Y-35849618D01*
X153282344Y-35849618D02*
X153377582Y-35944856D01*
X153377582Y-35944856D02*
X153425201Y-36040094D01*
X153139487Y-34849618D02*
X153139487Y-34754380D01*
X153139487Y-34754380D02*
X153187106Y-34659142D01*
X153187106Y-34659142D02*
X153234725Y-34611523D01*
X153234725Y-34611523D02*
X153329963Y-34563904D01*
X153329963Y-34563904D02*
X153520439Y-34516285D01*
X153520439Y-34516285D02*
X153758534Y-34516285D01*
X153758534Y-34516285D02*
X153949010Y-34563904D01*
X153949010Y-34563904D02*
X154044248Y-34611523D01*
X154044248Y-34611523D02*
X154091868Y-34659142D01*
X154091868Y-34659142D02*
X154139487Y-34754380D01*
X154139487Y-34754380D02*
X154139487Y-34849618D01*
X154139487Y-34849618D02*
X154091868Y-34944856D01*
X154091868Y-34944856D02*
X154044248Y-34992475D01*
X154044248Y-34992475D02*
X153949010Y-35040094D01*
X153949010Y-35040094D02*
X153758534Y-35087713D01*
X153758534Y-35087713D02*
X153520439Y-35087713D01*
X153520439Y-35087713D02*
X153329963Y-35040094D01*
X153329963Y-35040094D02*
X153234725Y-34992475D01*
X153234725Y-34992475D02*
X153187106Y-34944856D01*
X153187106Y-34944856D02*
X153139487Y-34849618D01*
X143020038Y-36572306D02*
X142972419Y-36667544D01*
X142972419Y-36667544D02*
X142972419Y-36810401D01*
X142972419Y-36810401D02*
X143020038Y-36953258D01*
X143020038Y-36953258D02*
X143115276Y-37048496D01*
X143115276Y-37048496D02*
X143210514Y-37096115D01*
X143210514Y-37096115D02*
X143400990Y-37143734D01*
X143400990Y-37143734D02*
X143543847Y-37143734D01*
X143543847Y-37143734D02*
X143734323Y-37096115D01*
X143734323Y-37096115D02*
X143829561Y-37048496D01*
X143829561Y-37048496D02*
X143924800Y-36953258D01*
X143924800Y-36953258D02*
X143972419Y-36810401D01*
X143972419Y-36810401D02*
X143972419Y-36715163D01*
X143972419Y-36715163D02*
X143924800Y-36572306D01*
X143924800Y-36572306D02*
X143877180Y-36524687D01*
X143877180Y-36524687D02*
X143543847Y-36524687D01*
X143543847Y-36524687D02*
X143543847Y-36715163D01*
X143972419Y-36096115D02*
X142972419Y-36096115D01*
X142972419Y-36096115D02*
X143972419Y-35524687D01*
X143972419Y-35524687D02*
X142972419Y-35524687D01*
X143972419Y-35048496D02*
X142972419Y-35048496D01*
X142972419Y-35048496D02*
X142972419Y-34810401D01*
X142972419Y-34810401D02*
X143020038Y-34667544D01*
X143020038Y-34667544D02*
X143115276Y-34572306D01*
X143115276Y-34572306D02*
X143210514Y-34524687D01*
X143210514Y-34524687D02*
X143400990Y-34477068D01*
X143400990Y-34477068D02*
X143543847Y-34477068D01*
X143543847Y-34477068D02*
X143734323Y-34524687D01*
X143734323Y-34524687D02*
X143829561Y-34572306D01*
X143829561Y-34572306D02*
X143924800Y-34667544D01*
X143924800Y-34667544D02*
X143972419Y-34810401D01*
X143972419Y-34810401D02*
X143972419Y-35048496D01*
X158690434Y-34885352D02*
X158642815Y-34980590D01*
X158642815Y-34980590D02*
X158595196Y-35028209D01*
X158595196Y-35028209D02*
X158499958Y-35075828D01*
X158499958Y-35075828D02*
X158452339Y-35075828D01*
X158452339Y-35075828D02*
X158357101Y-35028209D01*
X158357101Y-35028209D02*
X158309482Y-34980590D01*
X158309482Y-34980590D02*
X158261863Y-34885352D01*
X158261863Y-34885352D02*
X158261863Y-34694876D01*
X158261863Y-34694876D02*
X158309482Y-34599638D01*
X158309482Y-34599638D02*
X158357101Y-34552019D01*
X158357101Y-34552019D02*
X158452339Y-34504400D01*
X158452339Y-34504400D02*
X158499958Y-34504400D01*
X158499958Y-34504400D02*
X158595196Y-34552019D01*
X158595196Y-34552019D02*
X158642815Y-34599638D01*
X158642815Y-34599638D02*
X158690434Y-34694876D01*
X158690434Y-34694876D02*
X158690434Y-34885352D01*
X158690434Y-34885352D02*
X158738053Y-34980590D01*
X158738053Y-34980590D02*
X158785672Y-35028209D01*
X158785672Y-35028209D02*
X158880910Y-35075828D01*
X158880910Y-35075828D02*
X159071386Y-35075828D01*
X159071386Y-35075828D02*
X159166624Y-35028209D01*
X159166624Y-35028209D02*
X159214244Y-34980590D01*
X159214244Y-34980590D02*
X159261863Y-34885352D01*
X159261863Y-34885352D02*
X159261863Y-34694876D01*
X159261863Y-34694876D02*
X159214244Y-34599638D01*
X159214244Y-34599638D02*
X159166624Y-34552019D01*
X159166624Y-34552019D02*
X159071386Y-34504400D01*
X159071386Y-34504400D02*
X158880910Y-34504400D01*
X158880910Y-34504400D02*
X158785672Y-34552019D01*
X158785672Y-34552019D02*
X158738053Y-34599638D01*
X158738053Y-34599638D02*
X158690434Y-34694876D01*
X141186704Y-37743734D02*
X141186704Y-37267544D01*
X141472419Y-37838972D02*
X140472419Y-37505639D01*
X140472419Y-37505639D02*
X141472419Y-37172306D01*
X141472419Y-36267544D02*
X140996228Y-36600877D01*
X141472419Y-36838972D02*
X140472419Y-36838972D01*
X140472419Y-36838972D02*
X140472419Y-36458020D01*
X140472419Y-36458020D02*
X140520038Y-36362782D01*
X140520038Y-36362782D02*
X140567657Y-36315163D01*
X140567657Y-36315163D02*
X140662895Y-36267544D01*
X140662895Y-36267544D02*
X140805752Y-36267544D01*
X140805752Y-36267544D02*
X140900990Y-36315163D01*
X140900990Y-36315163D02*
X140948609Y-36362782D01*
X140948609Y-36362782D02*
X140996228Y-36458020D01*
X140996228Y-36458020D02*
X140996228Y-36838972D01*
X140948609Y-35838972D02*
X140948609Y-35505639D01*
X141472419Y-35362782D02*
X141472419Y-35838972D01*
X141472419Y-35838972D02*
X140472419Y-35838972D01*
X140472419Y-35838972D02*
X140472419Y-35362782D01*
X140948609Y-34600877D02*
X140948609Y-34934210D01*
X141472419Y-34934210D02*
X140472419Y-34934210D01*
X140472419Y-34934210D02*
X140472419Y-34458020D01*
X156638506Y-35019967D02*
X156638506Y-34829491D01*
X156638506Y-34829491D02*
X156590887Y-34734253D01*
X156590887Y-34734253D02*
X156543267Y-34686634D01*
X156543267Y-34686634D02*
X156400410Y-34591396D01*
X156400410Y-34591396D02*
X156209934Y-34543777D01*
X156209934Y-34543777D02*
X155828982Y-34543777D01*
X155828982Y-34543777D02*
X155733744Y-34591396D01*
X155733744Y-34591396D02*
X155686125Y-34639015D01*
X155686125Y-34639015D02*
X155638506Y-34734253D01*
X155638506Y-34734253D02*
X155638506Y-34924729D01*
X155638506Y-34924729D02*
X155686125Y-35019967D01*
X155686125Y-35019967D02*
X155733744Y-35067586D01*
X155733744Y-35067586D02*
X155828982Y-35115205D01*
X155828982Y-35115205D02*
X156067077Y-35115205D01*
X156067077Y-35115205D02*
X156162315Y-35067586D01*
X156162315Y-35067586D02*
X156209934Y-35019967D01*
X156209934Y-35019967D02*
X156257553Y-34924729D01*
X156257553Y-34924729D02*
X156257553Y-34734253D01*
X156257553Y-34734253D02*
X156209934Y-34639015D01*
X156209934Y-34639015D02*
X156162315Y-34591396D01*
X156162315Y-34591396D02*
X156067077Y-34543777D01*
X164265132Y-35188470D02*
X164265132Y-34521804D01*
X164265132Y-34521804D02*
X165265132Y-34950375D01*
X166847379Y-34664661D02*
X166847379Y-34855137D01*
X166847379Y-34855137D02*
X166894998Y-34950375D01*
X166894998Y-34950375D02*
X166942617Y-34997994D01*
X166942617Y-34997994D02*
X167085474Y-35093232D01*
X167085474Y-35093232D02*
X167275950Y-35140851D01*
X167275950Y-35140851D02*
X167656902Y-35140851D01*
X167656902Y-35140851D02*
X167752140Y-35093232D01*
X167752140Y-35093232D02*
X167799760Y-35045613D01*
X167799760Y-35045613D02*
X167847379Y-34950375D01*
X167847379Y-34950375D02*
X167847379Y-34759899D01*
X167847379Y-34759899D02*
X167799760Y-34664661D01*
X167799760Y-34664661D02*
X167752140Y-34617042D01*
X167752140Y-34617042D02*
X167656902Y-34569423D01*
X167656902Y-34569423D02*
X167418807Y-34569423D01*
X167418807Y-34569423D02*
X167323569Y-34617042D01*
X167323569Y-34617042D02*
X167275950Y-34664661D01*
X167275950Y-34664661D02*
X167228331Y-34759899D01*
X167228331Y-34759899D02*
X167228331Y-34950375D01*
X167228331Y-34950375D02*
X167275950Y-35045613D01*
X167275950Y-35045613D02*
X167323569Y-35093232D01*
X167323569Y-35093232D02*
X167418807Y-35140851D01*
X169263920Y-34617042D02*
X169263920Y-35093232D01*
X169263920Y-35093232D02*
X169740110Y-35140851D01*
X169740110Y-35140851D02*
X169692491Y-35093232D01*
X169692491Y-35093232D02*
X169644872Y-34997994D01*
X169644872Y-34997994D02*
X169644872Y-34759899D01*
X169644872Y-34759899D02*
X169692491Y-34664661D01*
X169692491Y-34664661D02*
X169740110Y-34617042D01*
X169740110Y-34617042D02*
X169835348Y-34569423D01*
X169835348Y-34569423D02*
X170073443Y-34569423D01*
X170073443Y-34569423D02*
X170168681Y-34617042D01*
X170168681Y-34617042D02*
X170216301Y-34664661D01*
X170216301Y-34664661D02*
X170263920Y-34759899D01*
X170263920Y-34759899D02*
X170263920Y-34997994D01*
X170263920Y-34997994D02*
X170216301Y-35093232D01*
X170216301Y-35093232D02*
X170168681Y-35140851D01*
X172096647Y-34667544D02*
X172763314Y-34667544D01*
X171715695Y-34905639D02*
X172429980Y-35143734D01*
X172429980Y-35143734D02*
X172429980Y-34524687D01*
X174460883Y-35184220D02*
X174460883Y-34565173D01*
X174460883Y-34565173D02*
X174841835Y-34898506D01*
X174841835Y-34898506D02*
X174841835Y-34755649D01*
X174841835Y-34755649D02*
X174889454Y-34660411D01*
X174889454Y-34660411D02*
X174937073Y-34612792D01*
X174937073Y-34612792D02*
X175032311Y-34565173D01*
X175032311Y-34565173D02*
X175270406Y-34565173D01*
X175270406Y-34565173D02*
X175365644Y-34612792D01*
X175365644Y-34612792D02*
X175413264Y-34660411D01*
X175413264Y-34660411D02*
X175460883Y-34755649D01*
X175460883Y-34755649D02*
X175460883Y-35041363D01*
X175460883Y-35041363D02*
X175413264Y-35136601D01*
X175413264Y-35136601D02*
X175365644Y-35184220D01*
X177050664Y-35143734D02*
X177003045Y-35096115D01*
X177003045Y-35096115D02*
X176955426Y-35000877D01*
X176955426Y-35000877D02*
X176955426Y-34762782D01*
X176955426Y-34762782D02*
X177003045Y-34667544D01*
X177003045Y-34667544D02*
X177050664Y-34619925D01*
X177050664Y-34619925D02*
X177145902Y-34572306D01*
X177145902Y-34572306D02*
X177241140Y-34572306D01*
X177241140Y-34572306D02*
X177383997Y-34619925D01*
X177383997Y-34619925D02*
X177955426Y-35191353D01*
X177955426Y-35191353D02*
X177955426Y-34572306D01*
X180459671Y-34565173D02*
X180459671Y-35136601D01*
X180459671Y-34850887D02*
X179459671Y-34850887D01*
X179459671Y-34850887D02*
X179602528Y-34946125D01*
X179602528Y-34946125D02*
X179697766Y-35041363D01*
X179697766Y-35041363D02*
X179745385Y-35136601D01*
X182055727Y-34898506D02*
X182055727Y-34803268D01*
X182055727Y-34803268D02*
X182103346Y-34708030D01*
X182103346Y-34708030D02*
X182150965Y-34660411D01*
X182150965Y-34660411D02*
X182246203Y-34612792D01*
X182246203Y-34612792D02*
X182436679Y-34565173D01*
X182436679Y-34565173D02*
X182674774Y-34565173D01*
X182674774Y-34565173D02*
X182865250Y-34612792D01*
X182865250Y-34612792D02*
X182960488Y-34660411D01*
X182960488Y-34660411D02*
X183008108Y-34708030D01*
X183008108Y-34708030D02*
X183055727Y-34803268D01*
X183055727Y-34803268D02*
X183055727Y-34898506D01*
X183055727Y-34898506D02*
X183008108Y-34993744D01*
X183008108Y-34993744D02*
X182960488Y-35041363D01*
X182960488Y-35041363D02*
X182865250Y-35088982D01*
X182865250Y-35088982D02*
X182674774Y-35136601D01*
X182674774Y-35136601D02*
X182436679Y-35136601D01*
X182436679Y-35136601D02*
X182246203Y-35088982D01*
X182246203Y-35088982D02*
X182150965Y-35041363D01*
X182150965Y-35041363D02*
X182103346Y-34993744D01*
X182103346Y-34993744D02*
X182055727Y-34898506D01*
X229613884Y-44791466D02*
X230375789Y-44791466D01*
X229994836Y-45172419D02*
X229994836Y-44410514D01*
X231328169Y-44172419D02*
X230851979Y-44172419D01*
X230851979Y-44172419D02*
X230804360Y-44648609D01*
X230804360Y-44648609D02*
X230851979Y-44600990D01*
X230851979Y-44600990D02*
X230947217Y-44553371D01*
X230947217Y-44553371D02*
X231185312Y-44553371D01*
X231185312Y-44553371D02*
X231280550Y-44600990D01*
X231280550Y-44600990D02*
X231328169Y-44648609D01*
X231328169Y-44648609D02*
X231375788Y-44743847D01*
X231375788Y-44743847D02*
X231375788Y-44981942D01*
X231375788Y-44981942D02*
X231328169Y-45077180D01*
X231328169Y-45077180D02*
X231280550Y-45124800D01*
X231280550Y-45124800D02*
X231185312Y-45172419D01*
X231185312Y-45172419D02*
X230947217Y-45172419D01*
X230947217Y-45172419D02*
X230851979Y-45124800D01*
X230851979Y-45124800D02*
X230804360Y-45077180D01*
X231661503Y-44172419D02*
X231994836Y-45172419D01*
X231994836Y-45172419D02*
X232328169Y-44172419D01*
X230627693Y-92320038D02*
X230532455Y-92272419D01*
X230532455Y-92272419D02*
X230389598Y-92272419D01*
X230389598Y-92272419D02*
X230246741Y-92320038D01*
X230246741Y-92320038D02*
X230151503Y-92415276D01*
X230151503Y-92415276D02*
X230103884Y-92510514D01*
X230103884Y-92510514D02*
X230056265Y-92700990D01*
X230056265Y-92700990D02*
X230056265Y-92843847D01*
X230056265Y-92843847D02*
X230103884Y-93034323D01*
X230103884Y-93034323D02*
X230151503Y-93129561D01*
X230151503Y-93129561D02*
X230246741Y-93224800D01*
X230246741Y-93224800D02*
X230389598Y-93272419D01*
X230389598Y-93272419D02*
X230484836Y-93272419D01*
X230484836Y-93272419D02*
X230627693Y-93224800D01*
X230627693Y-93224800D02*
X230675312Y-93177180D01*
X230675312Y-93177180D02*
X230675312Y-92843847D01*
X230675312Y-92843847D02*
X230484836Y-92843847D01*
X231103884Y-93272419D02*
X231103884Y-92272419D01*
X231103884Y-92272419D02*
X231675312Y-93272419D01*
X231675312Y-93272419D02*
X231675312Y-92272419D01*
X232151503Y-93272419D02*
X232151503Y-92272419D01*
X232151503Y-92272419D02*
X232389598Y-92272419D01*
X232389598Y-92272419D02*
X232532455Y-92320038D01*
X232532455Y-92320038D02*
X232627693Y-92415276D01*
X232627693Y-92415276D02*
X232675312Y-92510514D01*
X232675312Y-92510514D02*
X232722931Y-92700990D01*
X232722931Y-92700990D02*
X232722931Y-92843847D01*
X232722931Y-92843847D02*
X232675312Y-93034323D01*
X232675312Y-93034323D02*
X232627693Y-93129561D01*
X232627693Y-93129561D02*
X232532455Y-93224800D01*
X232532455Y-93224800D02*
X232389598Y-93272419D01*
X232389598Y-93272419D02*
X232151503Y-93272419D01*
X234652320Y-49271195D02*
X234699939Y-49223576D01*
X234699939Y-49223576D02*
X234795177Y-49175957D01*
X234795177Y-49175957D02*
X235033272Y-49175957D01*
X235033272Y-49175957D02*
X235128510Y-49223576D01*
X235128510Y-49223576D02*
X235176129Y-49271195D01*
X235176129Y-49271195D02*
X235223748Y-49366433D01*
X235223748Y-49366433D02*
X235223748Y-49461671D01*
X235223748Y-49461671D02*
X235176129Y-49604528D01*
X235176129Y-49604528D02*
X234604701Y-50175957D01*
X234604701Y-50175957D02*
X235223748Y-50175957D01*
X235557082Y-49175957D02*
X236176129Y-49175957D01*
X236176129Y-49175957D02*
X235842796Y-49556909D01*
X235842796Y-49556909D02*
X235985653Y-49556909D01*
X235985653Y-49556909D02*
X236080891Y-49604528D01*
X236080891Y-49604528D02*
X236128510Y-49652147D01*
X236128510Y-49652147D02*
X236176129Y-49747385D01*
X236176129Y-49747385D02*
X236176129Y-49985480D01*
X236176129Y-49985480D02*
X236128510Y-50080718D01*
X236128510Y-50080718D02*
X236080891Y-50128338D01*
X236080891Y-50128338D02*
X235985653Y-50175957D01*
X235985653Y-50175957D02*
X235699939Y-50175957D01*
X235699939Y-50175957D02*
X235604701Y-50128338D01*
X235604701Y-50128338D02*
X235557082Y-50080718D01*
X234604701Y-59417387D02*
X235223748Y-59417387D01*
X235223748Y-59417387D02*
X234890415Y-59798339D01*
X234890415Y-59798339D02*
X235033272Y-59798339D01*
X235033272Y-59798339D02*
X235128510Y-59845958D01*
X235128510Y-59845958D02*
X235176129Y-59893577D01*
X235176129Y-59893577D02*
X235223748Y-59988815D01*
X235223748Y-59988815D02*
X235223748Y-60226910D01*
X235223748Y-60226910D02*
X235176129Y-60322148D01*
X235176129Y-60322148D02*
X235128510Y-60369768D01*
X235128510Y-60369768D02*
X235033272Y-60417387D01*
X235033272Y-60417387D02*
X234747558Y-60417387D01*
X234747558Y-60417387D02*
X234652320Y-60369768D01*
X234652320Y-60369768D02*
X234604701Y-60322148D01*
X236176129Y-60417387D02*
X235604701Y-60417387D01*
X235890415Y-60417387D02*
X235890415Y-59417387D01*
X235890415Y-59417387D02*
X235795177Y-59560244D01*
X235795177Y-59560244D02*
X235699939Y-59655482D01*
X235699939Y-59655482D02*
X235604701Y-59703101D01*
X234652320Y-56944187D02*
X234699939Y-56896568D01*
X234699939Y-56896568D02*
X234795177Y-56848949D01*
X234795177Y-56848949D02*
X235033272Y-56848949D01*
X235033272Y-56848949D02*
X235128510Y-56896568D01*
X235128510Y-56896568D02*
X235176129Y-56944187D01*
X235176129Y-56944187D02*
X235223748Y-57039425D01*
X235223748Y-57039425D02*
X235223748Y-57134663D01*
X235223748Y-57134663D02*
X235176129Y-57277520D01*
X235176129Y-57277520D02*
X234604701Y-57848949D01*
X234604701Y-57848949D02*
X235223748Y-57848949D01*
X235699939Y-57848949D02*
X235890415Y-57848949D01*
X235890415Y-57848949D02*
X235985653Y-57801330D01*
X235985653Y-57801330D02*
X236033272Y-57753710D01*
X236033272Y-57753710D02*
X236128510Y-57610853D01*
X236128510Y-57610853D02*
X236176129Y-57420377D01*
X236176129Y-57420377D02*
X236176129Y-57039425D01*
X236176129Y-57039425D02*
X236128510Y-56944187D01*
X236128510Y-56944187D02*
X236080891Y-56896568D01*
X236080891Y-56896568D02*
X235985653Y-56848949D01*
X235985653Y-56848949D02*
X235795177Y-56848949D01*
X235795177Y-56848949D02*
X235699939Y-56896568D01*
X235699939Y-56896568D02*
X235652320Y-56944187D01*
X235652320Y-56944187D02*
X235604701Y-57039425D01*
X235604701Y-57039425D02*
X235604701Y-57277520D01*
X235604701Y-57277520D02*
X235652320Y-57372758D01*
X235652320Y-57372758D02*
X235699939Y-57420377D01*
X235699939Y-57420377D02*
X235795177Y-57467996D01*
X235795177Y-57467996D02*
X235985653Y-57467996D01*
X235985653Y-57467996D02*
X236080891Y-57420377D01*
X236080891Y-57420377D02*
X236128510Y-57372758D01*
X236128510Y-57372758D02*
X236176129Y-57277520D01*
X234652320Y-54397600D02*
X234699939Y-54349981D01*
X234699939Y-54349981D02*
X234795177Y-54302362D01*
X234795177Y-54302362D02*
X235033272Y-54302362D01*
X235033272Y-54302362D02*
X235128510Y-54349981D01*
X235128510Y-54349981D02*
X235176129Y-54397600D01*
X235176129Y-54397600D02*
X235223748Y-54492838D01*
X235223748Y-54492838D02*
X235223748Y-54588076D01*
X235223748Y-54588076D02*
X235176129Y-54730933D01*
X235176129Y-54730933D02*
X234604701Y-55302362D01*
X234604701Y-55302362D02*
X235223748Y-55302362D01*
X235557082Y-54302362D02*
X236223748Y-54302362D01*
X236223748Y-54302362D02*
X235795177Y-55302362D01*
X234679937Y-51898206D02*
X234727556Y-51850587D01*
X234727556Y-51850587D02*
X234822794Y-51802968D01*
X234822794Y-51802968D02*
X235060889Y-51802968D01*
X235060889Y-51802968D02*
X235156127Y-51850587D01*
X235156127Y-51850587D02*
X235203746Y-51898206D01*
X235203746Y-51898206D02*
X235251365Y-51993444D01*
X235251365Y-51993444D02*
X235251365Y-52088682D01*
X235251365Y-52088682D02*
X235203746Y-52231539D01*
X235203746Y-52231539D02*
X234632318Y-52802968D01*
X234632318Y-52802968D02*
X235251365Y-52802968D01*
X236156127Y-51802968D02*
X235679937Y-51802968D01*
X235679937Y-51802968D02*
X235632318Y-52279158D01*
X235632318Y-52279158D02*
X235679937Y-52231539D01*
X235679937Y-52231539D02*
X235775175Y-52183920D01*
X235775175Y-52183920D02*
X236013270Y-52183920D01*
X236013270Y-52183920D02*
X236108508Y-52231539D01*
X236108508Y-52231539D02*
X236156127Y-52279158D01*
X236156127Y-52279158D02*
X236203746Y-52374396D01*
X236203746Y-52374396D02*
X236203746Y-52612491D01*
X236203746Y-52612491D02*
X236156127Y-52707729D01*
X236156127Y-52707729D02*
X236108508Y-52755349D01*
X236108508Y-52755349D02*
X236013270Y-52802968D01*
X236013270Y-52802968D02*
X235775175Y-52802968D01*
X235775175Y-52802968D02*
X235679937Y-52755349D01*
X235679937Y-52755349D02*
X235632318Y-52707729D01*
X234604701Y-64502366D02*
X235223748Y-64502366D01*
X235223748Y-64502366D02*
X234890415Y-64883318D01*
X234890415Y-64883318D02*
X235033272Y-64883318D01*
X235033272Y-64883318D02*
X235128510Y-64930937D01*
X235128510Y-64930937D02*
X235176129Y-64978556D01*
X235176129Y-64978556D02*
X235223748Y-65073794D01*
X235223748Y-65073794D02*
X235223748Y-65311889D01*
X235223748Y-65311889D02*
X235176129Y-65407127D01*
X235176129Y-65407127D02*
X235128510Y-65454747D01*
X235128510Y-65454747D02*
X235033272Y-65502366D01*
X235033272Y-65502366D02*
X234747558Y-65502366D01*
X234747558Y-65502366D02*
X234652320Y-65454747D01*
X234652320Y-65454747D02*
X234604701Y-65407127D01*
X236128510Y-64502366D02*
X235652320Y-64502366D01*
X235652320Y-64502366D02*
X235604701Y-64978556D01*
X235604701Y-64978556D02*
X235652320Y-64930937D01*
X235652320Y-64930937D02*
X235747558Y-64883318D01*
X235747558Y-64883318D02*
X235985653Y-64883318D01*
X235985653Y-64883318D02*
X236080891Y-64930937D01*
X236080891Y-64930937D02*
X236128510Y-64978556D01*
X236128510Y-64978556D02*
X236176129Y-65073794D01*
X236176129Y-65073794D02*
X236176129Y-65311889D01*
X236176129Y-65311889D02*
X236128510Y-65407127D01*
X236128510Y-65407127D02*
X236080891Y-65454747D01*
X236080891Y-65454747D02*
X235985653Y-65502366D01*
X235985653Y-65502366D02*
X235747558Y-65502366D01*
X235747558Y-65502366D02*
X235652320Y-65454747D01*
X235652320Y-65454747D02*
X235604701Y-65407127D01*
X235128510Y-77608533D02*
X235128510Y-78275200D01*
X234890415Y-77227581D02*
X234652320Y-77941866D01*
X234652320Y-77941866D02*
X235271367Y-77941866D01*
X236128510Y-77275200D02*
X235652320Y-77275200D01*
X235652320Y-77275200D02*
X235604701Y-77751390D01*
X235604701Y-77751390D02*
X235652320Y-77703771D01*
X235652320Y-77703771D02*
X235747558Y-77656152D01*
X235747558Y-77656152D02*
X235985653Y-77656152D01*
X235985653Y-77656152D02*
X236080891Y-77703771D01*
X236080891Y-77703771D02*
X236128510Y-77751390D01*
X236128510Y-77751390D02*
X236176129Y-77846628D01*
X236176129Y-77846628D02*
X236176129Y-78084723D01*
X236176129Y-78084723D02*
X236128510Y-78179961D01*
X236128510Y-78179961D02*
X236080891Y-78227581D01*
X236080891Y-78227581D02*
X235985653Y-78275200D01*
X235985653Y-78275200D02*
X235747558Y-78275200D01*
X235747558Y-78275200D02*
X235652320Y-78227581D01*
X235652320Y-78227581D02*
X235604701Y-78179961D01*
X235176129Y-84855625D02*
X234699939Y-84855625D01*
X234699939Y-84855625D02*
X234652320Y-85331815D01*
X234652320Y-85331815D02*
X234699939Y-85284196D01*
X234699939Y-85284196D02*
X234795177Y-85236577D01*
X234795177Y-85236577D02*
X235033272Y-85236577D01*
X235033272Y-85236577D02*
X235128510Y-85284196D01*
X235128510Y-85284196D02*
X235176129Y-85331815D01*
X235176129Y-85331815D02*
X235223748Y-85427053D01*
X235223748Y-85427053D02*
X235223748Y-85665148D01*
X235223748Y-85665148D02*
X235176129Y-85760386D01*
X235176129Y-85760386D02*
X235128510Y-85808006D01*
X235128510Y-85808006D02*
X235033272Y-85855625D01*
X235033272Y-85855625D02*
X234795177Y-85855625D01*
X234795177Y-85855625D02*
X234699939Y-85808006D01*
X234699939Y-85808006D02*
X234652320Y-85760386D01*
X236176129Y-85855625D02*
X235604701Y-85855625D01*
X235890415Y-85855625D02*
X235890415Y-84855625D01*
X235890415Y-84855625D02*
X235795177Y-84998482D01*
X235795177Y-84998482D02*
X235699939Y-85093720D01*
X235699939Y-85093720D02*
X235604701Y-85141339D01*
X234604701Y-67075659D02*
X235223748Y-67075659D01*
X235223748Y-67075659D02*
X234890415Y-67456611D01*
X234890415Y-67456611D02*
X235033272Y-67456611D01*
X235033272Y-67456611D02*
X235128510Y-67504230D01*
X235128510Y-67504230D02*
X235176129Y-67551849D01*
X235176129Y-67551849D02*
X235223748Y-67647087D01*
X235223748Y-67647087D02*
X235223748Y-67885182D01*
X235223748Y-67885182D02*
X235176129Y-67980420D01*
X235176129Y-67980420D02*
X235128510Y-68028040D01*
X235128510Y-68028040D02*
X235033272Y-68075659D01*
X235033272Y-68075659D02*
X234747558Y-68075659D01*
X234747558Y-68075659D02*
X234652320Y-68028040D01*
X234652320Y-68028040D02*
X234604701Y-67980420D01*
X235557082Y-67075659D02*
X236223748Y-67075659D01*
X236223748Y-67075659D02*
X235795177Y-68075659D01*
X235128510Y-74998669D02*
X235128510Y-75665336D01*
X234890415Y-74617717D02*
X234652320Y-75332002D01*
X234652320Y-75332002D02*
X235271367Y-75332002D01*
X235557082Y-74665336D02*
X236176129Y-74665336D01*
X236176129Y-74665336D02*
X235842796Y-75046288D01*
X235842796Y-75046288D02*
X235985653Y-75046288D01*
X235985653Y-75046288D02*
X236080891Y-75093907D01*
X236080891Y-75093907D02*
X236128510Y-75141526D01*
X236128510Y-75141526D02*
X236176129Y-75236764D01*
X236176129Y-75236764D02*
X236176129Y-75474859D01*
X236176129Y-75474859D02*
X236128510Y-75570097D01*
X236128510Y-75570097D02*
X236080891Y-75617717D01*
X236080891Y-75617717D02*
X235985653Y-75665336D01*
X235985653Y-75665336D02*
X235699939Y-75665336D01*
X235699939Y-75665336D02*
X235604701Y-75617717D01*
X235604701Y-75617717D02*
X235557082Y-75570097D01*
X235128510Y-80104890D02*
X235128510Y-80771557D01*
X234890415Y-79723938D02*
X234652320Y-80438223D01*
X234652320Y-80438223D02*
X235271367Y-80438223D01*
X235557082Y-79771557D02*
X236223748Y-79771557D01*
X236223748Y-79771557D02*
X235795177Y-80771557D01*
X234604701Y-69519818D02*
X235223748Y-69519818D01*
X235223748Y-69519818D02*
X234890415Y-69900770D01*
X234890415Y-69900770D02*
X235033272Y-69900770D01*
X235033272Y-69900770D02*
X235128510Y-69948389D01*
X235128510Y-69948389D02*
X235176129Y-69996008D01*
X235176129Y-69996008D02*
X235223748Y-70091246D01*
X235223748Y-70091246D02*
X235223748Y-70329341D01*
X235223748Y-70329341D02*
X235176129Y-70424579D01*
X235176129Y-70424579D02*
X235128510Y-70472199D01*
X235128510Y-70472199D02*
X235033272Y-70519818D01*
X235033272Y-70519818D02*
X234747558Y-70519818D01*
X234747558Y-70519818D02*
X234652320Y-70472199D01*
X234652320Y-70472199D02*
X234604701Y-70424579D01*
X235699939Y-70519818D02*
X235890415Y-70519818D01*
X235890415Y-70519818D02*
X235985653Y-70472199D01*
X235985653Y-70472199D02*
X236033272Y-70424579D01*
X236033272Y-70424579D02*
X236128510Y-70281722D01*
X236128510Y-70281722D02*
X236176129Y-70091246D01*
X236176129Y-70091246D02*
X236176129Y-69710294D01*
X236176129Y-69710294D02*
X236128510Y-69615056D01*
X236128510Y-69615056D02*
X236080891Y-69567437D01*
X236080891Y-69567437D02*
X235985653Y-69519818D01*
X235985653Y-69519818D02*
X235795177Y-69519818D01*
X235795177Y-69519818D02*
X235699939Y-69567437D01*
X235699939Y-69567437D02*
X235652320Y-69615056D01*
X235652320Y-69615056D02*
X235604701Y-69710294D01*
X235604701Y-69710294D02*
X235604701Y-69948389D01*
X235604701Y-69948389D02*
X235652320Y-70043627D01*
X235652320Y-70043627D02*
X235699939Y-70091246D01*
X235699939Y-70091246D02*
X235795177Y-70138865D01*
X235795177Y-70138865D02*
X235985653Y-70138865D01*
X235985653Y-70138865D02*
X236080891Y-70091246D01*
X236080891Y-70091246D02*
X236128510Y-70043627D01*
X236128510Y-70043627D02*
X236176129Y-69948389D01*
X235128510Y-72402613D02*
X235128510Y-73069280D01*
X234890415Y-72021661D02*
X234652320Y-72735946D01*
X234652320Y-72735946D02*
X235271367Y-72735946D01*
X236176129Y-73069280D02*
X235604701Y-73069280D01*
X235890415Y-73069280D02*
X235890415Y-72069280D01*
X235890415Y-72069280D02*
X235795177Y-72212137D01*
X235795177Y-72212137D02*
X235699939Y-72307375D01*
X235699939Y-72307375D02*
X235604701Y-72354994D01*
X235128510Y-82645710D02*
X235128510Y-83312377D01*
X234890415Y-82264758D02*
X234652320Y-82979043D01*
X234652320Y-82979043D02*
X235271367Y-82979043D01*
X235699939Y-83312377D02*
X235890415Y-83312377D01*
X235890415Y-83312377D02*
X235985653Y-83264758D01*
X235985653Y-83264758D02*
X236033272Y-83217138D01*
X236033272Y-83217138D02*
X236128510Y-83074281D01*
X236128510Y-83074281D02*
X236176129Y-82883805D01*
X236176129Y-82883805D02*
X236176129Y-82502853D01*
X236176129Y-82502853D02*
X236128510Y-82407615D01*
X236128510Y-82407615D02*
X236080891Y-82359996D01*
X236080891Y-82359996D02*
X235985653Y-82312377D01*
X235985653Y-82312377D02*
X235795177Y-82312377D01*
X235795177Y-82312377D02*
X235699939Y-82359996D01*
X235699939Y-82359996D02*
X235652320Y-82407615D01*
X235652320Y-82407615D02*
X235604701Y-82502853D01*
X235604701Y-82502853D02*
X235604701Y-82740948D01*
X235604701Y-82740948D02*
X235652320Y-82836186D01*
X235652320Y-82836186D02*
X235699939Y-82883805D01*
X235699939Y-82883805D02*
X235795177Y-82931424D01*
X235795177Y-82931424D02*
X235985653Y-82931424D01*
X235985653Y-82931424D02*
X236080891Y-82883805D01*
X236080891Y-82883805D02*
X236128510Y-82836186D01*
X236128510Y-82836186D02*
X236176129Y-82740948D01*
X234604701Y-62002972D02*
X235223748Y-62002972D01*
X235223748Y-62002972D02*
X234890415Y-62383924D01*
X234890415Y-62383924D02*
X235033272Y-62383924D01*
X235033272Y-62383924D02*
X235128510Y-62431543D01*
X235128510Y-62431543D02*
X235176129Y-62479162D01*
X235176129Y-62479162D02*
X235223748Y-62574400D01*
X235223748Y-62574400D02*
X235223748Y-62812495D01*
X235223748Y-62812495D02*
X235176129Y-62907733D01*
X235176129Y-62907733D02*
X235128510Y-62955353D01*
X235128510Y-62955353D02*
X235033272Y-63002972D01*
X235033272Y-63002972D02*
X234747558Y-63002972D01*
X234747558Y-63002972D02*
X234652320Y-62955353D01*
X234652320Y-62955353D02*
X234604701Y-62907733D01*
X236080891Y-62336305D02*
X236080891Y-63002972D01*
X235842796Y-61955353D02*
X235604701Y-62669638D01*
X235604701Y-62669638D02*
X236223748Y-62669638D01*
X235176129Y-87368828D02*
X234699939Y-87368828D01*
X234699939Y-87368828D02*
X234652320Y-87845018D01*
X234652320Y-87845018D02*
X234699939Y-87797399D01*
X234699939Y-87797399D02*
X234795177Y-87749780D01*
X234795177Y-87749780D02*
X235033272Y-87749780D01*
X235033272Y-87749780D02*
X235128510Y-87797399D01*
X235128510Y-87797399D02*
X235176129Y-87845018D01*
X235176129Y-87845018D02*
X235223748Y-87940256D01*
X235223748Y-87940256D02*
X235223748Y-88178351D01*
X235223748Y-88178351D02*
X235176129Y-88273589D01*
X235176129Y-88273589D02*
X235128510Y-88321209D01*
X235128510Y-88321209D02*
X235033272Y-88368828D01*
X235033272Y-88368828D02*
X234795177Y-88368828D01*
X234795177Y-88368828D02*
X234699939Y-88321209D01*
X234699939Y-88321209D02*
X234652320Y-88273589D01*
X235557082Y-87368828D02*
X236176129Y-87368828D01*
X236176129Y-87368828D02*
X235842796Y-87749780D01*
X235842796Y-87749780D02*
X235985653Y-87749780D01*
X235985653Y-87749780D02*
X236080891Y-87797399D01*
X236080891Y-87797399D02*
X236128510Y-87845018D01*
X236128510Y-87845018D02*
X236176129Y-87940256D01*
X236176129Y-87940256D02*
X236176129Y-88178351D01*
X236176129Y-88178351D02*
X236128510Y-88273589D01*
X236128510Y-88273589D02*
X236080891Y-88321209D01*
X236080891Y-88321209D02*
X235985653Y-88368828D01*
X235985653Y-88368828D02*
X235699939Y-88368828D01*
X235699939Y-88368828D02*
X235604701Y-88321209D01*
X235604701Y-88321209D02*
X235557082Y-88273589D01*
X226988866Y-87343185D02*
X226512676Y-87343185D01*
X226512676Y-87343185D02*
X226465057Y-87819375D01*
X226465057Y-87819375D02*
X226512676Y-87771756D01*
X226512676Y-87771756D02*
X226607914Y-87724137D01*
X226607914Y-87724137D02*
X226846009Y-87724137D01*
X226846009Y-87724137D02*
X226941247Y-87771756D01*
X226941247Y-87771756D02*
X226988866Y-87819375D01*
X226988866Y-87819375D02*
X227036485Y-87914613D01*
X227036485Y-87914613D02*
X227036485Y-88152708D01*
X227036485Y-88152708D02*
X226988866Y-88247946D01*
X226988866Y-88247946D02*
X226941247Y-88295566D01*
X226941247Y-88295566D02*
X226846009Y-88343185D01*
X226846009Y-88343185D02*
X226607914Y-88343185D01*
X226607914Y-88343185D02*
X226512676Y-88295566D01*
X226512676Y-88295566D02*
X226465057Y-88247946D01*
X227417438Y-87438423D02*
X227465057Y-87390804D01*
X227465057Y-87390804D02*
X227560295Y-87343185D01*
X227560295Y-87343185D02*
X227798390Y-87343185D01*
X227798390Y-87343185D02*
X227893628Y-87390804D01*
X227893628Y-87390804D02*
X227941247Y-87438423D01*
X227941247Y-87438423D02*
X227988866Y-87533661D01*
X227988866Y-87533661D02*
X227988866Y-87628899D01*
X227988866Y-87628899D02*
X227941247Y-87771756D01*
X227941247Y-87771756D02*
X227369819Y-88343185D01*
X227369819Y-88343185D02*
X227988866Y-88343185D01*
X226988866Y-84829982D02*
X226512676Y-84829982D01*
X226512676Y-84829982D02*
X226465057Y-85306172D01*
X226465057Y-85306172D02*
X226512676Y-85258553D01*
X226512676Y-85258553D02*
X226607914Y-85210934D01*
X226607914Y-85210934D02*
X226846009Y-85210934D01*
X226846009Y-85210934D02*
X226941247Y-85258553D01*
X226941247Y-85258553D02*
X226988866Y-85306172D01*
X226988866Y-85306172D02*
X227036485Y-85401410D01*
X227036485Y-85401410D02*
X227036485Y-85639505D01*
X227036485Y-85639505D02*
X226988866Y-85734743D01*
X226988866Y-85734743D02*
X226941247Y-85782363D01*
X226941247Y-85782363D02*
X226846009Y-85829982D01*
X226846009Y-85829982D02*
X226607914Y-85829982D01*
X226607914Y-85829982D02*
X226512676Y-85782363D01*
X226512676Y-85782363D02*
X226465057Y-85734743D01*
X227655533Y-84829982D02*
X227750771Y-84829982D01*
X227750771Y-84829982D02*
X227846009Y-84877601D01*
X227846009Y-84877601D02*
X227893628Y-84925220D01*
X227893628Y-84925220D02*
X227941247Y-85020458D01*
X227941247Y-85020458D02*
X227988866Y-85210934D01*
X227988866Y-85210934D02*
X227988866Y-85449029D01*
X227988866Y-85449029D02*
X227941247Y-85639505D01*
X227941247Y-85639505D02*
X227893628Y-85734743D01*
X227893628Y-85734743D02*
X227846009Y-85782363D01*
X227846009Y-85782363D02*
X227750771Y-85829982D01*
X227750771Y-85829982D02*
X227655533Y-85829982D01*
X227655533Y-85829982D02*
X227560295Y-85782363D01*
X227560295Y-85782363D02*
X227512676Y-85734743D01*
X227512676Y-85734743D02*
X227465057Y-85639505D01*
X227465057Y-85639505D02*
X227417438Y-85449029D01*
X227417438Y-85449029D02*
X227417438Y-85210934D01*
X227417438Y-85210934D02*
X227465057Y-85020458D01*
X227465057Y-85020458D02*
X227512676Y-84925220D01*
X227512676Y-84925220D02*
X227560295Y-84877601D01*
X227560295Y-84877601D02*
X227655533Y-84829982D01*
X226941247Y-82620067D02*
X226941247Y-83286734D01*
X226703152Y-82239115D02*
X226465057Y-82953400D01*
X226465057Y-82953400D02*
X227084104Y-82953400D01*
X227607914Y-82715305D02*
X227512676Y-82667686D01*
X227512676Y-82667686D02*
X227465057Y-82620067D01*
X227465057Y-82620067D02*
X227417438Y-82524829D01*
X227417438Y-82524829D02*
X227417438Y-82477210D01*
X227417438Y-82477210D02*
X227465057Y-82381972D01*
X227465057Y-82381972D02*
X227512676Y-82334353D01*
X227512676Y-82334353D02*
X227607914Y-82286734D01*
X227607914Y-82286734D02*
X227798390Y-82286734D01*
X227798390Y-82286734D02*
X227893628Y-82334353D01*
X227893628Y-82334353D02*
X227941247Y-82381972D01*
X227941247Y-82381972D02*
X227988866Y-82477210D01*
X227988866Y-82477210D02*
X227988866Y-82524829D01*
X227988866Y-82524829D02*
X227941247Y-82620067D01*
X227941247Y-82620067D02*
X227893628Y-82667686D01*
X227893628Y-82667686D02*
X227798390Y-82715305D01*
X227798390Y-82715305D02*
X227607914Y-82715305D01*
X227607914Y-82715305D02*
X227512676Y-82762924D01*
X227512676Y-82762924D02*
X227465057Y-82810543D01*
X227465057Y-82810543D02*
X227417438Y-82905781D01*
X227417438Y-82905781D02*
X227417438Y-83096257D01*
X227417438Y-83096257D02*
X227465057Y-83191495D01*
X227465057Y-83191495D02*
X227512676Y-83239115D01*
X227512676Y-83239115D02*
X227607914Y-83286734D01*
X227607914Y-83286734D02*
X227798390Y-83286734D01*
X227798390Y-83286734D02*
X227893628Y-83239115D01*
X227893628Y-83239115D02*
X227941247Y-83191495D01*
X227941247Y-83191495D02*
X227988866Y-83096257D01*
X227988866Y-83096257D02*
X227988866Y-82905781D01*
X227988866Y-82905781D02*
X227941247Y-82810543D01*
X227941247Y-82810543D02*
X227893628Y-82762924D01*
X227893628Y-82762924D02*
X227798390Y-82715305D01*
X226941247Y-80079247D02*
X226941247Y-80745914D01*
X226703152Y-79698295D02*
X226465057Y-80412580D01*
X226465057Y-80412580D02*
X227084104Y-80412580D01*
X227893628Y-79745914D02*
X227703152Y-79745914D01*
X227703152Y-79745914D02*
X227607914Y-79793533D01*
X227607914Y-79793533D02*
X227560295Y-79841152D01*
X227560295Y-79841152D02*
X227465057Y-79984009D01*
X227465057Y-79984009D02*
X227417438Y-80174485D01*
X227417438Y-80174485D02*
X227417438Y-80555437D01*
X227417438Y-80555437D02*
X227465057Y-80650675D01*
X227465057Y-80650675D02*
X227512676Y-80698295D01*
X227512676Y-80698295D02*
X227607914Y-80745914D01*
X227607914Y-80745914D02*
X227798390Y-80745914D01*
X227798390Y-80745914D02*
X227893628Y-80698295D01*
X227893628Y-80698295D02*
X227941247Y-80650675D01*
X227941247Y-80650675D02*
X227988866Y-80555437D01*
X227988866Y-80555437D02*
X227988866Y-80317342D01*
X227988866Y-80317342D02*
X227941247Y-80222104D01*
X227941247Y-80222104D02*
X227893628Y-80174485D01*
X227893628Y-80174485D02*
X227798390Y-80126866D01*
X227798390Y-80126866D02*
X227607914Y-80126866D01*
X227607914Y-80126866D02*
X227512676Y-80174485D01*
X227512676Y-80174485D02*
X227465057Y-80222104D01*
X227465057Y-80222104D02*
X227417438Y-80317342D01*
X226941247Y-77582890D02*
X226941247Y-78249557D01*
X226703152Y-77201938D02*
X226465057Y-77916223D01*
X226465057Y-77916223D02*
X227084104Y-77916223D01*
X227893628Y-77582890D02*
X227893628Y-78249557D01*
X227655533Y-77201938D02*
X227417438Y-77916223D01*
X227417438Y-77916223D02*
X228036485Y-77916223D01*
X226941247Y-74973026D02*
X226941247Y-75639693D01*
X226703152Y-74592074D02*
X226465057Y-75306359D01*
X226465057Y-75306359D02*
X227084104Y-75306359D01*
X227417438Y-74734931D02*
X227465057Y-74687312D01*
X227465057Y-74687312D02*
X227560295Y-74639693D01*
X227560295Y-74639693D02*
X227798390Y-74639693D01*
X227798390Y-74639693D02*
X227893628Y-74687312D01*
X227893628Y-74687312D02*
X227941247Y-74734931D01*
X227941247Y-74734931D02*
X227988866Y-74830169D01*
X227988866Y-74830169D02*
X227988866Y-74925407D01*
X227988866Y-74925407D02*
X227941247Y-75068264D01*
X227941247Y-75068264D02*
X227369819Y-75639693D01*
X227369819Y-75639693D02*
X227988866Y-75639693D01*
X226941247Y-72376970D02*
X226941247Y-73043637D01*
X226703152Y-71996018D02*
X226465057Y-72710303D01*
X226465057Y-72710303D02*
X227084104Y-72710303D01*
X227655533Y-72043637D02*
X227750771Y-72043637D01*
X227750771Y-72043637D02*
X227846009Y-72091256D01*
X227846009Y-72091256D02*
X227893628Y-72138875D01*
X227893628Y-72138875D02*
X227941247Y-72234113D01*
X227941247Y-72234113D02*
X227988866Y-72424589D01*
X227988866Y-72424589D02*
X227988866Y-72662684D01*
X227988866Y-72662684D02*
X227941247Y-72853160D01*
X227941247Y-72853160D02*
X227893628Y-72948398D01*
X227893628Y-72948398D02*
X227846009Y-72996018D01*
X227846009Y-72996018D02*
X227750771Y-73043637D01*
X227750771Y-73043637D02*
X227655533Y-73043637D01*
X227655533Y-73043637D02*
X227560295Y-72996018D01*
X227560295Y-72996018D02*
X227512676Y-72948398D01*
X227512676Y-72948398D02*
X227465057Y-72853160D01*
X227465057Y-72853160D02*
X227417438Y-72662684D01*
X227417438Y-72662684D02*
X227417438Y-72424589D01*
X227417438Y-72424589D02*
X227465057Y-72234113D01*
X227465057Y-72234113D02*
X227512676Y-72138875D01*
X227512676Y-72138875D02*
X227560295Y-72091256D01*
X227560295Y-72091256D02*
X227655533Y-72043637D01*
X226417438Y-69494175D02*
X227036485Y-69494175D01*
X227036485Y-69494175D02*
X226703152Y-69875127D01*
X226703152Y-69875127D02*
X226846009Y-69875127D01*
X226846009Y-69875127D02*
X226941247Y-69922746D01*
X226941247Y-69922746D02*
X226988866Y-69970365D01*
X226988866Y-69970365D02*
X227036485Y-70065603D01*
X227036485Y-70065603D02*
X227036485Y-70303698D01*
X227036485Y-70303698D02*
X226988866Y-70398936D01*
X226988866Y-70398936D02*
X226941247Y-70446556D01*
X226941247Y-70446556D02*
X226846009Y-70494175D01*
X226846009Y-70494175D02*
X226560295Y-70494175D01*
X226560295Y-70494175D02*
X226465057Y-70446556D01*
X226465057Y-70446556D02*
X226417438Y-70398936D01*
X227607914Y-69922746D02*
X227512676Y-69875127D01*
X227512676Y-69875127D02*
X227465057Y-69827508D01*
X227465057Y-69827508D02*
X227417438Y-69732270D01*
X227417438Y-69732270D02*
X227417438Y-69684651D01*
X227417438Y-69684651D02*
X227465057Y-69589413D01*
X227465057Y-69589413D02*
X227512676Y-69541794D01*
X227512676Y-69541794D02*
X227607914Y-69494175D01*
X227607914Y-69494175D02*
X227798390Y-69494175D01*
X227798390Y-69494175D02*
X227893628Y-69541794D01*
X227893628Y-69541794D02*
X227941247Y-69589413D01*
X227941247Y-69589413D02*
X227988866Y-69684651D01*
X227988866Y-69684651D02*
X227988866Y-69732270D01*
X227988866Y-69732270D02*
X227941247Y-69827508D01*
X227941247Y-69827508D02*
X227893628Y-69875127D01*
X227893628Y-69875127D02*
X227798390Y-69922746D01*
X227798390Y-69922746D02*
X227607914Y-69922746D01*
X227607914Y-69922746D02*
X227512676Y-69970365D01*
X227512676Y-69970365D02*
X227465057Y-70017984D01*
X227465057Y-70017984D02*
X227417438Y-70113222D01*
X227417438Y-70113222D02*
X227417438Y-70303698D01*
X227417438Y-70303698D02*
X227465057Y-70398936D01*
X227465057Y-70398936D02*
X227512676Y-70446556D01*
X227512676Y-70446556D02*
X227607914Y-70494175D01*
X227607914Y-70494175D02*
X227798390Y-70494175D01*
X227798390Y-70494175D02*
X227893628Y-70446556D01*
X227893628Y-70446556D02*
X227941247Y-70398936D01*
X227941247Y-70398936D02*
X227988866Y-70303698D01*
X227988866Y-70303698D02*
X227988866Y-70113222D01*
X227988866Y-70113222D02*
X227941247Y-70017984D01*
X227941247Y-70017984D02*
X227893628Y-69970365D01*
X227893628Y-69970365D02*
X227798390Y-69922746D01*
X226417438Y-67050016D02*
X227036485Y-67050016D01*
X227036485Y-67050016D02*
X226703152Y-67430968D01*
X226703152Y-67430968D02*
X226846009Y-67430968D01*
X226846009Y-67430968D02*
X226941247Y-67478587D01*
X226941247Y-67478587D02*
X226988866Y-67526206D01*
X226988866Y-67526206D02*
X227036485Y-67621444D01*
X227036485Y-67621444D02*
X227036485Y-67859539D01*
X227036485Y-67859539D02*
X226988866Y-67954777D01*
X226988866Y-67954777D02*
X226941247Y-68002397D01*
X226941247Y-68002397D02*
X226846009Y-68050016D01*
X226846009Y-68050016D02*
X226560295Y-68050016D01*
X226560295Y-68050016D02*
X226465057Y-68002397D01*
X226465057Y-68002397D02*
X226417438Y-67954777D01*
X227893628Y-67050016D02*
X227703152Y-67050016D01*
X227703152Y-67050016D02*
X227607914Y-67097635D01*
X227607914Y-67097635D02*
X227560295Y-67145254D01*
X227560295Y-67145254D02*
X227465057Y-67288111D01*
X227465057Y-67288111D02*
X227417438Y-67478587D01*
X227417438Y-67478587D02*
X227417438Y-67859539D01*
X227417438Y-67859539D02*
X227465057Y-67954777D01*
X227465057Y-67954777D02*
X227512676Y-68002397D01*
X227512676Y-68002397D02*
X227607914Y-68050016D01*
X227607914Y-68050016D02*
X227798390Y-68050016D01*
X227798390Y-68050016D02*
X227893628Y-68002397D01*
X227893628Y-68002397D02*
X227941247Y-67954777D01*
X227941247Y-67954777D02*
X227988866Y-67859539D01*
X227988866Y-67859539D02*
X227988866Y-67621444D01*
X227988866Y-67621444D02*
X227941247Y-67526206D01*
X227941247Y-67526206D02*
X227893628Y-67478587D01*
X227893628Y-67478587D02*
X227798390Y-67430968D01*
X227798390Y-67430968D02*
X227607914Y-67430968D01*
X227607914Y-67430968D02*
X227512676Y-67478587D01*
X227512676Y-67478587D02*
X227465057Y-67526206D01*
X227465057Y-67526206D02*
X227417438Y-67621444D01*
X226417438Y-64476723D02*
X227036485Y-64476723D01*
X227036485Y-64476723D02*
X226703152Y-64857675D01*
X226703152Y-64857675D02*
X226846009Y-64857675D01*
X226846009Y-64857675D02*
X226941247Y-64905294D01*
X226941247Y-64905294D02*
X226988866Y-64952913D01*
X226988866Y-64952913D02*
X227036485Y-65048151D01*
X227036485Y-65048151D02*
X227036485Y-65286246D01*
X227036485Y-65286246D02*
X226988866Y-65381484D01*
X226988866Y-65381484D02*
X226941247Y-65429104D01*
X226941247Y-65429104D02*
X226846009Y-65476723D01*
X226846009Y-65476723D02*
X226560295Y-65476723D01*
X226560295Y-65476723D02*
X226465057Y-65429104D01*
X226465057Y-65429104D02*
X226417438Y-65381484D01*
X227893628Y-64810056D02*
X227893628Y-65476723D01*
X227655533Y-64429104D02*
X227417438Y-65143389D01*
X227417438Y-65143389D02*
X228036485Y-65143389D01*
X226417438Y-61977329D02*
X227036485Y-61977329D01*
X227036485Y-61977329D02*
X226703152Y-62358281D01*
X226703152Y-62358281D02*
X226846009Y-62358281D01*
X226846009Y-62358281D02*
X226941247Y-62405900D01*
X226941247Y-62405900D02*
X226988866Y-62453519D01*
X226988866Y-62453519D02*
X227036485Y-62548757D01*
X227036485Y-62548757D02*
X227036485Y-62786852D01*
X227036485Y-62786852D02*
X226988866Y-62882090D01*
X226988866Y-62882090D02*
X226941247Y-62929710D01*
X226941247Y-62929710D02*
X226846009Y-62977329D01*
X226846009Y-62977329D02*
X226560295Y-62977329D01*
X226560295Y-62977329D02*
X226465057Y-62929710D01*
X226465057Y-62929710D02*
X226417438Y-62882090D01*
X227369819Y-61977329D02*
X227988866Y-61977329D01*
X227988866Y-61977329D02*
X227655533Y-62358281D01*
X227655533Y-62358281D02*
X227798390Y-62358281D01*
X227798390Y-62358281D02*
X227893628Y-62405900D01*
X227893628Y-62405900D02*
X227941247Y-62453519D01*
X227941247Y-62453519D02*
X227988866Y-62548757D01*
X227988866Y-62548757D02*
X227988866Y-62786852D01*
X227988866Y-62786852D02*
X227941247Y-62882090D01*
X227941247Y-62882090D02*
X227893628Y-62929710D01*
X227893628Y-62929710D02*
X227798390Y-62977329D01*
X227798390Y-62977329D02*
X227512676Y-62977329D01*
X227512676Y-62977329D02*
X227417438Y-62929710D01*
X227417438Y-62929710D02*
X227369819Y-62882090D01*
X226417438Y-59391744D02*
X227036485Y-59391744D01*
X227036485Y-59391744D02*
X226703152Y-59772696D01*
X226703152Y-59772696D02*
X226846009Y-59772696D01*
X226846009Y-59772696D02*
X226941247Y-59820315D01*
X226941247Y-59820315D02*
X226988866Y-59867934D01*
X226988866Y-59867934D02*
X227036485Y-59963172D01*
X227036485Y-59963172D02*
X227036485Y-60201267D01*
X227036485Y-60201267D02*
X226988866Y-60296505D01*
X226988866Y-60296505D02*
X226941247Y-60344125D01*
X226941247Y-60344125D02*
X226846009Y-60391744D01*
X226846009Y-60391744D02*
X226560295Y-60391744D01*
X226560295Y-60391744D02*
X226465057Y-60344125D01*
X226465057Y-60344125D02*
X226417438Y-60296505D01*
X227655533Y-59391744D02*
X227750771Y-59391744D01*
X227750771Y-59391744D02*
X227846009Y-59439363D01*
X227846009Y-59439363D02*
X227893628Y-59486982D01*
X227893628Y-59486982D02*
X227941247Y-59582220D01*
X227941247Y-59582220D02*
X227988866Y-59772696D01*
X227988866Y-59772696D02*
X227988866Y-60010791D01*
X227988866Y-60010791D02*
X227941247Y-60201267D01*
X227941247Y-60201267D02*
X227893628Y-60296505D01*
X227893628Y-60296505D02*
X227846009Y-60344125D01*
X227846009Y-60344125D02*
X227750771Y-60391744D01*
X227750771Y-60391744D02*
X227655533Y-60391744D01*
X227655533Y-60391744D02*
X227560295Y-60344125D01*
X227560295Y-60344125D02*
X227512676Y-60296505D01*
X227512676Y-60296505D02*
X227465057Y-60201267D01*
X227465057Y-60201267D02*
X227417438Y-60010791D01*
X227417438Y-60010791D02*
X227417438Y-59772696D01*
X227417438Y-59772696D02*
X227465057Y-59582220D01*
X227465057Y-59582220D02*
X227512676Y-59486982D01*
X227512676Y-59486982D02*
X227560295Y-59439363D01*
X227560295Y-59439363D02*
X227655533Y-59391744D01*
X226465057Y-56918544D02*
X226512676Y-56870925D01*
X226512676Y-56870925D02*
X226607914Y-56823306D01*
X226607914Y-56823306D02*
X226846009Y-56823306D01*
X226846009Y-56823306D02*
X226941247Y-56870925D01*
X226941247Y-56870925D02*
X226988866Y-56918544D01*
X226988866Y-56918544D02*
X227036485Y-57013782D01*
X227036485Y-57013782D02*
X227036485Y-57109020D01*
X227036485Y-57109020D02*
X226988866Y-57251877D01*
X226988866Y-57251877D02*
X226417438Y-57823306D01*
X226417438Y-57823306D02*
X227036485Y-57823306D01*
X227607914Y-57251877D02*
X227512676Y-57204258D01*
X227512676Y-57204258D02*
X227465057Y-57156639D01*
X227465057Y-57156639D02*
X227417438Y-57061401D01*
X227417438Y-57061401D02*
X227417438Y-57013782D01*
X227417438Y-57013782D02*
X227465057Y-56918544D01*
X227465057Y-56918544D02*
X227512676Y-56870925D01*
X227512676Y-56870925D02*
X227607914Y-56823306D01*
X227607914Y-56823306D02*
X227798390Y-56823306D01*
X227798390Y-56823306D02*
X227893628Y-56870925D01*
X227893628Y-56870925D02*
X227941247Y-56918544D01*
X227941247Y-56918544D02*
X227988866Y-57013782D01*
X227988866Y-57013782D02*
X227988866Y-57061401D01*
X227988866Y-57061401D02*
X227941247Y-57156639D01*
X227941247Y-57156639D02*
X227893628Y-57204258D01*
X227893628Y-57204258D02*
X227798390Y-57251877D01*
X227798390Y-57251877D02*
X227607914Y-57251877D01*
X227607914Y-57251877D02*
X227512676Y-57299496D01*
X227512676Y-57299496D02*
X227465057Y-57347115D01*
X227465057Y-57347115D02*
X227417438Y-57442353D01*
X227417438Y-57442353D02*
X227417438Y-57632829D01*
X227417438Y-57632829D02*
X227465057Y-57728067D01*
X227465057Y-57728067D02*
X227512676Y-57775687D01*
X227512676Y-57775687D02*
X227607914Y-57823306D01*
X227607914Y-57823306D02*
X227798390Y-57823306D01*
X227798390Y-57823306D02*
X227893628Y-57775687D01*
X227893628Y-57775687D02*
X227941247Y-57728067D01*
X227941247Y-57728067D02*
X227988866Y-57632829D01*
X227988866Y-57632829D02*
X227988866Y-57442353D01*
X227988866Y-57442353D02*
X227941247Y-57347115D01*
X227941247Y-57347115D02*
X227893628Y-57299496D01*
X227893628Y-57299496D02*
X227798390Y-57251877D01*
X226465057Y-54371957D02*
X226512676Y-54324338D01*
X226512676Y-54324338D02*
X226607914Y-54276719D01*
X226607914Y-54276719D02*
X226846009Y-54276719D01*
X226846009Y-54276719D02*
X226941247Y-54324338D01*
X226941247Y-54324338D02*
X226988866Y-54371957D01*
X226988866Y-54371957D02*
X227036485Y-54467195D01*
X227036485Y-54467195D02*
X227036485Y-54562433D01*
X227036485Y-54562433D02*
X226988866Y-54705290D01*
X226988866Y-54705290D02*
X226417438Y-55276719D01*
X226417438Y-55276719D02*
X227036485Y-55276719D01*
X227893628Y-54276719D02*
X227703152Y-54276719D01*
X227703152Y-54276719D02*
X227607914Y-54324338D01*
X227607914Y-54324338D02*
X227560295Y-54371957D01*
X227560295Y-54371957D02*
X227465057Y-54514814D01*
X227465057Y-54514814D02*
X227417438Y-54705290D01*
X227417438Y-54705290D02*
X227417438Y-55086242D01*
X227417438Y-55086242D02*
X227465057Y-55181480D01*
X227465057Y-55181480D02*
X227512676Y-55229100D01*
X227512676Y-55229100D02*
X227607914Y-55276719D01*
X227607914Y-55276719D02*
X227798390Y-55276719D01*
X227798390Y-55276719D02*
X227893628Y-55229100D01*
X227893628Y-55229100D02*
X227941247Y-55181480D01*
X227941247Y-55181480D02*
X227988866Y-55086242D01*
X227988866Y-55086242D02*
X227988866Y-54848147D01*
X227988866Y-54848147D02*
X227941247Y-54752909D01*
X227941247Y-54752909D02*
X227893628Y-54705290D01*
X227893628Y-54705290D02*
X227798390Y-54657671D01*
X227798390Y-54657671D02*
X227607914Y-54657671D01*
X227607914Y-54657671D02*
X227512676Y-54705290D01*
X227512676Y-54705290D02*
X227465057Y-54752909D01*
X227465057Y-54752909D02*
X227417438Y-54848147D01*
X226492674Y-51872563D02*
X226540293Y-51824944D01*
X226540293Y-51824944D02*
X226635531Y-51777325D01*
X226635531Y-51777325D02*
X226873626Y-51777325D01*
X226873626Y-51777325D02*
X226968864Y-51824944D01*
X226968864Y-51824944D02*
X227016483Y-51872563D01*
X227016483Y-51872563D02*
X227064102Y-51967801D01*
X227064102Y-51967801D02*
X227064102Y-52063039D01*
X227064102Y-52063039D02*
X227016483Y-52205896D01*
X227016483Y-52205896D02*
X226445055Y-52777325D01*
X226445055Y-52777325D02*
X227064102Y-52777325D01*
X227921245Y-52110658D02*
X227921245Y-52777325D01*
X227683150Y-51729706D02*
X227445055Y-52443991D01*
X227445055Y-52443991D02*
X228064102Y-52443991D01*
X226465057Y-49245552D02*
X226512676Y-49197933D01*
X226512676Y-49197933D02*
X226607914Y-49150314D01*
X226607914Y-49150314D02*
X226846009Y-49150314D01*
X226846009Y-49150314D02*
X226941247Y-49197933D01*
X226941247Y-49197933D02*
X226988866Y-49245552D01*
X226988866Y-49245552D02*
X227036485Y-49340790D01*
X227036485Y-49340790D02*
X227036485Y-49436028D01*
X227036485Y-49436028D02*
X226988866Y-49578885D01*
X226988866Y-49578885D02*
X226417438Y-50150314D01*
X226417438Y-50150314D02*
X227036485Y-50150314D01*
X227417438Y-49245552D02*
X227465057Y-49197933D01*
X227465057Y-49197933D02*
X227560295Y-49150314D01*
X227560295Y-49150314D02*
X227798390Y-49150314D01*
X227798390Y-49150314D02*
X227893628Y-49197933D01*
X227893628Y-49197933D02*
X227941247Y-49245552D01*
X227941247Y-49245552D02*
X227988866Y-49340790D01*
X227988866Y-49340790D02*
X227988866Y-49436028D01*
X227988866Y-49436028D02*
X227941247Y-49578885D01*
X227941247Y-49578885D02*
X227369819Y-50150314D01*
X227369819Y-50150314D02*
X227988866Y-50150314D01*
X206451502Y-105043734D02*
X206451502Y-104567544D01*
X206737217Y-105138972D02*
X205737217Y-104805639D01*
X205737217Y-104805639D02*
X206737217Y-104472306D01*
X206737217Y-103615163D02*
X206737217Y-104186591D01*
X206737217Y-103900877D02*
X205737217Y-103900877D01*
X205737217Y-103900877D02*
X205880074Y-103996115D01*
X205880074Y-103996115D02*
X205975312Y-104091353D01*
X205975312Y-104091353D02*
X206022931Y-104186591D01*
X205737217Y-102710401D02*
X205737217Y-103186591D01*
X205737217Y-103186591D02*
X206213407Y-103234210D01*
X206213407Y-103234210D02*
X206165788Y-103186591D01*
X206165788Y-103186591D02*
X206118169Y-103091353D01*
X206118169Y-103091353D02*
X206118169Y-102853258D01*
X206118169Y-102853258D02*
X206165788Y-102758020D01*
X206165788Y-102758020D02*
X206213407Y-102710401D01*
X206213407Y-102710401D02*
X206308645Y-102662782D01*
X206308645Y-102662782D02*
X206546740Y-102662782D01*
X206546740Y-102662782D02*
X206641978Y-102710401D01*
X206641978Y-102710401D02*
X206689598Y-102758020D01*
X206689598Y-102758020D02*
X206737217Y-102853258D01*
X206737217Y-102853258D02*
X206737217Y-103091353D01*
X206737217Y-103091353D02*
X206689598Y-103186591D01*
X206689598Y-103186591D02*
X206641978Y-103234210D01*
X203772594Y-105043734D02*
X203772594Y-104567544D01*
X204058309Y-105138972D02*
X203058309Y-104805639D01*
X203058309Y-104805639D02*
X204058309Y-104472306D01*
X204058309Y-103615163D02*
X204058309Y-104186591D01*
X204058309Y-103900877D02*
X203058309Y-103900877D01*
X203058309Y-103900877D02*
X203201166Y-103996115D01*
X203201166Y-103996115D02*
X203296404Y-104091353D01*
X203296404Y-104091353D02*
X203344023Y-104186591D01*
X203391642Y-102758020D02*
X204058309Y-102758020D01*
X203010690Y-102996115D02*
X203724975Y-103234210D01*
X203724975Y-103234210D02*
X203724975Y-102615163D01*
X201162729Y-105043734D02*
X201162729Y-104567544D01*
X201448444Y-105138972D02*
X200448444Y-104805639D01*
X200448444Y-104805639D02*
X201448444Y-104472306D01*
X201448444Y-103615163D02*
X201448444Y-104186591D01*
X201448444Y-103900877D02*
X200448444Y-103900877D01*
X200448444Y-103900877D02*
X200591301Y-103996115D01*
X200591301Y-103996115D02*
X200686539Y-104091353D01*
X200686539Y-104091353D02*
X200734158Y-104186591D01*
X200448444Y-103281829D02*
X200448444Y-102662782D01*
X200448444Y-102662782D02*
X200829396Y-102996115D01*
X200829396Y-102996115D02*
X200829396Y-102853258D01*
X200829396Y-102853258D02*
X200877015Y-102758020D01*
X200877015Y-102758020D02*
X200924634Y-102710401D01*
X200924634Y-102710401D02*
X201019872Y-102662782D01*
X201019872Y-102662782D02*
X201257967Y-102662782D01*
X201257967Y-102662782D02*
X201353205Y-102710401D01*
X201353205Y-102710401D02*
X201400825Y-102758020D01*
X201400825Y-102758020D02*
X201448444Y-102853258D01*
X201448444Y-102853258D02*
X201448444Y-103138972D01*
X201448444Y-103138972D02*
X201400825Y-103234210D01*
X201400825Y-103234210D02*
X201353205Y-103281829D01*
X198759997Y-105043734D02*
X198759997Y-104567544D01*
X199045712Y-105138972D02*
X198045712Y-104805639D01*
X198045712Y-104805639D02*
X199045712Y-104472306D01*
X199045712Y-103615163D02*
X199045712Y-104186591D01*
X199045712Y-103900877D02*
X198045712Y-103900877D01*
X198045712Y-103900877D02*
X198188569Y-103996115D01*
X198188569Y-103996115D02*
X198283807Y-104091353D01*
X198283807Y-104091353D02*
X198331426Y-104186591D01*
X198140950Y-103234210D02*
X198093331Y-103186591D01*
X198093331Y-103186591D02*
X198045712Y-103091353D01*
X198045712Y-103091353D02*
X198045712Y-102853258D01*
X198045712Y-102853258D02*
X198093331Y-102758020D01*
X198093331Y-102758020D02*
X198140950Y-102710401D01*
X198140950Y-102710401D02*
X198236188Y-102662782D01*
X198236188Y-102662782D02*
X198331426Y-102662782D01*
X198331426Y-102662782D02*
X198474283Y-102710401D01*
X198474283Y-102710401D02*
X199045712Y-103281829D01*
X199045712Y-103281829D02*
X199045712Y-102662782D01*
X196255751Y-105038423D02*
X196255751Y-104562233D01*
X196541466Y-105133661D02*
X195541466Y-104800328D01*
X195541466Y-104800328D02*
X196541466Y-104466995D01*
X196541466Y-103609852D02*
X196541466Y-104181280D01*
X196541466Y-103895566D02*
X195541466Y-103895566D01*
X195541466Y-103895566D02*
X195684323Y-103990804D01*
X195684323Y-103990804D02*
X195779561Y-104086042D01*
X195779561Y-104086042D02*
X195827180Y-104181280D01*
X195636704Y-103228899D02*
X195589085Y-103181280D01*
X195589085Y-103181280D02*
X195541466Y-103086042D01*
X195541466Y-103086042D02*
X195541466Y-102847947D01*
X195541466Y-102847947D02*
X195589085Y-102752709D01*
X195589085Y-102752709D02*
X195636704Y-102705090D01*
X195636704Y-102705090D02*
X195731942Y-102657471D01*
X195731942Y-102657471D02*
X195827180Y-102657471D01*
X195827180Y-102657471D02*
X195970037Y-102705090D01*
X195970037Y-102705090D02*
X196541466Y-103276518D01*
X196541466Y-103276518D02*
X196541466Y-102657471D01*
X193742548Y-105038423D02*
X193742548Y-104562233D01*
X194028263Y-105133661D02*
X193028263Y-104800328D01*
X193028263Y-104800328D02*
X194028263Y-104466995D01*
X194028263Y-103609852D02*
X194028263Y-104181280D01*
X194028263Y-103895566D02*
X193028263Y-103895566D01*
X193028263Y-103895566D02*
X193171120Y-103990804D01*
X193171120Y-103990804D02*
X193266358Y-104086042D01*
X193266358Y-104086042D02*
X193313977Y-104181280D01*
X194028263Y-102657471D02*
X194028263Y-103228899D01*
X194028263Y-102943185D02*
X193028263Y-102943185D01*
X193028263Y-102943185D02*
X193171120Y-103038423D01*
X193171120Y-103038423D02*
X193266358Y-103133661D01*
X193266358Y-103133661D02*
X193313977Y-103228899D01*
X191160302Y-105038423D02*
X191160302Y-104562233D01*
X191446017Y-105133661D02*
X190446017Y-104800328D01*
X190446017Y-104800328D02*
X191446017Y-104466995D01*
X191446017Y-103609852D02*
X191446017Y-104181280D01*
X191446017Y-103895566D02*
X190446017Y-103895566D01*
X190446017Y-103895566D02*
X190588874Y-103990804D01*
X190588874Y-103990804D02*
X190684112Y-104086042D01*
X190684112Y-104086042D02*
X190731731Y-104181280D01*
X190446017Y-102990804D02*
X190446017Y-102895566D01*
X190446017Y-102895566D02*
X190493636Y-102800328D01*
X190493636Y-102800328D02*
X190541255Y-102752709D01*
X190541255Y-102752709D02*
X190636493Y-102705090D01*
X190636493Y-102705090D02*
X190826969Y-102657471D01*
X190826969Y-102657471D02*
X191065064Y-102657471D01*
X191065064Y-102657471D02*
X191255540Y-102705090D01*
X191255540Y-102705090D02*
X191350778Y-102752709D01*
X191350778Y-102752709D02*
X191398398Y-102800328D01*
X191398398Y-102800328D02*
X191446017Y-102895566D01*
X191446017Y-102895566D02*
X191446017Y-102990804D01*
X191446017Y-102990804D02*
X191398398Y-103086042D01*
X191398398Y-103086042D02*
X191350778Y-103133661D01*
X191350778Y-103133661D02*
X191255540Y-103181280D01*
X191255540Y-103181280D02*
X191065064Y-103228899D01*
X191065064Y-103228899D02*
X190826969Y-103228899D01*
X190826969Y-103228899D02*
X190636493Y-103181280D01*
X190636493Y-103181280D02*
X190541255Y-103133661D01*
X190541255Y-103133661D02*
X190493636Y-103086042D01*
X190493636Y-103086042D02*
X190446017Y-102990804D01*
X188578055Y-105038423D02*
X188578055Y-104562233D01*
X188863770Y-105133661D02*
X187863770Y-104800328D01*
X187863770Y-104800328D02*
X188863770Y-104466995D01*
X188863770Y-104086042D02*
X188863770Y-103895566D01*
X188863770Y-103895566D02*
X188816151Y-103800328D01*
X188816151Y-103800328D02*
X188768531Y-103752709D01*
X188768531Y-103752709D02*
X188625674Y-103657471D01*
X188625674Y-103657471D02*
X188435198Y-103609852D01*
X188435198Y-103609852D02*
X188054246Y-103609852D01*
X188054246Y-103609852D02*
X187959008Y-103657471D01*
X187959008Y-103657471D02*
X187911389Y-103705090D01*
X187911389Y-103705090D02*
X187863770Y-103800328D01*
X187863770Y-103800328D02*
X187863770Y-103990804D01*
X187863770Y-103990804D02*
X187911389Y-104086042D01*
X187911389Y-104086042D02*
X187959008Y-104133661D01*
X187959008Y-104133661D02*
X188054246Y-104181280D01*
X188054246Y-104181280D02*
X188292341Y-104181280D01*
X188292341Y-104181280D02*
X188387579Y-104133661D01*
X188387579Y-104133661D02*
X188435198Y-104086042D01*
X188435198Y-104086042D02*
X188482817Y-103990804D01*
X188482817Y-103990804D02*
X188482817Y-103800328D01*
X188482817Y-103800328D02*
X188435198Y-103705090D01*
X188435198Y-103705090D02*
X188387579Y-103657471D01*
X188387579Y-103657471D02*
X188292341Y-103609852D01*
X182686704Y-105043734D02*
X182686704Y-104567544D01*
X182972419Y-105138972D02*
X181972419Y-104805639D01*
X181972419Y-104805639D02*
X182972419Y-104472306D01*
X182400990Y-103996115D02*
X182353371Y-104091353D01*
X182353371Y-104091353D02*
X182305752Y-104138972D01*
X182305752Y-104138972D02*
X182210514Y-104186591D01*
X182210514Y-104186591D02*
X182162895Y-104186591D01*
X182162895Y-104186591D02*
X182067657Y-104138972D01*
X182067657Y-104138972D02*
X182020038Y-104091353D01*
X182020038Y-104091353D02*
X181972419Y-103996115D01*
X181972419Y-103996115D02*
X181972419Y-103805639D01*
X181972419Y-103805639D02*
X182020038Y-103710401D01*
X182020038Y-103710401D02*
X182067657Y-103662782D01*
X182067657Y-103662782D02*
X182162895Y-103615163D01*
X182162895Y-103615163D02*
X182210514Y-103615163D01*
X182210514Y-103615163D02*
X182305752Y-103662782D01*
X182305752Y-103662782D02*
X182353371Y-103710401D01*
X182353371Y-103710401D02*
X182400990Y-103805639D01*
X182400990Y-103805639D02*
X182400990Y-103996115D01*
X182400990Y-103996115D02*
X182448609Y-104091353D01*
X182448609Y-104091353D02*
X182496228Y-104138972D01*
X182496228Y-104138972D02*
X182591466Y-104186591D01*
X182591466Y-104186591D02*
X182781942Y-104186591D01*
X182781942Y-104186591D02*
X182877180Y-104138972D01*
X182877180Y-104138972D02*
X182924800Y-104091353D01*
X182924800Y-104091353D02*
X182972419Y-103996115D01*
X182972419Y-103996115D02*
X182972419Y-103805639D01*
X182972419Y-103805639D02*
X182924800Y-103710401D01*
X182924800Y-103710401D02*
X182877180Y-103662782D01*
X182877180Y-103662782D02*
X182781942Y-103615163D01*
X182781942Y-103615163D02*
X182591466Y-103615163D01*
X182591466Y-103615163D02*
X182496228Y-103662782D01*
X182496228Y-103662782D02*
X182448609Y-103710401D01*
X182448609Y-103710401D02*
X182400990Y-103805639D01*
X180186704Y-105043734D02*
X180186704Y-104567544D01*
X180472419Y-105138972D02*
X179472419Y-104805639D01*
X179472419Y-104805639D02*
X180472419Y-104472306D01*
X179472419Y-104234210D02*
X179472419Y-103567544D01*
X179472419Y-103567544D02*
X180472419Y-103996115D01*
X177686704Y-105043734D02*
X177686704Y-104567544D01*
X177972419Y-105138972D02*
X176972419Y-104805639D01*
X176972419Y-104805639D02*
X177972419Y-104472306D01*
X176972419Y-103710401D02*
X176972419Y-103900877D01*
X176972419Y-103900877D02*
X177020038Y-103996115D01*
X177020038Y-103996115D02*
X177067657Y-104043734D01*
X177067657Y-104043734D02*
X177210514Y-104138972D01*
X177210514Y-104138972D02*
X177400990Y-104186591D01*
X177400990Y-104186591D02*
X177781942Y-104186591D01*
X177781942Y-104186591D02*
X177877180Y-104138972D01*
X177877180Y-104138972D02*
X177924800Y-104091353D01*
X177924800Y-104091353D02*
X177972419Y-103996115D01*
X177972419Y-103996115D02*
X177972419Y-103805639D01*
X177972419Y-103805639D02*
X177924800Y-103710401D01*
X177924800Y-103710401D02*
X177877180Y-103662782D01*
X177877180Y-103662782D02*
X177781942Y-103615163D01*
X177781942Y-103615163D02*
X177543847Y-103615163D01*
X177543847Y-103615163D02*
X177448609Y-103662782D01*
X177448609Y-103662782D02*
X177400990Y-103710401D01*
X177400990Y-103710401D02*
X177353371Y-103805639D01*
X177353371Y-103805639D02*
X177353371Y-103996115D01*
X177353371Y-103996115D02*
X177400990Y-104091353D01*
X177400990Y-104091353D02*
X177448609Y-104138972D01*
X177448609Y-104138972D02*
X177543847Y-104186591D01*
X175107140Y-105025322D02*
X175107140Y-104549132D01*
X175392855Y-105120560D02*
X174392855Y-104787227D01*
X174392855Y-104787227D02*
X175392855Y-104453894D01*
X174392855Y-103644370D02*
X174392855Y-104120560D01*
X174392855Y-104120560D02*
X174869045Y-104168179D01*
X174869045Y-104168179D02*
X174821426Y-104120560D01*
X174821426Y-104120560D02*
X174773807Y-104025322D01*
X174773807Y-104025322D02*
X174773807Y-103787227D01*
X174773807Y-103787227D02*
X174821426Y-103691989D01*
X174821426Y-103691989D02*
X174869045Y-103644370D01*
X174869045Y-103644370D02*
X174964283Y-103596751D01*
X174964283Y-103596751D02*
X175202378Y-103596751D01*
X175202378Y-103596751D02*
X175297616Y-103644370D01*
X175297616Y-103644370D02*
X175345236Y-103691989D01*
X175345236Y-103691989D02*
X175392855Y-103787227D01*
X175392855Y-103787227D02*
X175392855Y-104025322D01*
X175392855Y-104025322D02*
X175345236Y-104120560D01*
X175345236Y-104120560D02*
X175297616Y-104168179D01*
X172520290Y-105043734D02*
X172520290Y-104567544D01*
X172806005Y-105138972D02*
X171806005Y-104805639D01*
X171806005Y-104805639D02*
X172806005Y-104472306D01*
X172139338Y-103710401D02*
X172806005Y-103710401D01*
X171758386Y-103948496D02*
X172472671Y-104186591D01*
X172472671Y-104186591D02*
X172472671Y-103567544D01*
X169988676Y-105034528D02*
X169988676Y-104558338D01*
X170274391Y-105129766D02*
X169274391Y-104796433D01*
X169274391Y-104796433D02*
X170274391Y-104463100D01*
X169274391Y-104225004D02*
X169274391Y-103605957D01*
X169274391Y-103605957D02*
X169655343Y-103939290D01*
X169655343Y-103939290D02*
X169655343Y-103796433D01*
X169655343Y-103796433D02*
X169702962Y-103701195D01*
X169702962Y-103701195D02*
X169750581Y-103653576D01*
X169750581Y-103653576D02*
X169845819Y-103605957D01*
X169845819Y-103605957D02*
X170083914Y-103605957D01*
X170083914Y-103605957D02*
X170179152Y-103653576D01*
X170179152Y-103653576D02*
X170226772Y-103701195D01*
X170226772Y-103701195D02*
X170274391Y-103796433D01*
X170274391Y-103796433D02*
X170274391Y-104082147D01*
X170274391Y-104082147D02*
X170226772Y-104177385D01*
X170226772Y-104177385D02*
X170179152Y-104225004D01*
X167386704Y-105043734D02*
X167386704Y-104567544D01*
X167672419Y-105138972D02*
X166672419Y-104805639D01*
X166672419Y-104805639D02*
X167672419Y-104472306D01*
X166767657Y-104186591D02*
X166720038Y-104138972D01*
X166720038Y-104138972D02*
X166672419Y-104043734D01*
X166672419Y-104043734D02*
X166672419Y-103805639D01*
X166672419Y-103805639D02*
X166720038Y-103710401D01*
X166720038Y-103710401D02*
X166767657Y-103662782D01*
X166767657Y-103662782D02*
X166862895Y-103615163D01*
X166862895Y-103615163D02*
X166958133Y-103615163D01*
X166958133Y-103615163D02*
X167100990Y-103662782D01*
X167100990Y-103662782D02*
X167672419Y-104234210D01*
X167672419Y-104234210D02*
X167672419Y-103615163D01*
X164778205Y-105043380D02*
X164778205Y-104567190D01*
X165063920Y-105138618D02*
X164063920Y-104805285D01*
X164063920Y-104805285D02*
X165063920Y-104471952D01*
X165063920Y-103614809D02*
X165063920Y-104186237D01*
X165063920Y-103900523D02*
X164063920Y-103900523D01*
X164063920Y-103900523D02*
X164206777Y-103995761D01*
X164206777Y-103995761D02*
X164302015Y-104090999D01*
X164302015Y-104090999D02*
X164349634Y-104186237D01*
X208786704Y-39193734D02*
X208786704Y-38717544D01*
X209072419Y-39288972D02*
X208072419Y-38955639D01*
X208072419Y-38955639D02*
X209072419Y-38622306D01*
X208977180Y-37717544D02*
X209024800Y-37765163D01*
X209024800Y-37765163D02*
X209072419Y-37908020D01*
X209072419Y-37908020D02*
X209072419Y-38003258D01*
X209072419Y-38003258D02*
X209024800Y-38146115D01*
X209024800Y-38146115D02*
X208929561Y-38241353D01*
X208929561Y-38241353D02*
X208834323Y-38288972D01*
X208834323Y-38288972D02*
X208643847Y-38336591D01*
X208643847Y-38336591D02*
X208500990Y-38336591D01*
X208500990Y-38336591D02*
X208310514Y-38288972D01*
X208310514Y-38288972D02*
X208215276Y-38241353D01*
X208215276Y-38241353D02*
X208120038Y-38146115D01*
X208120038Y-38146115D02*
X208072419Y-38003258D01*
X208072419Y-38003258D02*
X208072419Y-37908020D01*
X208072419Y-37908020D02*
X208120038Y-37765163D01*
X208120038Y-37765163D02*
X208167657Y-37717544D01*
X208024800Y-36574687D02*
X209310514Y-37431829D01*
X209072419Y-36241353D02*
X208072419Y-36241353D01*
X208072419Y-36241353D02*
X208072419Y-36003258D01*
X208072419Y-36003258D02*
X208120038Y-35860401D01*
X208120038Y-35860401D02*
X208215276Y-35765163D01*
X208215276Y-35765163D02*
X208310514Y-35717544D01*
X208310514Y-35717544D02*
X208500990Y-35669925D01*
X208500990Y-35669925D02*
X208643847Y-35669925D01*
X208643847Y-35669925D02*
X208834323Y-35717544D01*
X208834323Y-35717544D02*
X208929561Y-35765163D01*
X208929561Y-35765163D02*
X209024800Y-35860401D01*
X209024800Y-35860401D02*
X209072419Y-36003258D01*
X209072419Y-36003258D02*
X209072419Y-36241353D01*
X208977180Y-34669925D02*
X209024800Y-34717544D01*
X209024800Y-34717544D02*
X209072419Y-34860401D01*
X209072419Y-34860401D02*
X209072419Y-34955639D01*
X209072419Y-34955639D02*
X209024800Y-35098496D01*
X209024800Y-35098496D02*
X208929561Y-35193734D01*
X208929561Y-35193734D02*
X208834323Y-35241353D01*
X208834323Y-35241353D02*
X208643847Y-35288972D01*
X208643847Y-35288972D02*
X208500990Y-35288972D01*
X208500990Y-35288972D02*
X208310514Y-35241353D01*
X208310514Y-35241353D02*
X208215276Y-35193734D01*
X208215276Y-35193734D02*
X208120038Y-35098496D01*
X208120038Y-35098496D02*
X208072419Y-34955639D01*
X208072419Y-34955639D02*
X208072419Y-34860401D01*
X208072419Y-34860401D02*
X208120038Y-34717544D01*
X208120038Y-34717544D02*
X208167657Y-34669925D01*
X225572419Y-39024687D02*
X225096228Y-39358020D01*
X225572419Y-39596115D02*
X224572419Y-39596115D01*
X224572419Y-39596115D02*
X224572419Y-39215163D01*
X224572419Y-39215163D02*
X224620038Y-39119925D01*
X224620038Y-39119925D02*
X224667657Y-39072306D01*
X224667657Y-39072306D02*
X224762895Y-39024687D01*
X224762895Y-39024687D02*
X224905752Y-39024687D01*
X224905752Y-39024687D02*
X225000990Y-39072306D01*
X225000990Y-39072306D02*
X225048609Y-39119925D01*
X225048609Y-39119925D02*
X225096228Y-39215163D01*
X225096228Y-39215163D02*
X225096228Y-39596115D01*
X225048609Y-38596115D02*
X225048609Y-38262782D01*
X225572419Y-38119925D02*
X225572419Y-38596115D01*
X225572419Y-38596115D02*
X224572419Y-38596115D01*
X224572419Y-38596115D02*
X224572419Y-38119925D01*
X225524800Y-37738972D02*
X225572419Y-37596115D01*
X225572419Y-37596115D02*
X225572419Y-37358020D01*
X225572419Y-37358020D02*
X225524800Y-37262782D01*
X225524800Y-37262782D02*
X225477180Y-37215163D01*
X225477180Y-37215163D02*
X225381942Y-37167544D01*
X225381942Y-37167544D02*
X225286704Y-37167544D01*
X225286704Y-37167544D02*
X225191466Y-37215163D01*
X225191466Y-37215163D02*
X225143847Y-37262782D01*
X225143847Y-37262782D02*
X225096228Y-37358020D01*
X225096228Y-37358020D02*
X225048609Y-37548496D01*
X225048609Y-37548496D02*
X225000990Y-37643734D01*
X225000990Y-37643734D02*
X224953371Y-37691353D01*
X224953371Y-37691353D02*
X224858133Y-37738972D01*
X224858133Y-37738972D02*
X224762895Y-37738972D01*
X224762895Y-37738972D02*
X224667657Y-37691353D01*
X224667657Y-37691353D02*
X224620038Y-37643734D01*
X224620038Y-37643734D02*
X224572419Y-37548496D01*
X224572419Y-37548496D02*
X224572419Y-37310401D01*
X224572419Y-37310401D02*
X224620038Y-37167544D01*
X225048609Y-36738972D02*
X225048609Y-36405639D01*
X225572419Y-36262782D02*
X225572419Y-36738972D01*
X225572419Y-36738972D02*
X224572419Y-36738972D01*
X224572419Y-36738972D02*
X224572419Y-36262782D01*
X224572419Y-35977067D02*
X224572419Y-35405639D01*
X225572419Y-35691353D02*
X224572419Y-35691353D01*
D11*
X158378571Y-94028059D02*
X158140476Y-94028059D01*
X158140476Y-94028059D02*
X158116667Y-94266154D01*
X158116667Y-94266154D02*
X158140476Y-94242345D01*
X158140476Y-94242345D02*
X158188095Y-94218535D01*
X158188095Y-94218535D02*
X158307143Y-94218535D01*
X158307143Y-94218535D02*
X158354762Y-94242345D01*
X158354762Y-94242345D02*
X158378571Y-94266154D01*
X158378571Y-94266154D02*
X158402381Y-94313773D01*
X158402381Y-94313773D02*
X158402381Y-94432821D01*
X158402381Y-94432821D02*
X158378571Y-94480440D01*
X158378571Y-94480440D02*
X158354762Y-94504250D01*
X158354762Y-94504250D02*
X158307143Y-94528059D01*
X158307143Y-94528059D02*
X158188095Y-94528059D01*
X158188095Y-94528059D02*
X158140476Y-94504250D01*
X158140476Y-94504250D02*
X158116667Y-94480440D01*
X158545238Y-94028059D02*
X158711904Y-94528059D01*
X158711904Y-94528059D02*
X158878571Y-94028059D01*
X159259523Y-94528059D02*
X159259523Y-94266154D01*
X159259523Y-94266154D02*
X159235713Y-94218535D01*
X159235713Y-94218535D02*
X159188094Y-94194726D01*
X159188094Y-94194726D02*
X159092856Y-94194726D01*
X159092856Y-94194726D02*
X159045237Y-94218535D01*
X159259523Y-94504250D02*
X159211904Y-94528059D01*
X159211904Y-94528059D02*
X159092856Y-94528059D01*
X159092856Y-94528059D02*
X159045237Y-94504250D01*
X159045237Y-94504250D02*
X159021428Y-94456630D01*
X159021428Y-94456630D02*
X159021428Y-94409011D01*
X159021428Y-94409011D02*
X159045237Y-94361392D01*
X159045237Y-94361392D02*
X159092856Y-94337583D01*
X159092856Y-94337583D02*
X159211904Y-94337583D01*
X159211904Y-94337583D02*
X159259523Y-94313773D01*
X160419048Y-94385202D02*
X160657143Y-94385202D01*
X160371429Y-94528059D02*
X160538095Y-94028059D01*
X160538095Y-94028059D02*
X160704762Y-94528059D01*
X161133333Y-94051869D02*
X161085714Y-94028059D01*
X161085714Y-94028059D02*
X161014285Y-94028059D01*
X161014285Y-94028059D02*
X160942857Y-94051869D01*
X160942857Y-94051869D02*
X160895238Y-94099488D01*
X160895238Y-94099488D02*
X160871428Y-94147107D01*
X160871428Y-94147107D02*
X160847619Y-94242345D01*
X160847619Y-94242345D02*
X160847619Y-94313773D01*
X160847619Y-94313773D02*
X160871428Y-94409011D01*
X160871428Y-94409011D02*
X160895238Y-94456630D01*
X160895238Y-94456630D02*
X160942857Y-94504250D01*
X160942857Y-94504250D02*
X161014285Y-94528059D01*
X161014285Y-94528059D02*
X161061904Y-94528059D01*
X161061904Y-94528059D02*
X161133333Y-94504250D01*
X161133333Y-94504250D02*
X161157142Y-94480440D01*
X161157142Y-94480440D02*
X161157142Y-94313773D01*
X161157142Y-94313773D02*
X161061904Y-94313773D01*
X161371428Y-94528059D02*
X161371428Y-94028059D01*
X161371428Y-94028059D02*
X161657142Y-94528059D01*
X161657142Y-94528059D02*
X161657142Y-94028059D01*
X161895238Y-94528059D02*
X161895238Y-94028059D01*
X161895238Y-94028059D02*
X162014286Y-94028059D01*
X162014286Y-94028059D02*
X162085714Y-94051869D01*
X162085714Y-94051869D02*
X162133333Y-94099488D01*
X162133333Y-94099488D02*
X162157143Y-94147107D01*
X162157143Y-94147107D02*
X162180952Y-94242345D01*
X162180952Y-94242345D02*
X162180952Y-94313773D01*
X162180952Y-94313773D02*
X162157143Y-94409011D01*
X162157143Y-94409011D02*
X162133333Y-94456630D01*
X162133333Y-94456630D02*
X162085714Y-94504250D01*
X162085714Y-94504250D02*
X162014286Y-94528059D01*
X162014286Y-94528059D02*
X161895238Y-94528059D01*
D12*
X214139580Y-103942857D02*
X214187200Y-103990476D01*
X214187200Y-103990476D02*
X214234819Y-104133333D01*
X214234819Y-104133333D02*
X214234819Y-104228571D01*
X214234819Y-104228571D02*
X214187200Y-104371428D01*
X214187200Y-104371428D02*
X214091961Y-104466666D01*
X214091961Y-104466666D02*
X213996723Y-104514285D01*
X213996723Y-104514285D02*
X213806247Y-104561904D01*
X213806247Y-104561904D02*
X213663390Y-104561904D01*
X213663390Y-104561904D02*
X213472914Y-104514285D01*
X213472914Y-104514285D02*
X213377676Y-104466666D01*
X213377676Y-104466666D02*
X213282438Y-104371428D01*
X213282438Y-104371428D02*
X213234819Y-104228571D01*
X213234819Y-104228571D02*
X213234819Y-104133333D01*
X213234819Y-104133333D02*
X213282438Y-103990476D01*
X213282438Y-103990476D02*
X213330057Y-103942857D01*
X214234819Y-102990476D02*
X214234819Y-103561904D01*
X214234819Y-103276190D02*
X213234819Y-103276190D01*
X213234819Y-103276190D02*
X213377676Y-103371428D01*
X213377676Y-103371428D02*
X213472914Y-103466666D01*
X213472914Y-103466666D02*
X213520533Y-103561904D01*
X213330057Y-102609523D02*
X213282438Y-102561904D01*
X213282438Y-102561904D02*
X213234819Y-102466666D01*
X213234819Y-102466666D02*
X213234819Y-102228571D01*
X213234819Y-102228571D02*
X213282438Y-102133333D01*
X213282438Y-102133333D02*
X213330057Y-102085714D01*
X213330057Y-102085714D02*
X213425295Y-102038095D01*
X213425295Y-102038095D02*
X213520533Y-102038095D01*
X213520533Y-102038095D02*
X213663390Y-102085714D01*
X213663390Y-102085714D02*
X214234819Y-102657142D01*
X214234819Y-102657142D02*
X214234819Y-102038095D01*
D13*
%TO.C,5Va*%
X158000000Y-92100000D02*
X159400000Y-92100000D01*
X158000000Y-93500000D02*
X158000000Y-92100000D01*
X159400000Y-92100000D02*
X159400000Y-93500000D01*
X159400000Y-93500000D02*
X158000000Y-93500000D01*
%TO.C,AGND*%
X160500000Y-92100000D02*
X161900000Y-92100000D01*
X160500000Y-93500000D02*
X160500000Y-92100000D01*
X161900000Y-92100000D02*
X161900000Y-93500000D01*
X161900000Y-93500000D02*
X160500000Y-93500000D01*
%TO.C,U1*%
X137080000Y-80090000D02*
X136610000Y-79750000D01*
X137080000Y-79410000D01*
X137080000Y-80090000D01*
G36*
X137080000Y-80090000D02*
G01*
X136610000Y-79750000D01*
X137080000Y-79410000D01*
X137080000Y-80090000D01*
G37*
X136860000Y-88260000D02*
X136605000Y-88260000D01*
X136860000Y-80540000D02*
X136860000Y-88260000D01*
X136605000Y-80540000D02*
X136860000Y-80540000D01*
X126595000Y-88260000D02*
X126340000Y-88260000D01*
X126340000Y-88260000D02*
X126340000Y-80540000D01*
X126340000Y-80540000D02*
X126595000Y-80540000D01*
%TO.C,C1*%
X130438748Y-77835000D02*
X130961252Y-77835000D01*
X130438748Y-76365000D02*
X130961252Y-76365000D01*
%TO.C,D4*%
X138000000Y-73560000D02*
X138000000Y-69550000D01*
X136000000Y-73560000D02*
X138000000Y-73560000D01*
X136000000Y-73560000D02*
X136000000Y-69550000D01*
D10*
%TO.C,U8*%
X192900000Y-69500000D02*
X192900000Y-69200000D01*
X192900000Y-69500000D02*
X192650000Y-69500000D01*
X192900000Y-55300000D02*
X192900000Y-55550000D01*
X192900000Y-55300000D02*
X192600000Y-55300000D01*
X179275000Y-55300000D02*
X179575000Y-55300000D01*
X179275000Y-55300000D02*
X178700000Y-55875000D01*
X178700000Y-69500000D02*
X179050000Y-69500000D01*
X178700000Y-69500000D02*
X178700000Y-69200000D01*
X178700000Y-56200000D02*
X177425000Y-56200000D01*
X178700000Y-55875000D02*
X178700000Y-56200000D01*
D13*
%TO.C,U12*%
X165790000Y-65680000D02*
X165110000Y-65680000D01*
X165450000Y-65210000D01*
X165790000Y-65680000D01*
G36*
X165790000Y-65680000D02*
G01*
X165110000Y-65680000D01*
X165450000Y-65210000D01*
X165790000Y-65680000D01*
G37*
X164660000Y-65460000D02*
X156940000Y-65460000D01*
X164660000Y-65205000D02*
X164660000Y-65460000D01*
X164660000Y-54940000D02*
X164660000Y-55195000D01*
X156940000Y-65460000D02*
X156940000Y-65205000D01*
X156940000Y-55195000D02*
X156940000Y-54940000D01*
X156940000Y-54940000D02*
X164660000Y-54940000D01*
%TO.C,U10*%
X217210000Y-86145000D02*
X216880000Y-86385000D01*
X216880000Y-85905000D01*
X217210000Y-86145000D01*
G36*
X217210000Y-86145000D02*
G01*
X216880000Y-86385000D01*
X216880000Y-85905000D01*
X217210000Y-86145000D01*
G37*
X221960000Y-89235000D02*
X221235000Y-89235000D01*
X221960000Y-88510000D02*
X221960000Y-89235000D01*
X221960000Y-85015000D02*
X221960000Y-85740000D01*
X221235000Y-85015000D02*
X221960000Y-85015000D01*
X218465000Y-89235000D02*
X217740000Y-89235000D01*
X217740000Y-89235000D02*
X217740000Y-88510000D01*
X217740000Y-85740000D02*
X217740000Y-85015000D01*
X217740000Y-85015000D02*
X218465000Y-85015000D01*
%TO.C,J8*%
X135080000Y-60980000D02*
X120080000Y-60980000D01*
X135080000Y-45980000D02*
X135080000Y-60980000D01*
X120280000Y-53480000D02*
X121280000Y-54480000D01*
X120280000Y-53480000D02*
X121280000Y-52480000D01*
X120080000Y-60980000D02*
X120080000Y-45980000D01*
X120080000Y-45980000D02*
X135080000Y-45980000D01*
%TO.C,U2*%
X166310000Y-95672500D02*
X165970000Y-95202500D01*
X166650000Y-95202500D01*
X166310000Y-95672500D01*
G36*
X166310000Y-95672500D02*
G01*
X165970000Y-95202500D01*
X166650000Y-95202500D01*
X166310000Y-95672500D01*
G37*
X168450000Y-101892500D02*
X156550000Y-101892500D01*
X168450000Y-95672500D02*
X168450000Y-101892500D01*
X166606000Y-95672500D02*
X168450000Y-95672500D01*
X156550000Y-101892500D02*
X156550000Y-95672500D01*
X156550000Y-95672500D02*
X166014000Y-95672500D01*
%TO.C,U7*%
X144340000Y-93340000D02*
X148460000Y-93340000D01*
X144340000Y-93435000D02*
X144340000Y-93340000D01*
X144340000Y-98460000D02*
X144340000Y-98365000D01*
X148460000Y-93340000D02*
X148460000Y-93435000D01*
X148460000Y-98365000D02*
X148460000Y-98460000D01*
X148460000Y-98460000D02*
X144340000Y-98460000D01*
X143800000Y-93430000D02*
X143560000Y-93100000D01*
X144040000Y-93100000D01*
X143800000Y-93430000D01*
G36*
X143800000Y-93430000D02*
G01*
X143560000Y-93100000D01*
X144040000Y-93100000D01*
X143800000Y-93430000D01*
G37*
%TO.C,R4*%
X211172936Y-99165000D02*
X211627064Y-99165000D01*
X211172936Y-100635000D02*
X211627064Y-100635000D01*
%TO.C,R17*%
X151765000Y-95827064D02*
X151765000Y-95372936D01*
X153235000Y-95827064D02*
X153235000Y-95372936D01*
%TO.C,SW3*%
X209800000Y-53300000D02*
X210400000Y-53300000D01*
X210100000Y-53600000D02*
X209800000Y-53300000D01*
X210400000Y-53300000D02*
X210100000Y-53600000D01*
X211500000Y-51600000D02*
X211500000Y-63300000D01*
X215600000Y-51600000D02*
X211500000Y-51600000D01*
X215600000Y-63300000D02*
X211500000Y-63300000D01*
X217100000Y-57400000D02*
X218100000Y-57400000D01*
X217600000Y-56900000D02*
X217600000Y-57900000D01*
X219600000Y-51500000D02*
X223700000Y-51500000D01*
X223700000Y-51500000D02*
X223700000Y-54100000D01*
X223700000Y-56100000D02*
X223700000Y-58700000D01*
X223700000Y-60700000D02*
X223700000Y-63300000D01*
X223700000Y-63300000D02*
X219600000Y-63300000D01*
X220600000Y-57400000D02*
G75*
G02*
X214600000Y-57400000I-3000000J0D01*
G01*
X214600000Y-57400000D02*
G75*
G02*
X220600000Y-57400000I3000000J0D01*
G01*
D10*
%TO.C,U9*%
X158200000Y-44200000D02*
X158200000Y-44700000D01*
X158200000Y-44200000D02*
X158700000Y-44200000D01*
X158200000Y-48800000D02*
X158200000Y-48300000D01*
X158200000Y-48800000D02*
X158700000Y-48800000D01*
X163400000Y-44200000D02*
X162900000Y-44200000D01*
X163400000Y-44200000D02*
X163400000Y-44700000D01*
X163400000Y-48300000D02*
X164200000Y-48300000D01*
X163400000Y-48800000D02*
X162900000Y-48800000D01*
X163400000Y-48800000D02*
X163400000Y-48300000D01*
D13*
%TO.C,R19*%
X144627064Y-90965000D02*
X144172936Y-90965000D01*
X144627064Y-92435000D02*
X144172936Y-92435000D01*
%TO.C,C13*%
X153961252Y-77852400D02*
X153438748Y-77852400D01*
X153961252Y-79322400D02*
X153438748Y-79322400D01*
%TO.C,C2*%
X139661252Y-76365000D02*
X139138748Y-76365000D01*
X139661252Y-77835000D02*
X139138748Y-77835000D01*
%TO.C,C37*%
X193838748Y-51965000D02*
X194361252Y-51965000D01*
X193838748Y-53435000D02*
X194361252Y-53435000D01*
%TO.C,C36*%
X144190000Y-67735000D02*
X144190000Y-74500000D01*
X147610000Y-67735000D02*
X144190000Y-67735000D01*
X147610000Y-74500000D02*
X147610000Y-67735000D01*
%TO.C,D2*%
X209715000Y-92040000D02*
X209715000Y-93960000D01*
X209715000Y-93960000D02*
X212400000Y-93960000D01*
X212400000Y-92040000D02*
X209715000Y-92040000D01*
%TO.C,C30*%
X164961252Y-65965000D02*
X164438748Y-65965000D01*
X164961252Y-67435000D02*
X164438748Y-67435000D01*
%TO.C,R9*%
X139085436Y-86665000D02*
X139539564Y-86665000D01*
X139085436Y-88135000D02*
X139539564Y-88135000D01*
D10*
%TO.C,U6*%
X159700000Y-81900000D02*
X159700000Y-82400000D01*
X159700000Y-81900000D02*
X160200000Y-81900000D01*
X159700000Y-86500000D02*
X159700000Y-86000000D01*
X159700000Y-86500000D02*
X160200000Y-86500000D01*
X164900000Y-81900000D02*
X164400000Y-81900000D01*
X164900000Y-81900000D02*
X164900000Y-82400000D01*
X164900000Y-86000000D02*
X165700000Y-86000000D01*
X164900000Y-86500000D02*
X164400000Y-86500000D01*
X164900000Y-86500000D02*
X164900000Y-86000000D01*
D13*
%TO.C,J1*%
X139670000Y-108880000D02*
X139670000Y-107500000D01*
X141050000Y-108880000D02*
X139670000Y-108880000D01*
X142320000Y-106120000D02*
X155130000Y-106120000D01*
X142320000Y-108880000D02*
X142320000Y-106120000D01*
X142320000Y-108880000D02*
X155130000Y-108880000D01*
X155130000Y-108880000D02*
X155130000Y-106120000D01*
%TO.C,C27*%
X215938748Y-94265000D02*
X216461252Y-94265000D01*
X215938748Y-95735000D02*
X216461252Y-95735000D01*
%TO.C,R18*%
X148065000Y-73372936D02*
X148065000Y-73827064D01*
X149535000Y-73372936D02*
X149535000Y-73827064D01*
%TO.C,R38*%
X206865000Y-60672936D02*
X206865000Y-61127064D01*
X208335000Y-60672936D02*
X208335000Y-61127064D01*
D10*
%TO.C,SW1*%
X217675000Y-33575000D02*
X218075000Y-33575000D01*
X217675000Y-33975000D02*
X217675000Y-33575000D01*
X217675000Y-39825000D02*
X217675000Y-39450000D01*
X218050000Y-39825000D02*
X217675000Y-39825000D01*
X223375000Y-39825000D02*
X223925000Y-39825000D01*
X223600000Y-33275000D02*
X223825000Y-33275000D01*
X223600000Y-33575000D02*
X223600000Y-33275000D01*
X223825000Y-33275000D02*
X223825000Y-31625000D01*
X223925000Y-33925000D02*
X223600000Y-33575000D01*
X223925000Y-33925000D02*
X223925000Y-34225000D01*
X223925000Y-39825000D02*
X223925000Y-39325000D01*
D13*
%TO.C,J10*%
X196980000Y-58740000D02*
X198360000Y-58740000D01*
X196980000Y-60120000D02*
X196980000Y-58740000D01*
X196980000Y-61390000D02*
X196980000Y-66580000D01*
X196980000Y-61390000D02*
X199630000Y-61390000D01*
X196980000Y-66580000D02*
X202280000Y-66580000D01*
X199630000Y-58740000D02*
X202280000Y-58740000D01*
X199630000Y-61390000D02*
X199630000Y-58740000D01*
X202280000Y-58740000D02*
X202280000Y-66580000D01*
%TO.C,R5*%
X211172936Y-97265000D02*
X211627064Y-97265000D01*
X211172936Y-98735000D02*
X211627064Y-98735000D01*
%TO.C,Q2*%
X140202500Y-67890000D02*
X141722500Y-67890000D01*
X140202500Y-68890000D02*
X140202500Y-67890000D01*
X140202500Y-71010000D02*
X140202500Y-70010000D01*
X141722500Y-67890000D02*
X141722500Y-67940000D01*
X141722500Y-69060000D02*
X141722500Y-69840000D01*
X141722500Y-70960000D02*
X141722500Y-71010000D01*
X141722500Y-71010000D02*
X140202500Y-71010000D01*
X142262500Y-69830000D02*
X142022500Y-69500000D01*
X142502500Y-69500000D01*
X142262500Y-69830000D01*
G36*
X142262500Y-69830000D02*
G01*
X142022500Y-69500000D01*
X142502500Y-69500000D01*
X142262500Y-69830000D01*
G37*
%TO.C,R35*%
X165465000Y-51872936D02*
X165465000Y-52327064D01*
X166935000Y-51872936D02*
X166935000Y-52327064D01*
%TO.C,C33*%
X204865000Y-74338748D02*
X204865000Y-74861252D01*
X206335000Y-74338748D02*
X206335000Y-74861252D01*
%TO.C,R6*%
X224665000Y-91614564D02*
X224665000Y-91160436D01*
X226135000Y-91614564D02*
X226135000Y-91160436D01*
%TO.C,R11*%
X227872936Y-104765000D02*
X228327064Y-104765000D01*
X227872936Y-106235000D02*
X228327064Y-106235000D01*
%TO.C,U13*%
X147990000Y-84890000D02*
X151210000Y-84890000D01*
X147990000Y-85090000D02*
X147990000Y-84890000D01*
X147990000Y-88110000D02*
X147990000Y-87910000D01*
X151210000Y-84890000D02*
X151210000Y-85090000D01*
X151210000Y-87910000D02*
X151210000Y-88110000D01*
X151210000Y-88110000D02*
X147990000Y-88110000D01*
X152040000Y-88240000D02*
X151560000Y-88240000D01*
X151800000Y-87910000D01*
X152040000Y-88240000D01*
G36*
X152040000Y-88240000D02*
G01*
X151560000Y-88240000D01*
X151800000Y-87910000D01*
X152040000Y-88240000D01*
G37*
%TO.C,C23*%
X177365000Y-52261252D02*
X177365000Y-51738748D01*
X178835000Y-52261252D02*
X178835000Y-51738748D01*
%TO.C,D7*%
X224240000Y-85415000D02*
X224240000Y-88100000D01*
X226160000Y-85415000D02*
X224240000Y-85415000D01*
X226160000Y-88100000D02*
X226160000Y-85415000D01*
%TO.C,R42*%
X164865000Y-88627064D02*
X164865000Y-88172936D01*
X166335000Y-88627064D02*
X166335000Y-88172936D01*
%TO.C,C8*%
X128665000Y-92938748D02*
X128665000Y-93461252D01*
X130135000Y-92938748D02*
X130135000Y-93461252D01*
%TO.C,C5*%
X139138748Y-78365000D02*
X139661252Y-78365000D01*
X139138748Y-79835000D02*
X139661252Y-79835000D01*
%TO.C,J5*%
X187090000Y-108880000D02*
X187090000Y-107500000D01*
X188470000Y-108880000D02*
X187090000Y-108880000D01*
X189740000Y-106120000D02*
X207630000Y-106120000D01*
X189740000Y-108880000D02*
X189740000Y-106120000D01*
X189740000Y-108880000D02*
X207630000Y-108880000D01*
X207630000Y-108880000D02*
X207630000Y-106120000D01*
%TO.C,C9*%
X132665000Y-92938748D02*
X132665000Y-93461252D01*
X134135000Y-92938748D02*
X134135000Y-93461252D01*
%TO.C,R8*%
X139085436Y-84765000D02*
X139539564Y-84765000D01*
X139085436Y-86235000D02*
X139539564Y-86235000D01*
%TO.C,C18*%
X147738748Y-75952400D02*
X148261252Y-75952400D01*
X147738748Y-77422400D02*
X148261252Y-77422400D01*
%TO.C,C6*%
X139661252Y-80365000D02*
X139138748Y-80365000D01*
X139661252Y-81835000D02*
X139138748Y-81835000D01*
%TO.C,C10*%
X223288748Y-96665000D02*
X223811252Y-96665000D01*
X223288748Y-98135000D02*
X223811252Y-98135000D01*
%TO.C,R37*%
X149272936Y-70165000D02*
X149727064Y-70165000D01*
X149272936Y-71635000D02*
X149727064Y-71635000D01*
%TO.C,R29*%
X171785436Y-71340000D02*
X172239564Y-71340000D01*
X171785436Y-72810000D02*
X172239564Y-72810000D01*
%TO.C,C4*%
X123138748Y-83165000D02*
X123661252Y-83165000D01*
X123138748Y-84635000D02*
X123661252Y-84635000D01*
%TO.C,C22*%
X175261252Y-59265000D02*
X174738748Y-59265000D01*
X175261252Y-60735000D02*
X174738748Y-60735000D01*
%TO.C,C11*%
X211661252Y-94265000D02*
X211138748Y-94265000D01*
X211661252Y-95735000D02*
X211138748Y-95735000D01*
%TO.C,R23*%
X154327064Y-82965000D02*
X153872936Y-82965000D01*
X154327064Y-84435000D02*
X153872936Y-84435000D01*
%TO.C,R33*%
X215160436Y-90365000D02*
X215614564Y-90365000D01*
X215160436Y-91835000D02*
X215614564Y-91835000D01*
%TO.C,R14*%
X144727064Y-80565000D02*
X144272936Y-80565000D01*
X144727064Y-82035000D02*
X144272936Y-82035000D01*
%TO.C,C31*%
X204865000Y-54161252D02*
X204865000Y-53638748D01*
X206335000Y-54161252D02*
X206335000Y-53638748D01*
%TO.C,F1*%
X168890000Y-96941422D02*
X168890000Y-97458578D01*
X170310000Y-96941422D02*
X170310000Y-97458578D01*
%TO.C,J7*%
X228620000Y-45760000D02*
X230000000Y-45760000D01*
X228620000Y-47140000D02*
X228620000Y-45760000D01*
X228620000Y-48410000D02*
X228620000Y-91700000D01*
X228620000Y-48410000D02*
X231270000Y-48410000D01*
X228620000Y-91700000D02*
X233920000Y-91700000D01*
X231270000Y-45760000D02*
X233920000Y-45760000D01*
X231270000Y-48410000D02*
X231270000Y-45760000D01*
X233920000Y-45760000D02*
X233920000Y-91700000D01*
%TO.C,R31*%
X140927064Y-71865000D02*
X140472936Y-71865000D01*
X140927064Y-73335000D02*
X140472936Y-73335000D01*
%TO.C,R21*%
X147772936Y-77952400D02*
X148227064Y-77952400D01*
X147772936Y-79422400D02*
X148227064Y-79422400D01*
%TO.C,D6*%
X212440000Y-86100000D02*
X212440000Y-88785000D01*
X212440000Y-88785000D02*
X214360000Y-88785000D01*
X214360000Y-88785000D02*
X214360000Y-86100000D01*
%TO.C,C28*%
X212665000Y-82738748D02*
X212665000Y-83261252D01*
X214135000Y-82738748D02*
X214135000Y-83261252D01*
%TO.C,Y1*%
X168640000Y-82240000D02*
X168640000Y-88110000D01*
X172360000Y-82240000D02*
X168640000Y-82240000D01*
X172360000Y-88110000D02*
X172360000Y-82240000D01*
%TO.C,C24*%
X224365000Y-44738748D02*
X224365000Y-45261252D01*
X225835000Y-44738748D02*
X225835000Y-45261252D01*
%TO.C,R41*%
X214465000Y-44772936D02*
X214465000Y-45227064D01*
X215935000Y-44772936D02*
X215935000Y-45227064D01*
D14*
%TO.C,U3*%
X218499999Y-96449999D02*
X218325001Y-96449999D01*
X218499999Y-98749999D02*
X218325001Y-98749999D01*
X220474999Y-96449999D02*
X220300001Y-96449999D01*
X220474999Y-98749999D02*
X219825000Y-98749999D01*
D10*
%TO.C,SW4*%
X209675000Y-33575000D02*
X210075000Y-33575000D01*
X209675000Y-33975000D02*
X209675000Y-33575000D01*
X209675000Y-39825000D02*
X209675000Y-39450000D01*
X210050000Y-39825000D02*
X209675000Y-39825000D01*
X215375000Y-39825000D02*
X215925000Y-39825000D01*
X215600000Y-33275000D02*
X215825000Y-33275000D01*
X215600000Y-33575000D02*
X215600000Y-33275000D01*
X215825000Y-33275000D02*
X215825000Y-31625000D01*
X215925000Y-33925000D02*
X215600000Y-33575000D01*
X215925000Y-33925000D02*
X215925000Y-34225000D01*
X215925000Y-39825000D02*
X215925000Y-39325000D01*
D13*
%TO.C,C35*%
X216465000Y-44738748D02*
X216465000Y-45261252D01*
X217935000Y-44738748D02*
X217935000Y-45261252D01*
%TO.C,R26*%
X173065000Y-83672936D02*
X173065000Y-84127064D01*
X174535000Y-83672936D02*
X174535000Y-84127064D01*
%TO.C,C19*%
X170638748Y-80165000D02*
X171161252Y-80165000D01*
X170638748Y-81635000D02*
X171161252Y-81635000D01*
%TO.C,J6*%
X187090000Y-33880000D02*
X187090000Y-32500000D01*
X188470000Y-33880000D02*
X187090000Y-33880000D01*
X189740000Y-31120000D02*
X207630000Y-31120000D01*
X189740000Y-33880000D02*
X189740000Y-31120000D01*
X189740000Y-33880000D02*
X207630000Y-33880000D01*
X207630000Y-33880000D02*
X207630000Y-31120000D01*
%TO.C,R27*%
X174272936Y-86765000D02*
X174727064Y-86765000D01*
X174272936Y-88235000D02*
X174727064Y-88235000D01*
%TO.C,R25*%
X136965000Y-96414564D02*
X136965000Y-95960436D01*
X138435000Y-96414564D02*
X138435000Y-95960436D01*
%TO.C,C32*%
X204865000Y-60638748D02*
X204865000Y-61161252D01*
X206335000Y-60638748D02*
X206335000Y-61161252D01*
D15*
%TO.C,U4*%
X151244000Y-71844000D02*
X151244000Y-72582006D01*
X151244000Y-76017994D02*
X151244000Y-76756000D01*
X151244000Y-76756000D02*
X151981691Y-76756000D01*
X151981691Y-71844000D02*
X151244000Y-71844000D01*
X155418309Y-76756000D02*
X156156000Y-76756000D01*
X156156000Y-71844000D02*
X155418309Y-71844000D01*
X156156000Y-72582006D02*
X156156000Y-71844000D01*
X156156000Y-76756000D02*
X156156000Y-76017994D01*
D16*
G36*
X154140563Y-77208000D02*
G01*
X153759563Y-77208000D01*
X153759563Y-76954000D01*
X154140563Y-76954000D01*
X154140563Y-77208000D01*
G37*
G36*
X154640689Y-71646000D02*
G01*
X154259689Y-71646000D01*
X154259689Y-71392000D01*
X154640689Y-71392000D01*
X154640689Y-71646000D01*
G37*
D13*
%TO.C,J4*%
X163380000Y-31120000D02*
X163380000Y-33880000D01*
X181270000Y-31120000D02*
X163380000Y-31120000D01*
X181270000Y-31120000D02*
X181270000Y-33880000D01*
X181270000Y-33880000D02*
X163380000Y-33880000D01*
X182540000Y-31120000D02*
X183920000Y-31120000D01*
X183920000Y-31120000D02*
X183920000Y-32500000D01*
%TO.C,R1*%
X125785436Y-61965000D02*
X126239564Y-61965000D01*
X125785436Y-63435000D02*
X126239564Y-63435000D01*
%TO.C,J3*%
X163380000Y-108880000D02*
X163380000Y-107500000D01*
X164760000Y-108880000D02*
X163380000Y-108880000D01*
X166030000Y-106120000D02*
X183920000Y-106120000D01*
X166030000Y-108880000D02*
X166030000Y-106120000D01*
X166030000Y-108880000D02*
X183920000Y-108880000D01*
X183920000Y-108880000D02*
X183920000Y-106120000D01*
%TO.C,C21*%
X178473752Y-82465000D02*
X177951248Y-82465000D01*
X178473752Y-83935000D02*
X177951248Y-83935000D01*
%TO.C,R15*%
X147672936Y-80565000D02*
X148127064Y-80565000D01*
X147672936Y-82035000D02*
X148127064Y-82035000D01*
%TO.C,C26*%
X223761252Y-94265000D02*
X223238748Y-94265000D01*
X223761252Y-95735000D02*
X223238748Y-95735000D01*
%TO.C,R40*%
X206865000Y-54127064D02*
X206865000Y-53672936D01*
X208335000Y-54127064D02*
X208335000Y-53672936D01*
%TO.C,R12*%
X220065000Y-92527064D02*
X220065000Y-92072936D01*
X221535000Y-92527064D02*
X221535000Y-92072936D01*
%TO.C,J9*%
X214950000Y-106225000D02*
X214950000Y-104525000D01*
X224290000Y-106225000D02*
X224290000Y-104525000D01*
%TO.C,C16*%
X140865000Y-95938748D02*
X140865000Y-96461252D01*
X142335000Y-95938748D02*
X142335000Y-96461252D01*
%TO.C,C29*%
X157561252Y-65965000D02*
X157038748Y-65965000D01*
X157561252Y-67435000D02*
X157038748Y-67435000D01*
D10*
%TO.C,U11*%
X158200000Y-49100000D02*
X158200000Y-49600000D01*
X158200000Y-49100000D02*
X158700000Y-49100000D01*
X158200000Y-53700000D02*
X158200000Y-53200000D01*
X158200000Y-53700000D02*
X158700000Y-53700000D01*
X163400000Y-49100000D02*
X162900000Y-49100000D01*
X163400000Y-49100000D02*
X163400000Y-49600000D01*
X163400000Y-53200000D02*
X164200000Y-53200000D01*
X163400000Y-53700000D02*
X162900000Y-53700000D01*
X163400000Y-53700000D02*
X163400000Y-53200000D01*
D13*
%TO.C,Rsns1*%
X129685436Y-61965000D02*
X130139564Y-61965000D01*
X129685436Y-63435000D02*
X130139564Y-63435000D01*
%TO.C,R13*%
X218165000Y-92527064D02*
X218165000Y-92072936D01*
X219635000Y-92527064D02*
X219635000Y-92072936D01*
%TO.C,C7*%
X130665000Y-92938748D02*
X130665000Y-93461252D01*
X132135000Y-92938748D02*
X132135000Y-93461252D01*
%TO.C,J2*%
X139670000Y-31120000D02*
X139670000Y-33880000D01*
X157560000Y-31120000D02*
X139670000Y-31120000D01*
X157560000Y-31120000D02*
X157560000Y-33880000D01*
X157560000Y-33880000D02*
X139670000Y-33880000D01*
X158830000Y-31120000D02*
X160210000Y-31120000D01*
X160210000Y-31120000D02*
X160210000Y-32500000D01*
%TO.C,R34*%
X224714564Y-82365000D02*
X224260436Y-82365000D01*
X224714564Y-83835000D02*
X224260436Y-83835000D01*
%TO.C,R22*%
X138865000Y-96414564D02*
X138865000Y-95960436D01*
X140335000Y-96414564D02*
X140335000Y-95960436D01*
%TO.C,R30*%
X165465000Y-48927064D02*
X165465000Y-48472936D01*
X166935000Y-48927064D02*
X166935000Y-48472936D01*
%TO.C,D5*%
X209740000Y-85415000D02*
X209740000Y-88100000D01*
X211660000Y-85415000D02*
X209740000Y-85415000D01*
X211660000Y-88100000D02*
X211660000Y-85415000D01*
%TO.C,R7*%
X222765000Y-91614564D02*
X222765000Y-91160436D01*
X224235000Y-91614564D02*
X224235000Y-91160436D01*
%TO.C,C17*%
X153838748Y-91165000D02*
X154361252Y-91165000D01*
X153838748Y-92635000D02*
X154361252Y-92635000D01*
%TO.C,C15*%
X158265000Y-76348652D02*
X158265000Y-75826148D01*
X159735000Y-76348652D02*
X159735000Y-75826148D01*
%TO.C,C25*%
X123765000Y-66338748D02*
X123765000Y-66861252D01*
X125235000Y-66338748D02*
X125235000Y-66861252D01*
%TO.C,R16*%
X211172936Y-90365000D02*
X211627064Y-90365000D01*
X211172936Y-91835000D02*
X211627064Y-91835000D01*
%TO.C,U5*%
X142590000Y-84890000D02*
X142715000Y-84890000D01*
X142590000Y-88110000D02*
X142590000Y-84890000D01*
X142715000Y-88110000D02*
X142590000Y-88110000D01*
X145685000Y-84890000D02*
X145810000Y-84890000D01*
X145810000Y-84890000D02*
X145810000Y-88110000D01*
X145810000Y-88110000D02*
X145685000Y-88110000D01*
X142710000Y-88660000D02*
X142380000Y-88900000D01*
X142380000Y-88420000D01*
X142710000Y-88660000D01*
G36*
X142710000Y-88660000D02*
G01*
X142380000Y-88900000D01*
X142380000Y-88420000D01*
X142710000Y-88660000D01*
G37*
%TO.C,R20*%
X147572936Y-90965000D02*
X148027064Y-90965000D01*
X147572936Y-92435000D02*
X148027064Y-92435000D01*
%TO.C,R3*%
X133585436Y-61965000D02*
X134039564Y-61965000D01*
X133585436Y-63435000D02*
X134039564Y-63435000D01*
%TO.C,R24*%
X153872936Y-88565000D02*
X154327064Y-88565000D01*
X153872936Y-90035000D02*
X154327064Y-90035000D01*
%TO.C,C12*%
X211365000Y-103038748D02*
X211365000Y-103561252D01*
X212835000Y-103038748D02*
X212835000Y-103561252D01*
%TO.C,C14*%
X158265000Y-72498652D02*
X158265000Y-71976148D01*
X159735000Y-72498652D02*
X159735000Y-71976148D01*
%TO.C,SW2*%
X209800000Y-67000000D02*
X210400000Y-67000000D01*
X210100000Y-67300000D02*
X209800000Y-67000000D01*
X210400000Y-67000000D02*
X210100000Y-67300000D01*
X211500000Y-65300000D02*
X211500000Y-77000000D01*
X215600000Y-65300000D02*
X211500000Y-65300000D01*
X215600000Y-77000000D02*
X211500000Y-77000000D01*
X217100000Y-71100000D02*
X218100000Y-71100000D01*
X217600000Y-70600000D02*
X217600000Y-71600000D01*
X219600000Y-65200000D02*
X223700000Y-65200000D01*
X223700000Y-65200000D02*
X223700000Y-67800000D01*
X223700000Y-69800000D02*
X223700000Y-72400000D01*
X223700000Y-74400000D02*
X223700000Y-77000000D01*
X223700000Y-77000000D02*
X219600000Y-77000000D01*
X220600000Y-71100000D02*
G75*
G02*
X214600000Y-71100000I-3000000J0D01*
G01*
X214600000Y-71100000D02*
G75*
G02*
X220600000Y-71100000I3000000J0D01*
G01*
%TO.C,C34*%
X204865000Y-67861252D02*
X204865000Y-67338748D01*
X206335000Y-67861252D02*
X206335000Y-67338748D01*
%TO.C,D3*%
X170327500Y-69115000D02*
X170327500Y-71035000D01*
X170327500Y-71035000D02*
X173012500Y-71035000D01*
X173012500Y-69115000D02*
X170327500Y-69115000D01*
%TO.C,R36*%
X206865000Y-74372936D02*
X206865000Y-74827064D01*
X208335000Y-74372936D02*
X208335000Y-74827064D01*
%TO.C,R32*%
X207265000Y-86872936D02*
X207265000Y-87327064D01*
X208735000Y-86872936D02*
X208735000Y-87327064D01*
%TO.C,R28*%
X222365000Y-44785436D02*
X222365000Y-45239564D01*
X223835000Y-44785436D02*
X223835000Y-45239564D01*
%TO.C,R43*%
X158265000Y-88627064D02*
X158265000Y-88172936D01*
X159735000Y-88627064D02*
X159735000Y-88172936D01*
%TO.C,K3*%
X127460000Y-70900000D02*
X127460000Y-70100000D01*
X127460000Y-73100000D02*
X127460000Y-72500000D01*
X127460000Y-75200000D02*
X127460000Y-74700000D01*
X127500000Y-65010000D02*
X127500000Y-65510000D01*
X127500000Y-65010000D02*
X134160000Y-65000000D01*
X127500000Y-65510000D02*
X126900000Y-65510000D01*
X127500000Y-67010000D02*
X126900000Y-67010000D01*
X127500000Y-68410000D02*
X127500000Y-67010000D01*
X134160000Y-65000000D02*
X134160000Y-65500000D01*
X134160000Y-67100000D02*
X134160000Y-68500000D01*
X134160000Y-70100000D02*
X134160000Y-70900000D01*
X134160000Y-72500000D02*
X134160000Y-73100000D01*
X134160000Y-74700000D02*
X134160000Y-75200000D01*
X134160000Y-75200000D02*
X127460000Y-75200000D01*
%TO.C,R39*%
X206865000Y-67839564D02*
X206865000Y-67385436D01*
X208335000Y-67839564D02*
X208335000Y-67385436D01*
%TO.C,D1*%
X221840000Y-98590000D02*
X221840000Y-100610000D01*
X221840000Y-98590000D02*
X225600000Y-98590000D01*
X221840000Y-100610000D02*
X225600000Y-100610000D01*
%TO.C,C20*%
X171151252Y-89065000D02*
X170628748Y-89065000D01*
X171151252Y-90535000D02*
X170628748Y-90535000D01*
%TO.C,R2*%
X134665000Y-93427064D02*
X134665000Y-92972936D01*
X136135000Y-93427064D02*
X136135000Y-92972936D01*
%TO.C,R10*%
X227872936Y-106665000D02*
X228327064Y-106665000D01*
X227872936Y-108135000D02*
X228327064Y-108135000D01*
%TO.C,C3*%
X123138748Y-81165000D02*
X123661252Y-81165000D01*
X123138748Y-82635000D02*
X123661252Y-82635000D01*
%TD*%
M02*
